<svg width="20" height="20" viewBox="0 0 20 20" fill="none" xmlns="http://www.w3.org/2000/svg">
<g opacity="0.5">
<path d="M5.00016 9.99998C4.55814 9.99998 4.13421 9.82438 3.82165 9.51182C3.50909 9.19926 3.3335 8.77534 3.3335 8.33331C3.3335 7.89129 3.50909 7.46736 3.82165 7.1548C4.13421 6.84224 4.55814 6.66665 5.00016 6.66665M5.00016 9.99998C5.44219 9.99998 5.86611 9.82438 6.17867 9.51182C6.49123 9.19926 6.66683 8.77534 6.66683 8.33331C6.66683 7.89129 6.49123 7.46736 6.17867 7.1548C5.86611 6.84224 5.44219 6.66665 5.00016 6.66665M5.00016 9.99998V16.6666M5.00016 6.66665V3.33331M10.0002 15C9.55814 15 9.13421 14.8244 8.82165 14.5118C8.50909 14.1993 8.3335 13.7753 8.3335 13.3333C8.3335 12.8913 8.50909 12.4674 8.82165 12.1548C9.13421 11.8422 9.55814 11.6666 10.0002 11.6666M10.0002 15C10.4422 15 10.8661 14.8244 11.1787 14.5118C11.4912 14.1993 11.6668 13.7753 11.6668 13.3333C11.6668 12.8913 11.4912 12.4674 11.1787 12.1548C10.8661 11.8422 10.4422 11.6666 10.0002 11.6666M10.0002 15V16.6666M10.0002 11.6666V3.33331M15.0002 7.49998C14.5581 7.49998 14.1342 7.32438 13.8217 7.01182C13.5091 6.69926 13.3335 6.27534 13.3335 5.83331C13.3335 5.39129 13.5091 4.96736 13.8217 4.6548C14.1342 4.34224 14.5581 4.16665 15.0002 4.16665M15.0002 7.49998C15.4422 7.49998 15.8661 7.32438 16.1787 7.01182C16.4912 6.69926 16.6668 6.27534 16.6668 5.83331C16.6668 5.39129 16.4912 4.96736 16.1787 4.6548C15.8661 4.34224 15.4422 4.16665 15.0002 4.16665M15.0002 7.49998V16.6666M15.0002 4.16665V3.33331" stroke="black" stroke-width="1.5" stroke-linecap="round" stroke-linejoin="round"/>
</g>
</svg>
