<svg width="20" height="20" viewBox="0 0 20 20" fill="none" xmlns="http://www.w3.org/2000/svg">
<path d="M8.33317 6.66669V11.6667L12.2498 14.0834L12.9165 13.0834L9.58317 11.0834V6.66669H8.33317Z" fill="currentColor" />
<path d="M14.9332 10C14.9748 10.275 14.9998 10.55 14.9998 10.8334C14.9998 14.0834 12.4165 16.6667 9.1665 16.6667C5.9165 16.6667 3.33317 14.0834 3.33317 10.8334C3.33317 7.58335 5.9165 5.00002 9.1665 5.00002C9.74984 5.00002 10.3082 5.08335 10.8332 5.24169V3.52502C10.2998 3.40002 9.7415 3.33335 9.1665 3.33335C4.99984 3.33335 1.6665 6.66669 1.6665 10.8334C1.6665 15 4.99984 18.3334 9.1665 18.3334C13.3332 18.3334 16.6665 15 16.6665 10.8334C16.6665 10.55 16.6498 10.275 16.6165 10H14.9332Z" fill="currentColor" />
<path d="M16.6665 4.16669V1.66669H14.9998V4.16669H12.4998V5.83335H14.9998V8.33335H16.6665V5.83335H19.1665V4.16669H16.6665Z" fill="currentColor" />
</svg>
