<svg width="20" height="20" viewBox="0 0 20 20" fill="none" xmlns="http://www.w3.org/2000/svg">
  <path d="M15.5788 10.6497C15.4691 10.6497 15.3604 10.6539 15.2529 10.6621C15.3377 10.5298 15.4269 10.3997 15.5215 10.2726C16.8586 8.47411 17.2728 6.2038 16.6295 4.19954C16.1392 2.67193 15.0929 1.55042 13.7588 1.12257C11.3329 0.34476 9.3331 1.32656 8.54538 1.81631C7.75761 1.32656 5.75773 0.344759 3.33181 1.12265C1.9974 1.5505 0.950886 2.67235 0.460676 4.20054C-0.182499 6.20565 0.232478 8.47653 1.57085 10.2751C2.14525 11.0472 2.53348 11.8981 2.72483 12.8045C2.80975 13.2055 2.88406 13.6504 2.94558 14.1266C3.3604 17.3455 4.18463 19.0389 5.39528 19.16C6.10305 19.2311 6.68809 18.6507 7.13342 17.4356C7.44065 16.5972 7.68284 15.4744 7.81532 14.274C7.90762 13.4376 8.13359 12.9715 8.30703 12.7275C8.38288 12.6208 8.48885 12.6048 8.54526 12.6048C8.60167 12.6048 8.70764 12.6208 8.78364 12.7277C8.9567 12.9711 9.18248 13.437 9.27485 14.2739C9.40734 15.4744 9.64952 16.5973 9.95683 17.4356C10.378 18.5846 10.9238 19.1659 11.5804 19.1658C11.6182 19.1658 11.6564 19.1639 11.6948 19.1601C12.1772 19.1122 12.6007 18.8107 12.9596 18.2621C13.6824 18.8277 14.5918 19.1653 15.5787 19.1653C17.9265 19.1653 19.8365 17.2553 19.8365 14.9075C19.8365 12.5598 17.9265 10.6497 15.5788 10.6497ZM11.5993 18.0083C11.5451 17.9749 11.2786 17.769 10.9675 16.8279C10.7261 16.0977 10.5325 15.1457 10.4223 14.1473C10.3263 13.2777 10.0915 12.575 9.72468 12.059C9.45398 11.678 9.01311 11.4504 8.54538 11.4504C8.07764 11.4504 7.63673 11.678 7.36619 12.0588C6.99886 12.5754 6.76397 13.2781 6.66799 14.1473C6.55787 15.1455 6.36429 16.0974 6.12291 16.8277C5.8121 17.768 5.54579 17.9746 5.49134 18.0083C5.22122 17.9479 4.49736 17.1354 4.09053 13.9789C4.02502 13.472 3.94552 12.9964 3.85426 12.5657C3.62833 11.4954 3.1717 10.4929 2.49698 9.58605C1.38054 8.08568 1.03023 6.20423 1.55986 4.55316C1.9348 3.38427 2.70912 2.53457 3.68427 2.22191C4.71787 1.89047 5.78382 1.91141 6.85262 2.2842C7.67074 2.56953 8.18446 2.96472 8.18804 2.96749L8.5438 3.25029L8.90106 2.96872C8.90617 2.96476 9.41982 2.56953 10.238 2.2842C11.3068 1.91141 12.3728 1.89047 13.4063 2.22187C14.3811 2.53453 15.1553 3.38396 15.5303 4.55239C16.0601 6.20276 15.7104 8.08368 14.5951 9.58386C14.2466 10.0525 13.9528 10.5541 13.7196 11.0777C12.3009 11.7692 11.321 13.226 11.321 14.9075C11.321 15.8373 11.6208 16.6983 12.1285 17.3994C11.9167 17.8056 11.7219 17.9814 11.5993 18.0083ZM15.5788 18.0109C13.8675 18.0109 12.4754 16.6187 12.4754 14.9075C12.4754 13.1963 13.8675 11.8041 15.5788 11.8041C17.29 11.8041 18.6822 13.1963 18.6822 14.9075C18.6822 16.6187 17.29 18.0109 15.5788 18.0109Z" fill="currentColor" />
</svg>