<svg width="20" height="20" viewBox="0 0 20 20" fill="none" xmlns="http://www.w3.org/2000/svg">
<path d="M10.8335 6.66665C10.8335 4.82498 9.34183 3.33331 7.50016 3.33331C5.6585 3.33331 4.16683 4.82498 4.16683 6.66665C4.16683 8.50831 5.6585 9.99998 7.50016 9.99998C9.34183 9.99998 10.8335 8.50831 10.8335 6.66665ZM9.16683 6.66665C9.16683 7.58331 8.41683 8.33331 7.50016 8.33331C6.5835 8.33331 5.8335 7.58331 5.8335 6.66665C5.8335 5.74998 6.5835 4.99998 7.50016 4.99998C8.41683 4.99998 9.16683 5.74998 9.16683 6.66665ZM0.833496 15V16.6666H14.1668V15C14.1668 12.7833 9.72516 11.6666 7.50016 11.6666C5.27516 11.6666 0.833496 12.7833 0.833496 15ZM2.50016 15C2.66683 14.4083 5.25016 13.3333 7.50016 13.3333C9.74183 13.3333 12.3168 14.4 12.5002 15H2.50016ZM16.6668 12.5V9.99998H19.1668V8.33331H16.6668V5.83331H15.0002V8.33331H12.5002V9.99998H15.0002V12.5H16.6668Z" fill="currentColor" />
</svg>
