<svg width="20" height="20" viewBox="0 0 20 20" fill="none" xmlns="http://www.w3.org/2000/svg">
<g clip-path="url(#clip0_26_6874)">
<path d="M19.8124 17.823C20.0655 18.1724 19.9874 18.6609 19.6379 18.914C18.671 19.6143 17.3984 20 16.0547 20C14.7109 20 13.4384 19.6143 12.4714 18.914C12.122 18.6609 12.0439 18.1724 12.297 17.823C12.55 17.4735 13.0385 17.3954 13.3879 17.6485C14.8335 18.6955 17.2759 18.6955 18.7214 17.6485C19.0708 17.3954 19.5593 17.4735 19.8124 17.823Z" fill="currentColor"/>
<path d="M19.8124 14.6589C20.0655 15.0084 19.9874 15.4968 19.6379 15.7499C18.671 16.4502 17.3984 16.8359 16.0547 16.8359C14.7109 16.8359 13.4384 16.4502 12.4714 15.7499C12.122 15.4968 12.0439 15.0083 12.297 14.6589C12.55 14.3095 13.0385 14.2313 13.3879 14.4844C14.8335 15.5314 17.2759 15.5314 18.7214 14.4844C19.0708 14.2313 19.5593 14.3095 19.8124 14.6589Z" fill="currentColor"/>
<path d="M10.0391 18.4375C10.4705 18.4375 10.8203 18.7873 10.8203 19.2188C10.8203 19.6502 10.4705 20 10.0391 20H4.6875C2.10281 20 0 17.8972 0 15.3125V12.3332C0 11.3597 0.224687 10.3823 0.649805 9.50648C1.07488 8.63074 1.70383 7.84949 2.46867 7.24727L4.70227 5.48852L3.14098 3.04902C2.75055 2.43898 2.72402 1.66539 3.07172 1.03004C3.41945 0.394688 4.08535 0 4.80961 0H14.502C15.2239 0 15.8888 0.392813 16.2372 1.02508C16.5855 1.65734 16.5624 2.42926 16.1767 3.03949L14.6261 5.49293L15.217 5.96945C15.5529 6.24031 15.6056 6.73215 15.3347 7.06801C15.0638 7.40391 14.572 7.4566 14.2361 7.18574L13.1033 6.27219C12.7945 6.02313 12.7214 5.58207 12.9333 5.24668L14.8558 2.20473C14.9751 2.01605 14.9045 1.84422 14.8686 1.7791C14.8327 1.71398 14.7252 1.5625 14.502 1.5625H4.80961C4.5857 1.5625 4.47824 1.71469 4.44242 1.78016C4.4066 1.84559 4.33633 2.01813 4.45703 2.20672L6.4002 5.24293C6.61691 5.58148 6.54129 6.02922 6.22551 6.27789L3.43527 8.47492C2.24512 9.41203 1.5625 10.8183 1.5625 12.3332V15.3125C1.5625 17.0356 2.96438 18.4375 4.6875 18.4375H10.0391Z" fill="currentColor"/>
<path d="M10.7031 4.88281C11.1346 4.88281 11.4844 5.23258 11.4844 5.66406C11.4844 6.09555 11.1346 6.44531 10.7031 6.44531H8.63281C8.20133 6.44531 7.85156 6.09555 7.85156 5.66406C7.85156 5.23258 8.20133 4.88281 8.63281 4.88281H10.7031Z" fill="currentColor"/>
<path fill-rule="evenodd" clip-rule="evenodd" d="M16.0938 13.7109C13.9033 13.7109 12.1875 12.5098 12.1875 10.9766C12.1875 9.44328 13.9033 8.24219 16.0938 8.24219C18.2842 8.24219 20 9.44328 20 10.9766C20 12.5098 18.2842 13.7109 16.0938 13.7109ZM14.2981 10.258C14.7591 9.96988 15.4135 9.80469 16.0938 9.80469C16.774 9.80469 17.4284 9.96988 17.8894 10.258C18.2377 10.4757 18.4375 10.7376 18.4375 10.9766C18.4375 11.2155 18.2377 11.4774 17.8894 11.6952C17.4284 11.9832 16.774 12.1484 16.0938 12.1484C15.4135 12.1484 14.7591 11.9832 14.2981 11.6952C13.9498 11.4774 13.75 11.2155 13.75 10.9766C13.75 10.7376 13.9498 10.4757 14.2981 10.258Z" fill="currentColor"/>
</g>
<defs>
<clipPath id="clip0_26_6874">
<rect width="20" height="20" fill="currentColor"/>
</clipPath>
</defs>
</svg>
