<svg width="24" height="24" viewBox="0 0 24 24" fill="none" xmlns="http://www.w3.org/2000/svg">
<path d="M9.45832 19.5H14.4904C14.4904 20.8807 13.3639 22 11.9744 22C10.5848 22 9.45832 20.8807 9.45832 19.5ZM12.075 2H11.9744C10.9322 2 10.0873 2.83947 10.0873 3.875V4.82708C7.82734 5.62102 6.31557 7.7432 6.31328 10.125V11.6979C6.31295 12.6918 5.91553 13.645 5.20832 14.3479L4.94623 14.6083C4.41599 15.137 4.27522 15.9388 4.59399 16.6146C4.90975 17.245 5.56274 17.6384 6.27135 17.625H17.7424C18.7255 17.625 19.5225 16.8331 19.5225 15.8563V15.7771C19.5248 15.3564 19.3761 14.9487 19.1031 14.6271L18.5517 13.9896C17.9663 13.3106 17.6443 12.4461 17.6438 11.5521V10.125C17.6415 7.7432 16.1298 5.62102 13.8698 4.82708V3.98125C13.8614 2.96667 13.0961 2.05625 12.075 2ZM6.83326 2.34167C6.38377 2.12207 5.84599 2.18835 5.46412 2.51042C3.59731 4.08292 2.37113 6.27745 2.01506 8.68333C1.90852 9.36553 2.37873 10.0044 3.0653 10.1102C3.12988 10.1202 3.19514 10.1251 3.26049 10.125C3.90069 10.1206 4.43863 9.64575 4.51851 9.01458C4.78783 7.22961 5.69787 5.60168 7.08067 4.43125C7.61753 3.99304 7.69522 3.20535 7.2542 2.67191C7.1404 2.53427 6.99831 2.42238 6.83745 2.34375L6.83326 2.34167ZM21.984 8.68333C21.6258 6.27835 20.3982 4.08537 18.5307 2.51458C18.0307 2.0353 17.2343 2.04955 16.7519 2.54642C16.2695 3.04328 16.2839 3.83461 16.7839 4.3139C16.8292 4.35725 16.8776 4.39717 16.9288 4.43333C18.3116 5.60376 19.2217 7.23169 19.491 9.01667C19.5649 9.7031 20.1849 10.2 20.8757 10.1266C21.5666 10.0531 22.0667 9.43709 21.9928 8.75066C21.9904 8.72884 21.9875 8.70708 21.984 8.68542V8.68333Z" fill="currentColor"/>
</svg>
