<svg width="24" height="24" viewBox="0 0 24 24" fill="none" xmlns="http://www.w3.org/2000/svg">
  <g clip-path="url(#clip0_11628_36106)">
    <path d="M5 24H9C9.26522 24 9.51957 23.8946 9.70711 23.7071C9.89464 23.5196 10 23.2652 10 23C10 22.7348 9.89464 22.4804 9.70711 22.2929C9.51957 22.1054 9.26522 22 9 22H5C4.20459 21.9992 3.44199 21.6829 2.87956 21.1204C2.31712 20.558 2.00079 19.7954 2 19V8.5H22V9.5C22 9.76522 22.1054 10.0196 22.2929 10.2071C22.4804 10.3946 22.7348 10.5 23 10.5C23.2652 10.5 23.5196 10.3946 23.7071 10.2071C23.8946 10.0196 24 9.76522 24 9.5V6.5C23.9985 5.17436 23.4713 3.90344 22.5339 2.96607C21.5966 2.02871 20.3256 1.50146 19 1.5H18V1C18 0.734784 17.8946 0.48043 17.7071 0.292893C17.5196 0.105357 17.2652 0 17 0C16.7348 0 16.4804 0.105357 16.2929 0.292893C16.1054 0.48043 16 0.734784 16 1V1.5H8V1C8 0.734784 7.89464 0.48043 7.70711 0.292893C7.51957 0.105357 7.26522 0 7 0C6.73478 0 6.48043 0.105357 6.29289 0.292893C6.10536 0.48043 6 0.734784 6 1V1.5H5C3.67436 1.50146 2.40344 2.02871 1.46607 2.96607C0.528708 3.90344 0.0014558 5.17436 0 6.5V19C0.0014558 20.3256 0.528708 21.5966 1.46607 22.5339C2.40344 23.4713 3.67436 23.9985 5 24ZM5 3.5H6V4C6 4.26522 6.10536 4.51957 6.29289 4.70711C6.48043 4.89464 6.73478 5 7 5C7.26522 5 7.51957 4.89464 7.70711 4.70711C7.89464 4.51957 8 4.26522 8 4V3.5H16V4C16 4.26522 16.1054 4.51957 16.2929 4.70711C16.4804 4.89464 16.7348 5 17 5C17.2652 5 17.5196 4.89464 17.7071 4.70711C17.8946 4.51957 18 4.26522 18 4V3.5H19C19.7954 3.50079 20.558 3.81712 21.1204 4.37956C21.6829 4.94199 21.9992 5.70459 22 6.5H2C2.00079 5.70459 2.31712 4.94199 2.87956 4.37956C3.44199 3.81712 4.20459 3.50079 5 3.5Z" fill="currentColor" />
    <path d="M22.2808 12.5709C21.9148 12.2053 21.4186 12 20.9013 12C20.384 12 19.8879 12.2053 19.5219 12.5709L17.692 14.4007L12.8681 19.2229C12.4715 19.6199 12.2265 20.1433 12.1756 20.7022L12.0052 22.5789C11.989 22.7591 12.0105 22.9407 12.0683 23.1122C12.1261 23.2836 12.2189 23.4412 12.3409 23.5749C12.4628 23.7085 12.6113 23.8153 12.7768 23.8885C12.9423 23.9617 13.1212 23.9997 13.3021 24C13.3415 24 13.3814 24 13.4213 23.9948L15.2981 23.8241C15.8569 23.7729 16.3802 23.5278 16.777 23.1311L21.4174 18.4919L23.4299 16.4796C23.795 16.1135 24 15.6175 24 15.1005C24 14.5834 23.795 14.0875 23.4299 13.7213L22.2808 12.5709ZM15.4487 21.8033C15.3626 21.8897 15.2488 21.943 15.1273 21.9539L13.9365 22.0623L14.0444 20.8715C14.0557 20.75 14.109 20.6363 14.195 20.5497L18.8354 15.9105L20.0891 17.1637L15.4487 21.8033ZM22.1011 15.1514L21.416 15.8368L20.1623 14.5837L20.8478 13.8982C20.8625 13.8862 20.8809 13.8796 20.8999 13.8796C20.9189 13.8796 20.9373 13.8862 20.952 13.8982L22.1011 15.0472C22.1148 15.0611 22.1225 15.0798 22.1225 15.0993C22.1225 15.1188 22.1148 15.1375 22.1011 15.1514Z" fill="currentColor" />
  </g>
  <defs>
    <clipPath id="clip0_11628_36106">
      <rect width="24" height="24" fill="currentColor" />
    </clipPath>
  </defs>
</svg>