<svg width="20" height="20" viewBox="0 0 20 20" fill="none" xmlns="http://www.w3.org/2000/svg">
<g clip-path="url(#clip0_26_6847)">
<path d="M9.375 16.3477H15.3125C17.8972 16.3477 20 14.2448 20 11.6602V5.25391C20 2.66922 17.8972 0.566406 15.3125 0.566406H4.6875C2.10281 0.566406 0 2.66922 0 5.25391V11.2695C0 12.3465 0.876172 13.2227 1.95313 13.2227H4.29688C4.72836 13.2227 5.07813 12.8729 5.07813 12.4414C5.07813 12.0099 4.72836 11.6602 4.29688 11.6602H1.95313C1.73773 11.6602 1.5625 11.4849 1.5625 11.2695V5.25391C1.5625 3.53078 2.96438 2.12891 4.6875 2.12891H15.3125C17.0356 2.12891 18.4375 3.53078 18.4375 5.25391V11.6602C18.4375 13.3833 17.0356 14.7852 15.3125 14.7852H9.375C8.94352 14.7852 8.59375 15.1349 8.59375 15.5664C8.59375 15.9979 8.94352 16.3477 9.375 16.3477Z" fill="currentColor"/>
<path d="M6.25 14.7843C6.68148 14.7843 7.03125 15.1341 7.03125 15.5656C7.03125 15.9971 6.68148 16.3468 6.25 16.3468H0.78125C0.349766 16.3468 0 15.9971 0 15.5656C0 15.1341 0.349766 14.7843 0.78125 14.7843H6.25Z" fill="currentColor"/>
<path d="M8.59375 17.8711C9.02524 17.8711 9.375 18.2209 9.375 18.6523C9.375 19.0838 9.02524 19.4336 8.59375 19.4336H0.78125C0.349766 19.4336 0 19.0838 0 18.6523C0 18.2209 0.349766 17.8711 0.78125 17.8711H8.59375Z" fill="currentColor"/>
<path d="M16.6442 6.96992L12.8608 9.84149C12.0248 10.4791 11.0225 10.798 10.02 10.798C9.01699 10.798 8.01387 10.4789 7.1768 9.84039L7.17293 9.83746L3.50672 7.00496C3.16523 6.74113 3.1023 6.25051 3.36609 5.90906C3.62984 5.56758 4.12055 5.50465 4.46199 5.76844L8.12633 8.59945C9.24191 9.4491 10.7993 9.44855 11.9146 8.59801L15.6995 5.72535C16.0432 5.46445 16.5334 5.53168 16.7941 5.87531C17.055 6.21898 16.9879 6.70906 16.6442 6.96992Z" fill="currentColor"/>
</g>
<defs>
<clipPath id="clip0_26_6847">
<rect width="20" height="20" fill="currentColor"/>
</clipPath>
</defs>
</svg>
