<svg width="25" height="20" viewBox="0 0 25 20" fill="none" xmlns="http://www.w3.org/2000/svg">
<path opacity="0.2" d="M14.9587 1.66668V19.1667H11.6253V13.3333H6.62533V19.1667H3.29199V1.66668C3.29199 1.44566 3.37979 1.2337 3.53607 1.07742C3.69235 0.921141 3.90431 0.833344 4.12533 0.833344H14.1253C14.3463 0.833344 14.5583 0.921141 14.7146 1.07742C14.8709 1.2337 14.9587 1.44566 14.9587 1.66668Z" fill="black" fill-opacity="0.56"/>
<path d="M24.1253 18.3333H23.292V10C23.292 9.55797 23.1164 9.13405 22.8038 8.82149C22.4913 8.50893 22.0674 8.33333 21.6253 8.33333H15.792V1.66667C15.792 1.22464 15.6164 0.800716 15.3038 0.488155C14.9913 0.175595 14.5674 0 14.1253 0H4.12533C3.6833 0 3.25937 0.175595 2.94681 0.488155C2.63425 0.800716 2.45866 1.22464 2.45866 1.66667V18.3333H1.62533C1.40431 18.3333 1.19235 18.4211 1.03607 18.5774C0.87979 18.7337 0.791992 18.9457 0.791992 19.1667C0.791992 19.3877 0.87979 19.5996 1.03607 19.7559C1.19235 19.9122 1.40431 20 1.62533 20H24.1253C24.3463 20 24.5583 19.9122 24.7146 19.7559C24.8709 19.5996 24.9587 19.3877 24.9587 19.1667C24.9587 18.9457 24.8709 18.7337 24.7146 18.5774C24.5583 18.4211 24.3463 18.3333 24.1253 18.3333ZM21.6253 10V18.3333H15.792V10H21.6253ZM4.12533 1.66667H14.1253V18.3333H12.4587V13.3333C12.4587 13.1123 12.3709 12.9004 12.2146 12.7441C12.0583 12.5878 11.8463 12.5 11.6253 12.5H6.62533C6.40431 12.5 6.19235 12.5878 6.03607 12.7441C5.87979 12.9004 5.79199 13.1123 5.79199 13.3333V18.3333H4.12533V1.66667ZM10.792 18.3333H7.45866V14.1667H10.792V18.3333ZM5.79199 6.66667C5.79199 6.44565 5.87979 6.23369 6.03607 6.07741C6.19235 5.92113 6.40431 5.83333 6.62533 5.83333H8.29199V4.16667C8.29199 3.94565 8.37979 3.73369 8.53607 3.57741C8.69235 3.42113 8.90431 3.33333 9.12533 3.33333C9.34634 3.33333 9.5583 3.42113 9.71458 3.57741C9.87086 3.73369 9.95866 3.94565 9.95866 4.16667V5.83333H11.6253C11.8463 5.83333 12.0583 5.92113 12.2146 6.07741C12.3709 6.23369 12.4587 6.44565 12.4587 6.66667C12.4587 6.88768 12.3709 7.09964 12.2146 7.25592C12.0583 7.4122 11.8463 7.5 11.6253 7.5H9.95866V9.16667C9.95866 9.38768 9.87086 9.59964 9.71458 9.75592C9.5583 9.9122 9.34634 10 9.12533 10C8.90431 10 8.69235 9.9122 8.53607 9.75592C8.37979 9.59964 8.29199 9.38768 8.29199 9.16667V7.5H6.62533C6.40431 7.5 6.19235 7.4122 6.03607 7.25592C5.87979 7.09964 5.79199 6.88768 5.79199 6.66667Z" fill="currentColor"/>
</svg>
