<svg width="20" height="20" viewBox="0 0 20 20" fill="none" xmlns="http://www.w3.org/2000/svg">
<g clip-path="url(#clip0_26_6886)">
<path d="M19.5025 18.8616C19.8958 18.686 20.0723 18.2249 19.8967 17.8316C19.721 17.4383 19.2599 17.2617 18.8666 17.4374C17.4059 18.0896 15.3655 18.4478 13.2677 18.421C12.8381 18.4155 12.4834 18.76 12.4778 19.1907C12.4723 19.6214 12.8169 19.975 13.2475 19.9806C13.3312 19.9817 13.4146 19.9822 13.4978 19.9822C15.7543 19.9822 17.8783 19.5868 19.5025 18.8616Z" fill="currentColor"/>
<path d="M19.5025 15.3912C19.8958 15.2157 20.0723 14.7545 19.8967 14.3612C19.721 13.9678 19.2599 13.7913 18.8666 13.967C17.8369 14.4268 16.5312 14.7416 15.0908 14.8776C14.662 14.918 14.3472 15.2984 14.3876 15.7272C14.4257 16.1311 14.7654 16.4338 15.1631 16.4338C15.1876 16.4338 15.2124 16.4327 15.2373 16.4303C16.8447 16.2787 18.3196 15.9194 19.5025 15.3912Z" fill="currentColor"/>
<path d="M19.5025 11.8819C19.8958 11.7063 20.0722 11.2451 19.8966 10.8518C19.721 10.4585 19.2599 10.282 18.8666 10.4576C17.8945 10.8917 16.6673 11.1985 15.318 11.3451C14.8898 11.3916 14.5804 11.7764 14.6269 12.2046C14.6703 12.6042 15.0083 12.9003 15.4012 12.9003C15.4294 12.9003 15.4578 12.8988 15.4864 12.8957C16.9952 12.7318 18.3839 12.3813 19.5025 11.8819Z" fill="currentColor"/>
<path d="M14.2233 9.43991C16.2016 9.36309 18.0764 8.9702 19.5024 8.33352C19.8958 8.15793 20.0723 7.69676 19.8966 7.30344C19.721 6.91016 19.2598 6.7336 18.8666 6.90926C17.6177 7.46686 15.9472 7.8121 14.1628 7.88132C13.7324 7.89804 13.397 8.26048 13.4138 8.69085C13.4301 9.11096 13.7757 9.44049 14.1925 9.44049C14.2027 9.44049 14.213 9.4403 14.2233 9.43991Z" fill="currentColor"/>
<path fill-rule="evenodd" clip-rule="evenodd" d="M6.6288 6.72455C2.97368 6.72455 0 9.69823 0 13.3534C0 17.0085 2.97368 19.9822 6.6288 19.9822C10.2839 19.9822 13.2576 17.0085 13.2576 13.3534C13.2576 9.69823 10.2839 6.72455 6.6288 6.72455ZM1.55972 13.3534C1.55972 16.1485 3.83371 18.4224 6.6288 18.4224C9.4239 18.4224 11.6979 16.1485 11.6979 13.3534C11.6979 10.5582 9.4239 8.28427 6.6288 8.28427C3.83371 8.28427 1.55972 10.5582 1.55972 13.3534ZM8.81241 14.5231C8.81241 15.3608 8.2761 16.0765 7.52564 16.352V16.4728C7.52564 16.9035 7.1765 17.2527 6.74578 17.2527C6.31507 17.2527 5.96592 16.9035 5.96592 16.4728V16.3711C5.64809 16.3067 5.29392 16.2086 4.93702 16.0667C4.53675 15.9076 4.34128 15.4542 4.50033 15.054C4.65943 14.6537 5.11284 14.4583 5.5131 14.6173C6.12361 14.8599 6.68027 14.9131 6.84327 14.9131C7.06517 14.9131 7.25269 14.7345 7.25269 14.5231C7.25269 14.3118 7.00271 14.1332 6.70679 14.1332C5.43971 14.1332 4.48419 13.2951 4.48419 12.1836C4.48419 11.2698 5.11619 10.5012 5.96592 10.2911V10.2339C5.96592 9.8032 6.31507 9.45406 6.74578 9.45406C7.1765 9.45406 7.52564 9.8032 7.52564 10.2339V10.3774C7.72603 10.4302 7.94833 10.5017 8.19823 10.5989C8.59963 10.755 8.79853 11.2069 8.6424 11.6084C8.48631 12.0098 8.03434 12.2087 7.63291 12.0526C7.04778 11.825 6.71085 11.7936 6.43384 11.7936C6.21883 11.7936 6.04391 11.9686 6.04391 12.1836C6.04391 12.4059 6.32891 12.5735 6.70679 12.5735C7.25495 12.5735 7.7727 12.7649 8.16478 13.1124C8.57635 13.4772 8.81241 13.9914 8.81241 14.5231Z" fill="currentColor"/>
<path fill-rule="evenodd" clip-rule="evenodd" d="M9.22234 5.25343C10.3846 5.69923 11.9134 5.94473 13.5272 5.94473C15.141 5.94473 16.6698 5.69923 17.832 5.25343C19.7184 4.52987 20 3.51925 20 2.98127C20 2.44328 19.7184 1.43262 17.832 0.709107C16.6698 0.263261 15.141 0.0177612 13.5272 0.0177612C11.9134 0.0177612 10.3846 0.263261 9.22234 0.709068C7.33598 1.43262 7.05433 2.44324 7.05433 2.98123C7.05433 3.51921 7.33598 4.52987 9.22234 5.25343ZM13.5272 1.57748C12.1204 1.57748 10.7549 1.79175 9.78092 2.1653C8.89929 2.50348 8.61405 2.86105 8.61405 2.98123C8.61405 3.1014 8.89929 3.45897 9.78092 3.79715C10.7549 4.17071 12.1204 4.38497 13.5272 4.38497C14.934 4.38497 16.2994 4.17071 17.2734 3.79715C18.1551 3.45897 18.4403 3.1014 18.4403 2.98123C18.4403 2.86105 18.155 2.50348 17.2734 2.1653C16.2995 1.79175 14.934 1.57748 13.5272 1.57748Z" fill="currentColor"/>
</g>
<defs>
<clipPath id="clip0_26_6886">
<rect width="20" height="20" fill="currentColor"/>
</clipPath>
</defs>
</svg>
