<svg width="16" height="22" viewBox="0 0 16 22" fill="none" xmlns="http://www.w3.org/2000/svg">
  <path d="M9.0615 11.8C8.9727 11.8667 8.8721 11.9335 8.78 12H15.7122C15.75 12 15.7874 12.0074 15.8224 12.0219C15.8573 12.0363 15.889 12.0575 15.9157 12.0842C15.9425 12.111 15.9637 12.1427 15.9781 12.1776C15.9926 12.2126 16 12.25 16 12.2878V13.7122C16 13.75 15.9926 13.7874 15.9781 13.8223C15.9637 13.8573 15.9425 13.889 15.9157 13.9157C15.889 13.9424 15.8573 13.9636 15.8224 13.9781C15.7874 13.9926 15.75 14 15.7122 14H6.0838C5.90774 14.1542 5.75223 14.3305 5.6211 14.5244C5.24783 15.0001 5.00325 15.5638 4.9109 16.1614C4.81855 16.759 4.88154 17.3703 5.0938 17.9365C5.37303 18.3116 5.74555 18.6071 6.17435 18.7937C6.60315 18.9802 7.0733 19.0514 7.5381 19C9.7811 19 11.2105 17.0969 11.7896 16.1368C11.8151 16.0948 11.8511 16.0601 11.894 16.0361C11.9369 16.0122 11.9853 15.9997 12.0344 16H13.6509C13.6988 16 13.746 16.012 13.7881 16.0348C13.8302 16.0577 13.8659 16.0907 13.8921 16.1308C13.9182 16.171 13.9339 16.217 13.9377 16.2647C13.9416 16.3125 13.9335 16.3605 13.9141 16.4043C13.8311 16.5918 11.832 21 7.5381 21C6.71545 21.0692 5.8896 20.911 5.1507 20.5428C4.4118 20.1746 3.78825 19.6105 3.3481 18.9121C2.98531 18.1338 2.82117 17.2778 2.87037 16.4205C2.91956 15.5633 3.18056 14.7316 3.63 14H0.2878C0.250002 14 0.212572 13.9926 0.177648 13.9781C0.142725 13.9636 0.110993 13.9424 0.0842654 13.9157C0.0575381 13.889 0.0363394 13.8573 0.0218808 13.8223C0.00742213 13.7874 -1.29839e-05 13.75 1.56442e-07 13.7122V12.2878C-1.29839e-05 12.25 0.00742213 12.2126 0.0218808 12.1776C0.0363394 12.1427 0.0575381 12.111 0.0842654 12.0842C0.110993 12.0575 0.142725 12.0363 0.177648 12.0219C0.212572 12.0074 0.250002 12 0.2878 12H5.3611C5.7979 11.658 6.2723 11.3208 6.7686 10.9766C7.1426 10.7178 7.5166 10.459 7.8623 10.2002C7.9492 10.135 8.0237 10.0661 8.1071 10.0002H0.2878C0.249985 10.0002 0.212538 9.99275 0.177602 9.97828C0.142665 9.96381 0.110925 9.94259 0.0841948 9.91584C0.0574649 9.88909 0.0362704 9.85734 0.0218236 9.82239C0.00737669 9.78745 -3.92775e-05 9.74999 1.56442e-07 9.71218V8.28778C-1.29839e-05 8.24998 0.00742213 8.21255 0.0218808 8.17763C0.0363394 8.1427 0.0575381 8.11097 0.0842654 8.08424C0.110993 8.05752 0.142725 8.03632 0.177648 8.02186C0.212572 8.0074 0.250002 7.99997 0.2878 7.99998H10.0215C10.1432 7.82818 10.2666 7.65828 10.3789 7.47558C10.7522 6.99988 10.9968 6.43612 11.0891 5.83854C11.1814 5.24096 11.1185 4.62967 10.9062 4.06348C10.627 3.68837 10.2545 3.39285 9.82565 3.20628C9.39685 3.01971 8.9267 2.94859 8.4619 2.99998C6.2189 2.99998 4.79 4.90308 4.21 5.86318C4.18451 5.90511 4.14861 5.93974 4.10579 5.96371C4.06296 5.98768 4.01467 6.00017 3.9656 5.99998H2.3491C2.30119 5.99996 2.25405 5.98798 2.21194 5.96514C2.16982 5.94229 2.13408 5.9093 2.10794 5.86915C2.0818 5.829 2.0661 5.78296 2.06225 5.73521C2.0584 5.68746 2.06653 5.6395 2.0859 5.59568C2.1689 5.40818 4.168 0.99998 8.4619 0.99998C9.28455 0.930806 10.1104 1.08895 10.8493 1.45715C11.5882 1.82534 12.2118 2.38945 12.6519 3.08788C13.0147 3.86613 13.1788 4.72219 13.1296 5.57943C13.0804 6.43668 12.8194 7.26834 12.37 7.99998H15.712C15.7498 7.99994 15.7873 8.00736 15.8222 8.0218C15.8572 8.03625 15.8889 8.05744 15.9157 8.08417C15.9424 8.1109 15.9636 8.14264 15.9781 8.17758C15.9926 8.21252 16 8.24996 16 8.28778V9.71218C16 9.74998 15.9926 9.78741 15.9781 9.82233C15.9637 9.85725 15.9425 9.88899 15.9157 9.91571C15.889 9.94244 15.8573 9.96364 15.8224 9.9781C15.7874 9.99256 15.75 9.99999 15.7122 9.99998H10.991C10.4153 10.6684 9.76826 11.272 9.0615 11.8Z" fill="currentColor"  />
</svg>