<svg width="20" height="20" viewBox="0 0 20 20" fill="none" xmlns="http://www.w3.org/2000/svg">
<path fill-rule="evenodd" clip-rule="evenodd" d="M15.3125 20H4.6875C2.10281 20 0 17.8972 0 15.3125V4.6875C0 2.10281 2.10281 0 4.6875 0H15.3125C17.8972 0 20 2.10281 20 4.6875V15.3125C20 17.8972 17.8972 20 15.3125 20ZM1.5625 4.6875C1.5625 2.96438 2.96438 1.5625 4.6875 1.5625H15.3125C17.0356 1.5625 18.4375 2.96438 18.4375 4.6875V15.3125C18.4375 17.0356 17.0356 18.4375 15.3125 18.4375H4.6875C2.96438 18.4375 1.5625 17.0356 1.5625 15.3125V4.6875ZM16.5625 10C16.5625 9.56852 16.2127 9.21875 15.7813 9.21875H10.2734C9.84195 9.21875 9.49219 9.56852 9.49219 10C9.49219 10.4315 9.84195 10.7813 10.2734 10.7813H15.7813C16.2127 10.7813 16.5625 10.4315 16.5625 10ZM13.8281 6.99219C13.8281 6.5607 13.4784 6.21094 13.0469 6.21094H5.74219C5.3107 6.21094 4.96094 6.5607 4.96094 6.99219C4.96094 7.42367 5.3107 7.77344 5.74219 7.77344H13.0469C13.4784 7.77344 13.8281 7.42367 13.8281 6.99219ZM8.24219 3.94531C8.24219 3.51383 7.89242 3.16406 7.46094 3.16406H4.17969C3.7482 3.16406 3.39844 3.51383 3.39844 3.94531C3.39844 4.3768 3.7482 4.72656 4.17969 4.72656H7.46094C7.89242 4.72656 8.24219 4.3768 8.24219 3.94531ZM15.3906 13.0469C15.3906 12.6154 15.0409 12.2656 14.6094 12.2656H8.08594C7.65445 12.2656 7.30469 12.6154 7.30469 13.0469C7.30469 13.4784 7.65445 13.8281 8.08594 13.8281H14.6094C15.0409 13.8281 15.3906 13.4784 15.3906 13.0469ZM16.4453 16.0938C16.4453 15.6623 16.0955 15.3125 15.6641 15.3125H13.9453C13.5138 15.3125 13.1641 15.6623 13.1641 16.0938C13.1641 16.5252 13.5138 16.875 13.9453 16.875H15.6641C16.0955 16.875 16.4453 16.5252 16.4453 16.0938Z" fill="currentColor"/>
</svg>
