<svg width="10" height="14" viewBox="0 0 10 14" fill="none" xmlns="http://www.w3.org/2000/svg">
  <path d="M4.16683 11.9999C4.16683 12.9166 3.41683 13.6666 2.50016 13.6666C1.5835 13.6666 0.833496 12.9166 0.833496 11.9999C0.833496 11.0833 1.5835 10.3333 2.50016 10.3333C3.41683 10.3333 4.16683 11.0833 4.16683 11.9999ZM2.50016 5.33325C1.5835 5.33325 0.833496 6.08325 0.833496 6.99992C0.833496 7.91658 1.5835 8.66658 2.50016 8.66658C3.41683 8.66658 4.16683 7.91658 4.16683 6.99992C4.16683 6.08325 3.41683 5.33325 2.50016 5.33325ZM2.50016 0.333252C1.5835 0.333252 0.833496 1.08325 0.833496 1.99992C0.833496 2.91659 1.5835 3.66659 2.50016 3.66659C3.41683 3.66659 4.16683 2.91659 4.16683 1.99992C4.16683 1.08325 3.41683 0.333252 2.50016 0.333252ZM7.50016 3.66659C8.41683 3.66659 9.16683 2.91659 9.16683 1.99992C9.16683 1.08325 8.41683 0.333252 7.50016 0.333252C6.5835 0.333252 5.8335 1.08325 5.8335 1.99992C5.8335 2.91659 6.5835 3.66659 7.50016 3.66659ZM7.50016 5.33325C6.5835 5.33325 5.8335 6.08325 5.8335 6.99992C5.8335 7.91658 6.5835 8.66658 7.50016 8.66658C8.41683 8.66658 9.16683 7.91658 9.16683 6.99992C9.16683 6.08325 8.41683 5.33325 7.50016 5.33325ZM7.50016 10.3333C6.5835 10.3333 5.8335 11.0833 5.8335 11.9999C5.8335 12.9166 6.5835 13.6666 7.50016 13.6666C8.41683 13.6666 9.16683 12.9166 9.16683 11.9999C9.16683 11.0833 8.41683 10.3333 7.50016 10.3333Z" fill="currentColor"  />
</svg>