<svg width="20" height="20" viewBox="0 0 20 20" fill="none" xmlns="http://www.w3.org/2000/svg">
<path d="M5.8335 5.83342H5.00016C4.55814 5.83342 4.13421 6.00902 3.82165 6.32158C3.50909 6.63414 3.3335 7.05806 3.3335 7.50009V15.0001C3.3335 15.4421 3.50909 15.866 3.82165 16.1786C4.13421 16.4912 4.55814 16.6668 5.00016 16.6668H12.5002C12.9422 16.6668 13.3661 16.4912 13.6787 16.1786C13.9912 15.866 14.1668 15.4421 14.1668 15.0001V14.1668M13.3335 4.16676L15.8335 6.66676M16.9877 5.48759C17.3159 5.15938 17.5003 4.71424 17.5003 4.25009C17.5003 3.78594 17.3159 3.34079 16.9877 3.01259C16.6595 2.68438 16.2143 2.5 15.7502 2.5C15.286 2.5 14.8409 2.68438 14.5127 3.01259L7.50016 10.0001V12.5001H10.0002L16.9877 5.48759Z" stroke="#888888" stroke-width="1.5" stroke-linecap="round" stroke-linejoin="round"/>
</svg>
