<svg width="16" height="16" viewBox="0 0 16 16" fill="none" xmlns="http://www.w3.org/2000/svg">
<path d="M4.6665 4.66674H3.99984C3.64622 4.66674 3.30708 4.80721 3.05703 5.05726C2.80698 5.30731 2.6665 5.64645 2.6665 6.00007V12.0001C2.6665 12.3537 2.80698 12.6928 3.05703 12.9429C3.30708 13.1929 3.64622 13.3334 3.99984 13.3334H9.99984C10.3535 13.3334 10.6926 13.1929 10.9426 12.9429C11.1927 12.6928 11.3332 12.3537 11.3332 12.0001V11.3334M10.6665 3.3334L12.6665 5.3334M13.5898 4.39007C13.8524 4.12751 13.9999 3.77139 13.9999 3.40007C13.9999 3.02875 13.8524 2.67264 13.5898 2.41007C13.3273 2.14751 12.9712 2 12.5998 2C12.2285 2 11.8724 2.14751 11.6098 2.41007L5.99984 8.00007V10.0001H7.99984L13.5898 4.39007Z" stroke="black" stroke-width="1.5" stroke-linecap="round" stroke-linejoin="round"/>
</svg>
