<svg width="20" height="20" viewBox="0 0 20 20" fill="none" xmlns="http://www.w3.org/2000/svg">
<path d="M9.99967 5.00002C13.158 5.00002 15.9747 6.77502 17.3497 9.58335C16.858 10.6 16.1663 11.475 15.3413 12.1834L16.5163 13.3584C17.6747 12.3334 18.5913 11.05 19.1663 9.58335C17.7247 5.92502 14.1663 3.33335 9.99967 3.33335C8.94134 3.33335 7.92467 3.50002 6.96634 3.80835L8.34134 5.18335C8.88301 5.07502 9.43301 5.00002 9.99967 5.00002ZM9.10801 5.95002L10.833 7.67502C11.308 7.88335 11.6913 8.26669 11.8997 8.74169L13.6247 10.4667C13.6913 10.1834 13.7413 9.88335 13.7413 9.57502C13.7497 7.50835 12.0663 5.83335 9.99967 5.83335C9.69134 5.83335 9.39967 5.87502 9.10801 5.95002ZM1.67467 3.22502L3.90801 5.45835C2.54967 6.52502 1.47467 7.94169 0.833008 9.58335C2.27467 13.2417 5.83301 15.8334 9.99967 15.8334C11.2663 15.8334 12.483 15.5917 13.5997 15.15L16.4497 18L17.6247 16.825L2.84967 2.04169L1.67467 3.22502ZM7.92467 9.47502L10.0997 11.65C10.0663 11.6584 10.033 11.6667 9.99967 11.6667C8.84967 11.6667 7.91634 10.7334 7.91634 9.58335C7.91634 9.54169 7.92467 9.51669 7.92467 9.47502ZM5.09134 6.64169L6.54967 8.10002C6.35801 8.55835 6.24967 9.05835 6.24967 9.58335C6.24967 11.65 7.93301 13.3334 9.99967 13.3334C10.5247 13.3334 11.0247 13.225 11.4747 13.0334L12.2913 13.85C11.558 14.05 10.7913 14.1667 9.99967 14.1667C6.84134 14.1667 4.02467 12.3917 2.64967 9.58335C3.23301 8.39169 4.08301 7.40835 5.09134 6.64169Z" fill="currentColor"/>
</svg>
