<svg width="16" height="16" viewBox="0 0 16 16" fill="none" xmlns="http://www.w3.org/2000/svg">
<path d="M7.05667 7.058C6.80666 7.3081 6.66624 7.64728 6.6663 8.00091C6.66636 8.35454 6.8069 8.69366 7.057 8.94367C7.3071 9.19368 7.64627 9.3341 7.9999 9.33404C8.35353 9.33398 8.69266 9.19344 8.94267 8.94334M11.1207 11.1153C10.1855 11.7004 9.1031 12.0073 8 12C5.6 12 3.6 10.6667 2 8C2.848 6.58667 3.808 5.548 4.88 4.884M6.78667 4.12C7.18603 4.03915 7.59254 3.99895 8 4C10.4 4 12.4 5.33333 14 8C13.556 8.74 13.0807 9.378 12.5747 9.91333M2 2L14 14" stroke="#888888" stroke-linecap="round" stroke-linejoin="round"/>
</svg>
