<svg width="21" height="20" viewBox="0 0 21 20" fill="none" xmlns="http://www.w3.org/2000/svg">
<path d="M11.3335 2.5C7.19183 2.5 3.8335 5.85833 3.8335 10H1.3335L4.57516 13.2417L4.6335 13.3583L8.00016 10H5.50016C5.50016 6.775 8.1085 4.16667 11.3335 4.16667C14.5585 4.16667 17.1668 6.775 17.1668 10C17.1668 13.225 14.5585 15.8333 11.3335 15.8333C9.72516 15.8333 8.26683 15.175 7.21683 14.1167L6.0335 15.3C7.39183 16.6583 9.2585 17.5 11.3335 17.5C15.4752 17.5 18.8335 14.1417 18.8335 10C18.8335 5.85833 15.4752 2.5 11.3335 2.5ZM10.5002 6.66667V10.8333L14.0418 12.9333L14.6835 11.8667L11.7502 10.125V6.66667H10.5002Z" fill="currentColor"/>
</svg>
