<svg width="16" height="16" viewBox="0 0 16 16" fill="none" xmlns="http://www.w3.org/2000/svg">
<g opacity="0.5">
<path d="M11.0003 4.99984V5.0065M2.66699 5.33317C2.66699 4.62593 2.94794 3.94765 3.44804 3.44755C3.94814 2.94746 4.62641 2.6665 5.33366 2.6665H10.667C11.3742 2.6665 12.0525 2.94746 12.5526 3.44755C13.0527 3.94765 13.3337 4.62593 13.3337 5.33317V10.6665C13.3337 11.3737 13.0527 12.052 12.5526 12.5521C12.0525 13.0522 11.3742 13.3332 10.667 13.3332H5.33366C4.62641 13.3332 3.94814 13.0522 3.44804 12.5521C2.94794 12.052 2.66699 11.3737 2.66699 10.6665V5.33317ZM6.00033 7.99984C6.00033 8.53027 6.21104 9.03898 6.58611 9.41405C6.96118 9.78912 7.46989 9.99984 8.00033 9.99984C8.53076 9.99984 9.03947 9.78912 9.41454 9.41405C9.78961 9.03898 10.0003 8.53027 10.0003 7.99984C10.0003 7.4694 9.78961 6.9607 9.41454 6.58562C9.03947 6.21055 8.53076 5.99984 8.00033 5.99984C7.46989 5.99984 6.96118 6.21055 6.58611 6.58562C6.21104 6.9607 6.00033 7.4694 6.00033 7.99984Z" stroke="#888888" stroke-width="1.5" stroke-linecap="round" stroke-linejoin="round"/>
</g>
</svg>
