<svg width="20" height="20" viewBox="0 0 20 20" fill="none" xmlns="http://www.w3.org/2000/svg">
<g clip-path="url(#clip0_26_6905)">
<path fill-rule="evenodd" clip-rule="evenodd" d="M13.9374 18.119C14.178 18.4771 14.0827 18.9625 13.7246 19.2031C12.9486 19.7243 12.0443 19.9999 11.1092 19.9999H5.09981C3.37841 19.9999 1.7999 19.061 0.980378 17.5497C-1.30445 13.5034 0.603114 7.98476 4.92032 6.23805C5.20875 6.11438 5.39524 5.83239 5.39524 5.51961V1.87604C5.39524 1.70335 5.25473 1.56272 5.08199 1.56261C4.04696 1.52343 4.04833 0.0381248 5.08262 0.000117187C6.11621 0.000937494 6.95773 0.842417 6.95773 1.87604V5.51961C6.95773 6.45832 6.39953 7.30406 5.53563 7.67421C2.05096 9.0835 0.510498 13.5398 2.354 16.8049C2.89998 17.8118 3.95216 18.4374 5.09981 18.4374H11.1092C11.7328 18.4374 12.3359 18.2537 12.8533 17.9061C13.2114 17.6654 13.6968 17.7608 13.9374 18.119ZM14.4844 8.65585C13.6652 7.62046 12.573 6.79047 11.3256 6.25543C11.045 6.13266 10.864 5.84985 10.864 5.53446V1.87593C10.864 1.70323 11.0045 1.56261 11.1772 1.56249C11.6086 1.5621 11.9581 1.21202 11.9577 0.780542C11.9573 0.349295 11.6077 0 11.1764 0C10.1429 0.000898432 9.30146 0.842456 9.30146 1.87593V5.53442C9.30146 6.47227 9.85165 7.31781 10.7032 7.68855L10.7074 7.69038C11.7177 8.12331 12.6001 8.79241 13.2591 9.62526C13.5281 9.96529 14.0206 10.0196 14.3565 9.75318C14.6948 9.48553 14.7521 8.9942 14.4844 8.65585Z" fill="currentColor"/>
<path d="M5.9707 12.6171C5.79504 12.6171 5.62996 12.5489 5.50594 12.4252C5.1484 12.0685 4.61606 11.8402 4.04544 11.7989C3.61509 11.767 3.24095 12.0913 3.20978 12.5216C3.17857 12.952 3.50216 13.3261 3.93251 13.3573C4.12302 13.3711 4.31184 13.4411 4.40239 13.5314C5.24102 14.4003 6.71652 14.3831 7.55831 13.5121C7.6769 13.3938 7.86588 13.3203 8.05143 13.3203C9.08639 13.2821 9.08654 11.796 8.05143 11.7578C7.44964 11.7578 6.86765 11.9941 6.45472 12.406C6.32421 12.5362 6.13875 12.6171 5.9707 12.6171Z" fill="currentColor"/>
<path fill-rule="evenodd" clip-rule="evenodd" d="M18.4811 15.4609V13.6014C20.8901 12.6634 20.2792 9.10979 17.6607 9.06245C16.2161 9.04721 15.0803 10.4136 15.3562 11.8299L13.6932 12.7668C12.2201 11.4474 9.79275 12.5345 9.80927 14.5312C9.79271 16.5277 12.2205 17.6151 13.6932 16.2955L15.3562 17.2324C15.0806 18.6488 16.216 20.0151 17.6608 19.9998C20.2795 19.9525 20.8898 16.3984 18.4811 15.4609ZM16.136 13.1839L14.4612 14.1275C14.5082 14.3885 14.5082 14.6738 14.4612 14.9349L16.136 15.8785C16.3634 15.6831 16.6284 15.5308 16.9186 15.4336V13.6288C16.6284 13.5316 16.3634 13.3792 16.136 13.1839ZM18.442 11.4062C18.442 10.9754 18.0916 10.6249 17.6608 10.6249C17.23 10.6249 16.8795 10.9754 16.8795 11.4062C16.9186 12.4409 18.4028 12.4412 18.442 11.4062ZM11.3718 14.5312C11.3718 14.9619 11.7222 15.3124 12.153 15.3124C12.5838 15.3124 12.9343 14.9619 12.9343 14.5312C12.8952 13.4964 11.411 13.4962 11.3718 14.5312ZM16.8795 17.6561C16.8795 18.0869 17.23 18.4374 17.6608 18.4374C18.0916 18.4374 18.442 18.0869 18.442 17.6561C18.4029 16.6214 16.9188 16.6212 16.8795 17.6561Z" fill="currentColor"/>
</g>
<defs>
<clipPath id="clip0_26_6905">
<rect width="20" height="20" fill="currentColor"/>
</clipPath>
</defs>
</svg>
