<svg width="20" height="20" viewBox="0 0 20 20" fill="none" xmlns="http://www.w3.org/2000/svg">
<g clip-path="url(#clip0_26_6836)">
<path fill-rule="evenodd" clip-rule="evenodd" d="M7.6528 1.49999C5.69001 1.49999 4.09885 3.0812 4.09885 5.03172C4.09885 6.98223 5.69001 8.56346 7.6528 8.56346C9.61561 8.56346 11.2068 6.98223 11.2068 5.03172C11.2068 3.0812 9.61561 1.49999 7.6528 1.49999ZM2.58942 5.03172C2.58942 2.25278 4.85638 0 7.6528 0C10.4492 0 12.7162 2.25278 12.7162 5.03172C12.7162 7.81065 10.4492 10.0635 7.6528 10.0635C4.85638 10.0635 2.58942 7.81065 2.58942 5.03172ZM0 16.9995C0 13.8239 2.59055 11.2495 5.78616 11.2495H9.52243C12.718 11.2495 15.3086 13.8239 15.3086 16.9995V17.2499C15.3086 18.7687 14.0696 20 12.5413 20H2.76729C1.23896 20 0 18.7687 0 17.25V16.9995ZM5.78616 12.7495C3.42419 12.7495 1.50943 14.6523 1.50943 16.9995V17.25C1.50943 17.9403 2.07259 18.5 2.76729 18.5H12.5413C13.2359 18.5 13.7992 17.9403 13.7992 17.2499V16.9995C13.7992 14.6523 11.8844 12.7495 9.52243 12.7495H5.78616Z" fill="currentColor"/>
<path d="M13.4573 2.46752C13.4573 2.05331 13.7952 1.71752 14.212 1.71752C16.5077 1.71752 18.3686 3.56685 18.3686 5.84813C18.3686 8.12936 16.5077 9.97875 14.212 9.97875C13.9272 9.97875 13.6481 9.95015 13.3781 9.89545C12.9697 9.81265 12.7061 9.41655 12.7893 9.01076C12.8727 8.60486 13.2713 8.34296 13.6796 8.42566C13.851 8.46036 14.029 8.47876 14.212 8.47876C15.6741 8.47876 16.8592 7.30097 16.8592 5.84813C16.8592 4.39528 15.6741 3.21751 14.212 3.21751C13.7952 3.21751 13.4573 2.88173 13.4573 2.46752Z" fill="currentColor"/>
<path d="M14.4654 11.808C14.4654 11.3938 14.8033 11.058 15.2201 11.058C17.8599 11.058 20 13.1847 20 15.808V16.5325C20 17.499 19.2116 18.2825 18.239 18.2825H17.3559C16.939 18.2825 16.6012 17.9468 16.6012 17.5325C16.6012 17.1183 16.939 16.7825 17.3559 16.7825H18.239C18.3779 16.7825 18.4906 16.6706 18.4906 16.5325V15.808C18.4906 14.0131 17.0263 12.558 15.2201 12.558C14.8033 12.558 14.4654 12.2222 14.4654 11.808Z" fill="currentColor"/>
</g>
<defs>
<clipPath id="clip0_26_6836">
<rect width="20" height="20" fill="currentColor"/>
</clipPath>
</defs>
</svg>
