<svg width="24" height="24" viewBox="0 0 24 24" fill="none" xmlns="http://www.w3.org/2000/svg">
<g clip-path="url(#clip0_3288_1074)">
<path fill-rule="evenodd" clip-rule="evenodd" d="M9.18336 1.79999C6.82801 1.79999 4.91862 3.69743 4.91862 6.03806C4.91862 8.37867 6.82801 10.2761 9.18336 10.2761C11.5387 10.2761 13.4481 8.37867 13.4481 6.03806C13.4481 3.69743 11.5387 1.79999 9.18336 1.79999ZM3.10731 6.03806C3.10731 2.70334 5.82765 0 9.18336 0C12.5391 0 15.2594 2.70334 15.2594 6.03806C15.2594 9.37278 12.5391 12.0761 9.18336 12.0761C5.82765 12.0761 3.10731 9.37278 3.10731 6.03806ZM0 20.3994C0 16.5887 3.10866 13.4995 6.94339 13.4995H11.4269C15.2616 13.4995 18.3703 16.5887 18.3703 20.3994V20.6999C18.3703 22.5224 16.8836 24 15.0495 24H3.32075C1.48676 24 0 22.5224 0 20.7V20.3994ZM6.94339 15.2994C4.10903 15.2994 1.81132 17.5828 1.81132 20.3994V20.7C1.81132 21.5284 2.48711 22.2 3.32075 22.2H15.0495C15.8831 22.2 16.559 21.5284 16.559 20.6999V20.3994C16.559 17.5828 14.2613 15.2994 11.4269 15.2994H6.94339Z" fill="#0029D9"/>
<path d="M16.1488 2.96102C16.1488 2.46397 16.5543 2.06103 17.0544 2.06103C19.8092 2.06103 22.0423 4.28022 22.0423 7.01776C22.0423 9.75523 19.8092 11.9745 17.0544 11.9745C16.7126 11.9745 16.3777 11.9402 16.0537 11.8745C15.5636 11.7752 15.2473 11.2999 15.3472 10.8129C15.4472 10.3258 15.9255 10.0116 16.4155 10.1108C16.6212 10.1524 16.8348 10.1745 17.0544 10.1745C18.8089 10.1745 20.231 8.76117 20.231 7.01776C20.231 5.27433 18.8089 3.86102 17.0544 3.86102C16.5543 3.86102 16.1488 3.45807 16.1488 2.96102Z" fill="#0029D9"/>
<path d="M17.3585 14.1697C17.3585 13.6726 17.764 13.2697 18.2642 13.2697C21.4319 13.2697 24 15.8217 24 18.9696V19.839C24 20.9988 23.0539 21.939 21.8868 21.939H20.8271C20.3268 21.939 19.9214 21.5362 19.9214 21.039C19.9214 20.542 20.3268 20.139 20.8271 20.139H21.8868C22.0534 20.139 22.1887 20.0047 22.1887 19.839V18.9696C22.1887 16.8158 20.4316 15.0696 18.2642 15.0696C17.764 15.0696 17.3585 14.6667 17.3585 14.1697Z" fill="#0029D9"/>
</g>
<defs>
<clipPath id="clip0_3288_1074">
<rect width="24" height="24" fill="white"/>
</clipPath>
</defs>
</svg>
