<svg width="18" height="24" viewBox="0 0 18 24" fill="none" xmlns="http://www.w3.org/2000/svg">
<path d="M2.25 12.75H3.75V11.25H2.25V12.75ZM2.25 15.75H3.75V14.25H2.25V15.75ZM2.25 9.75H3.75V8.25H2.25V9.75ZM5.25 12.75H15.75V11.25H5.25V12.75ZM5.25 15.75H15.75V14.25H5.25V15.75ZM5.25 8.25V9.75H15.75V8.25H5.25ZM2.25 12.75H3.75V11.25H2.25V12.75ZM2.25 15.75H3.75V14.25H2.25V15.75ZM2.25 9.75H3.75V8.25H2.25V9.75ZM5.25 12.75H15.75V11.25H5.25V12.75ZM5.25 15.75H15.75V14.25H5.25V15.75ZM5.25 8.25V9.75H15.75V8.25H5.25Z" fill="#0029D9"/>
</svg>
