<svg width="20" height="30" viewBox="0 0 20 30" fill="none" xmlns="http://www.w3.org/2000/svg">
<path d="M2.77763 8.32964C1.64923 8.32964 0.589078 7.63797 0.173774 6.52038C-0.35901 5.08471 0.374425 3.48976 1.81192 2.95736L9.332 0.173996C10.7709 -0.359306 12.3674 0.374773 12.9007 1.80955C13.4335 3.24522 12.7 4.84016 11.2625 5.37256L3.74244 8.15593C3.4243 8.27369 3.09803 8.32964 2.77763 8.32964Z" fill="#343434"/>
<path d="M2.77763 15.5488C1.64923 15.5488 0.589078 14.8571 0.173774 13.7396C-0.35901 12.3039 0.374425 10.7089 1.81192 10.1765L15.5167 5.1043C16.9542 4.5719 18.5521 5.30507 19.0854 6.73985C19.6182 8.17552 18.8847 9.77047 17.4472 10.3029L3.74244 15.3751C3.4243 15.4929 3.09803 15.5488 2.77763 15.5488Z" fill="#343434"/>
<path d="M2.77764 22.7682C1.64923 22.7682 0.589078 22.0765 0.173774 20.9589C-0.35901 19.5233 0.374425 17.9279 1.81192 17.3959L12.5057 13.4381C13.9441 12.9062 15.5407 13.6389 16.0744 15.0737C16.6072 16.5093 15.8737 18.1047 14.4362 18.6367L3.74244 22.5945C3.42431 22.7122 3.09803 22.7682 2.77764 22.7682Z" fill="#343434"/>
<path d="M2.77782 30C4.30873 30 5.54978 28.7609 5.54978 27.2324C5.54978 25.7039 4.30873 24.4648 2.77782 24.4648C1.24691 24.4648 0.00585938 25.7039 0.00585938 27.2324C0.00585938 28.7609 1.24691 30 2.77782 30Z" fill="#C5DE2C"/>
</svg>
