<svg width="170" height="41" viewBox="0 0 170 41" fill="none" xmlns="http://www.w3.org/2000/svg">
<path d="M3.77758 11.3838C2.24296 11.3838 0.801146 10.4386 0.236332 8.91119C-0.488254 6.9491 0.509217 4.76934 2.46421 4.04173L12.6915 0.237795C14.6484 -0.491052 16.8197 0.51219 17.5449 2.47305C18.2695 4.43513 17.272 6.61489 15.317 7.3425L5.08971 11.1464C4.65705 11.3074 4.21332 11.3838 3.77758 11.3838Z" fill="#343434"/>
<path d="M3.77758 21.2497C2.24296 21.2497 0.801146 20.3045 0.236332 18.7771C-0.488254 16.815 0.509218 14.6352 2.46421 13.9076L21.1027 6.97558C23.0577 6.24797 25.2309 7.24997 25.9561 9.21083C26.6807 11.1729 25.6833 13.3527 23.7283 14.0803L5.08971 21.0123C4.65705 21.1733 4.21332 21.2497 3.77758 21.2497Z" fill="#343434"/>
<path d="M3.77758 31.1161C2.24296 31.1161 0.801146 30.1708 0.236332 28.6434C-0.488254 26.6814 0.509218 24.501 2.46421 23.774L17.0078 18.365C18.964 17.638 21.1353 18.6394 21.8611 20.6002C22.5857 22.5623 21.5883 24.7427 19.6333 25.4697L5.08971 30.8787C4.65705 31.0396 4.21332 31.1161 3.77758 31.1161Z" fill="#343434"/>
<path d="M3.77768 41.0003C5.85972 41.0003 7.54754 39.3068 7.54754 37.2179C7.54754 35.129 5.85972 33.4355 3.77768 33.4355C1.69564 33.4355 0.0078125 35.129 0.0078125 37.2179C0.0078125 39.3068 1.69564 41.0003 3.77768 41.0003Z" fill="#C5DE2C"/>
<path d="M51.9102 9.06719C50.7801 8.4221 49.4845 8.09961 48.0234 8.09961H42.1785C41.7499 8.09961 41.3897 8.24176 41.0975 8.52474C40.8051 8.80838 40.6592 9.17504 40.6592 9.62433V29.474C40.6592 29.9044 40.8051 30.2657 41.0975 30.5589C41.3897 30.852 41.7499 30.9987 42.1785 30.9987C42.6267 30.9987 42.9917 30.852 43.2745 30.5589C43.5569 30.2657 43.6982 29.9044 43.6982 29.474V23.0529H48.0234C49.4845 23.0529 50.7801 22.7406 51.9102 22.1148C53.0397 21.4894 53.9213 20.6195 54.5549 19.5052C55.1877 18.3909 55.5046 17.1208 55.5046 15.6938C55.5046 14.2083 55.1877 12.8937 54.5549 11.75C53.9213 10.6066 53.0397 9.71222 51.9102 9.06719ZM51.9978 18.0393C51.608 18.7236 51.0722 19.2611 50.3905 19.6519C49.7082 20.0431 48.9193 20.2382 48.0234 20.2382H43.6982V10.9144H48.0234C48.9193 10.9144 49.7082 11.1196 50.3905 11.5301C51.0722 11.9404 51.608 12.5028 51.9978 13.2162C52.3874 13.9299 52.5821 14.7553 52.5821 15.6938C52.5821 16.5731 52.3874 17.355 51.9978 18.0393Z" fill="#343434"/>
<path d="M86.4515 9.12599C86.1982 8.44172 85.721 8.09961 85.0199 8.09961C84.357 8.09961 83.8799 8.44172 83.5878 9.12599L75.3761 28.7996C75.1422 29.3276 75.1716 29.8259 75.4637 30.2952C75.7558 30.7641 76.1747 30.9987 76.7202 30.9987C76.9928 30.9987 77.2609 30.921 77.524 30.7641C77.7868 30.6079 77.9865 30.3733 78.123 30.0606L79.7967 25.9557H90.2692L91.9163 30.0606C92.0333 30.3536 92.2232 30.5837 92.4863 30.7494C92.7491 30.9157 93.027 30.9987 93.3191 30.9987C93.8838 30.9987 94.3076 30.7788 94.5903 30.339C94.8727 29.8991 94.9069 29.4057 94.6925 28.8584L86.4515 9.12599ZM80.8249 23.434L85.0748 13.0105L89.2573 23.434H80.8249Z" fill="#343434"/>
<path d="M111.934 8.46627C111.7 8.22214 111.408 8.09961 111.058 8.09961C110.746 8.09961 110.483 8.16334 110.269 8.29009C110.054 8.41755 109.869 8.59828 109.713 8.83254L102.76 19.8379L95.92 8.94986C95.7448 8.67637 95.5592 8.46627 95.3647 8.31952C95.1696 8.17315 94.9068 8.09961 94.5756 8.09961C94.2053 8.09961 93.8789 8.21233 93.5969 8.43684C93.3142 8.66162 93.1439 8.95513 93.0852 9.31652C93.0269 9.67825 93.1243 10.0641 93.3777 10.4746L101.18 22.6426V29.474C101.18 29.9044 101.326 30.2657 101.619 30.5589C101.911 30.852 102.262 30.9987 102.671 30.9987C103.099 30.9987 103.459 30.852 103.752 30.5589C104.044 30.2657 104.19 29.9044 104.19 29.474V22.6426L112.051 10.4746C112.285 10.1034 112.382 9.73705 112.343 9.37499C112.304 9.0136 112.168 8.71067 111.934 8.46627Z" fill="#343434"/>
<path d="M61.8748 19.0698L58.8647 20.1894V21.3688L61.8748 20.2492V19.0698Z" fill="#343434"/>
<path d="M61.8748 21.7017L58.8647 22.8213V24.0008L61.8748 22.8814V21.7017Z" fill="#343434"/>
<path d="M61.8748 9.62433C61.8748 9.19465 61.7286 8.83254 61.4364 8.53948C61.1439 8.24636 60.7834 8.09961 60.3552 8.09961C59.9461 8.09961 59.5953 8.24636 59.3032 8.53948C59.0107 8.83254 58.8647 9.19465 58.8647 9.62433V18.7373L61.8748 17.6177V9.62433Z" fill="#343434"/>
<path d="M72.4536 27.9493H61.8748V24.334L58.8647 25.4534V29.474C58.8647 29.9044 59.0058 30.2658 59.2885 30.5589C59.5705 30.8519 59.9262 30.9987 60.3552 30.9987H72.4536C72.8819 30.9987 73.2424 30.8519 73.5349 30.5589C73.827 30.2658 73.9733 29.9044 73.9733 29.474C73.9733 29.0443 73.827 28.6826 73.5349 28.3891C73.2424 28.096 72.8819 27.9493 72.4536 27.9493Z" fill="#343434"/>
<path d="M127.569 15.9133C126.439 15.2004 125.163 14.8432 123.741 14.8432C122.591 14.8432 121.534 15.083 120.57 15.5618C119.606 16.0408 118.782 16.6904 118.101 17.5116V9.5949C118.101 9.14561 117.964 8.78421 117.691 8.50999C117.418 8.2365 117.058 8.09961 116.61 8.09961C116.181 8.09961 115.826 8.2365 115.543 8.50999C115.261 8.78421 115.12 9.14561 115.12 9.5949V22.965C115.139 24.5094 115.5 25.8972 116.201 27.1284C116.903 28.3601 117.857 29.3325 119.065 30.0458C120.273 30.7595 121.637 31.116 123.156 31.116C124.695 31.116 126.068 30.7595 127.277 30.0458C128.484 29.3325 129.444 28.3601 130.155 27.1284C130.866 25.8972 131.222 24.5094 131.222 22.965C131.222 21.4211 130.896 20.0382 130.243 18.816C129.59 17.595 128.699 16.6274 127.569 15.9133ZM127.671 25.7799C127.213 26.6203 126.594 27.28 125.815 27.7588C125.036 28.2382 124.15 28.477 123.156 28.477C122.182 28.477 121.301 28.2382 120.511 27.7588C119.722 27.28 119.104 26.6203 118.656 25.7799C118.207 24.9394 117.984 24.0013 117.984 22.965C117.984 21.9096 118.207 20.9711 118.656 20.1503C119.104 19.3294 119.722 18.6798 120.511 18.2004C121.301 17.7217 122.182 17.4822 123.156 17.4822C124.15 17.4822 125.036 17.7217 125.815 18.2004C126.594 18.6798 127.213 19.3294 127.671 20.1503C128.129 20.9711 128.358 21.9096 128.358 22.965C128.358 24.0013 128.129 24.9394 127.671 25.7799Z" fill="#C5DE2C"/>
<path d="M147.002 15.9134C145.794 15.2004 144.431 14.8433 142.911 14.8433C141.391 14.8433 140.022 15.2004 138.805 15.9134C137.587 16.6275 136.623 17.5996 135.912 18.8308C135.201 20.0624 134.845 21.4506 134.845 22.9946C134.845 24.5389 135.171 25.9218 135.824 27.1432C136.477 28.365 137.368 29.3326 138.498 30.0459C139.628 30.7596 140.904 31.1161 142.326 31.1161C143.748 31.1161 145.025 30.7596 146.155 30.0459C146.853 29.6047 147.45 29.0542 147.966 28.4183V29.5329C147.966 29.963 148.108 30.3198 148.39 30.6031C148.672 30.8864 149.028 31.0282 149.457 31.0282C149.885 31.0282 150.241 30.8864 150.524 30.6031C150.806 30.3198 150.947 29.963 150.947 29.5329V22.9946C150.947 21.4506 150.592 20.0624 149.881 18.8308C149.169 17.5996 148.21 16.6275 147.002 15.9134ZM147.411 25.7943C146.963 26.6257 146.349 27.2801 145.57 27.7588C144.791 28.2383 143.904 28.4771 142.911 28.4771C141.937 28.4771 141.055 28.2383 140.266 27.7588C139.477 27.2801 138.853 26.6257 138.396 25.7943C137.938 24.964 137.709 24.0307 137.709 22.9946C137.709 21.9387 137.938 20.996 138.396 20.165C138.853 19.3344 139.477 18.6799 140.266 18.2005C141.055 17.7218 141.937 17.4823 142.911 17.4823C143.904 17.4823 144.791 17.7218 145.57 18.2005C146.349 18.6799 146.963 19.3344 147.411 20.165C147.859 20.996 148.083 21.9387 148.083 22.9946C148.083 24.0307 147.859 24.964 147.411 25.7943Z" fill="#C5DE2C"/>
<path d="M166.494 12.4502L163.571 13.5372V14.7165L166.494 13.6296V12.4502Z" fill="#C5DE2C"/>
<path d="M166.494 15.082L163.571 16.169V17.3488L166.494 16.2619V15.082Z" fill="#C5DE2C"/>
<path d="M166.494 9.56586C166.494 9.13585 166.357 8.78421 166.084 8.51005C165.811 8.23655 165.461 8.09961 165.032 8.09961C164.604 8.09961 164.253 8.23655 163.98 8.51005C163.707 8.78421 163.571 9.13585 163.571 9.56586V12.0849L166.494 10.998V9.56586Z" fill="#C5DE2C"/>
<path d="M169.635 28.477C169.391 28.2035 169.075 28.0666 168.685 28.0666H167.955C167.526 28.0666 167.175 27.832 166.903 27.363C166.63 26.8938 166.494 26.2978 166.494 25.5746V17.7144L163.571 18.8014V25.5746C163.571 26.6301 163.756 27.5637 164.127 28.3744C164.496 29.1858 165.013 29.8259 165.675 30.2952C166.337 30.7641 167.097 30.9987 167.955 30.9987H168.013C168.598 30.9987 169.075 30.8622 169.445 30.5883C169.815 30.3148 170 29.9629 170 29.5328C170 29.1031 169.879 28.7512 169.635 28.477Z" fill="#C5DE2C"/>
<path d="M157.727 15.082L154.805 16.1689V17.3488L157.727 16.2618V15.082Z" fill="#C5DE2C"/>
<path d="M157.727 12.4507L154.805 13.5376V14.717L157.727 13.63V12.4507Z" fill="#C5DE2C"/>
<path d="M157.727 9.56586C157.727 9.13585 157.59 8.78421 157.318 8.51005C157.045 8.23655 156.694 8.09961 156.266 8.09961C155.837 8.09961 155.486 8.23655 155.214 8.51005C154.941 8.78421 154.805 9.13585 154.805 9.56586V12.085L157.727 10.998V9.56586Z" fill="#C5DE2C"/>
<path d="M159.919 28.0665H159.188C158.76 28.0665 158.409 27.8318 158.136 27.3629C157.863 26.8937 157.727 26.2977 157.727 25.5745V17.7144L154.805 18.8013V25.5745C154.805 26.63 154.99 27.5636 155.36 28.3743C155.73 29.1857 156.246 29.8258 156.909 30.2951C157.571 30.7639 158.331 30.9986 159.188 30.9986H159.246C159.831 30.9986 160.308 30.862 160.679 30.5882C161.049 30.3147 161.234 29.9627 161.234 29.5327C161.234 29.103 161.112 28.7511 160.868 28.4769C160.625 28.2034 160.308 28.0665 159.919 28.0665Z" fill="#C5DE2C"/>
</svg>
