<svg width="228" height="22" viewBox="0 0 228 22" fill="none" xmlns="http://www.w3.org/2000/svg">
<g clip-path="url(#clip0_12_39828)">
<path d="M10.1764 0.319336H0V21.5463H10.1764V0.319336Z" fill="#2C334A"/>
<path d="M34.761 18.0913L32.9585 21.5463H21.4585L25.7525 13.2874C26.5156 11.8123 26.5156 10.0493 25.7525 8.57427L21.4624 0.319336H32.9624L34.7649 3.77434C37.0852 8.25874 37.0852 13.6108 34.7649 18.0952L34.761 18.0913Z" fill="#2C334A"/>
<path d="M73.3256 6.1958C72.8779 5.05202 72.1966 4.05023 71.2584 3.19436C70.324 2.35033 69.1211 1.67984 67.6768 1.18289C66.2208 0.689882 64.5 0.441406 62.499 0.441406H50.3372V21.5461H62.499C64.5662 21.5461 66.3259 21.2976 67.7819 20.7928C69.2379 20.2879 70.4292 19.5977 71.344 18.7419C72.2706 17.886 72.9402 16.8961 73.3684 15.7641C73.785 14.6282 73.9991 13.4253 73.9991 12.1474V9.87956C73.9991 8.57013 73.7772 7.34352 73.3295 6.19974L73.3256 6.1958ZM68.9809 11.8161C68.9809 12.8258 68.8174 13.725 68.4826 14.4862C68.1478 15.2474 67.6768 15.8982 67.0695 16.4149C66.4699 16.9315 65.7458 17.322 64.901 17.5784C64.0679 17.8347 63.1414 17.9688 62.1214 17.9688H55.293V4.04234H62.1097C63.2698 4.04234 64.2781 4.19616 65.1307 4.51563C65.9872 4.82326 66.7074 5.24922 67.268 5.7935C67.8364 6.34173 68.2646 6.98067 68.5488 7.70243C68.833 8.43603 68.977 9.21695 68.977 10.0531V11.8161H68.9809Z" fill="#2C334A"/>
<path d="M82.4118 17.9688V12.6601H95.3757V9.08286H77.5066V21.5461H96.8823V17.9688H82.4118ZM96.8005 4.04234V0.441406H77.5066V4.04234H96.8005Z" fill="#2C334A"/>
<path d="M156.29 17.9688V12.6601H169.254V9.08286H151.385V21.5461H170.761V17.9688H156.29ZM170.679 4.04234V0.441406H151.385V4.04234H170.679Z" fill="#2C334A"/>
<path d="M118.446 21.5461H123.912L105.634 0.441406H100.74V21.5461H105.463L105.393 7.70243L105.241 6.36145H105.362L118.45 21.5461H118.446Z" fill="#2C334A"/>
<path d="M126.201 0.441406V4.04234H134.859V21.5461H139.815V4.04234H148.465V0.441406H126.201Z" fill="#2C334A"/>
<path d="M178.882 17.9688V0.441406L173.906 0.453238V21.5461H191.744V17.9688H178.882Z" fill="#2C334A"/>
<path d="M195.073 0.441406V21.5461H200.029V0.441406H195.073Z" fill="#2C334A"/>
<path d="M227.245 6.0502C226.735 4.82359 225.964 3.76264 224.936 2.86339C223.909 1.96809 222.597 1.26605 221.028 0.761205C219.451 0.244532 217.586 0 215.441 0C213.296 0 211.431 0.248476 209.855 0.753317C208.286 1.25816 206.986 1.94837 205.946 2.84762C204.918 3.73503 204.144 4.80782 203.638 6.03442C203.139 7.27286 202.886 8.6099 202.886 10.0771V11.9426C202.886 13.4059 203.139 14.7469 203.638 15.9735C204.148 17.2001 204.918 18.261 205.946 19.1603C206.986 20.0477 208.286 20.7497 209.855 21.2546C211.431 21.7476 213.285 22.0079 215.43 22.0079C217.575 22.0079 219.439 21.7515 221.004 21.2467C222.581 20.7418 223.885 20.0398 224.921 19.1445C225.96 18.2492 226.731 17.1843 227.241 15.9498C227.739 14.7232 227.992 13.394 227.992 11.9505V10.085C227.992 8.62962 227.739 7.29258 227.241 6.06597L227.245 6.0502ZM222.99 12.0491C222.99 13.0588 222.795 13.9659 222.429 14.7508C222.063 15.5357 221.553 16.1943 220.884 16.7386C220.222 17.275 219.428 17.6852 218.493 17.9652C217.567 18.2453 216.551 18.3793 215.43 18.3793C214.308 18.3793 213.304 18.2453 212.377 17.9652C211.451 17.6852 210.657 17.275 209.995 16.7386C209.345 16.1904 208.823 15.5317 208.457 14.7508C208.091 13.9659 207.908 13.0588 207.908 12.0491L207.889 9.99821C207.889 8.96881 208.083 8.04984 208.449 7.25708C208.815 6.46432 209.325 5.79383 209.987 5.25744C210.649 4.72105 211.443 4.31086 212.37 4.03084C213.285 3.75081 214.312 3.60882 215.434 3.60882C216.555 3.60882 217.571 3.75475 218.497 4.02295C219.432 4.30298 220.226 4.70527 220.888 5.24955C221.561 5.78595 222.067 6.45644 222.433 7.24919C222.799 8.04195 222.994 8.96092 222.994 10.0022V12.0531L222.99 12.0491Z" fill="#2C334A"/>
<path d="M123.483 0.445312H118.761V10.1674H123.483V0.445312Z" fill="#2C334A"/>
</g>
<defs>
<clipPath id="clip0_12_39828">
<rect width="228" height="22" fill="white"/>
</clipPath>
</defs>
</svg>
