<svg width="20" height="20" viewBox="0 0 20 20" fill="none" xmlns="http://www.w3.org/2000/svg">
<g clip-path="url(#clip0_26_6816)">
<path fill-rule="evenodd" clip-rule="evenodd" d="M18.6328 0H15.1172C14.3633 0 13.75 0.61332 13.75 1.36719V6.44531C13.75 7.28027 14.3354 7.98066 15.1172 8.15883V8.78906C15.1172 9.55293 15.6071 10.2042 16.2891 10.4461V11.1288C16.2891 12.0433 16.6811 12.9163 17.3646 13.5239C17.7982 13.9093 18.0469 14.463 18.0469 15.0431V16.6016C18.0469 16.9246 17.784 17.1875 17.4609 17.1875H16.0156V16.9349C16.0156 15.096 14.7775 13.4701 13.0048 12.9811L10.3516 12.2491V11.448C11.6393 10.6573 12.5 9.2359 12.5 7.61719V3.32031C12.5 1.92027 11.361 0.78125 9.96094 0.78125H9.40887C8.81992 0.275742 8.07793 0 7.29359 0H5.27344C3.44262 0 1.95313 1.48949 1.95313 3.32031C1.95313 4.30176 2.61496 5.13109 3.51563 5.38684V7.61719C3.51563 9.2359 4.37637 10.6573 5.66406 11.448V12.2491L3.01086 12.9811C1.23809 13.4701 0 15.096 0 16.9349V19.4141C0 19.7377 0.262344 20 0.585938 20H15.4297C15.7533 20 16.0156 19.7377 16.0156 19.4141V18.3594H17.4609C18.4302 18.3594 19.2188 17.5708 19.2188 16.6016V15.0431C19.2188 14.1286 18.8267 13.2556 18.1432 12.648C17.7096 12.2626 17.4609 11.7089 17.4609 11.1288V10.4461C18.1429 10.2042 18.6328 9.55293 18.6328 8.78906V8.15883C19.4146 7.98066 20 7.28027 20 6.44531V1.36719C20 0.61332 19.3867 0 18.6328 0ZM18.2422 7.03125C18.5653 7.03125 18.8281 6.7684 18.8281 6.44531V3.90625H14.9219V6.44531C14.9219 6.7684 15.1847 7.03125 15.5078 7.03125H18.2422ZM4.6875 7.61719V5.46781C6.09289 5.44715 7.47238 5.0902 8.70957 4.42926C9.45363 5.0416 10.3623 5.39992 11.3281 5.45981V7.61719C11.3281 9.44801 9.83863 10.9375 8.00781 10.9375C6.17699 10.9375 4.6875 9.44801 4.6875 7.61719ZM3.125 3.32031C3.125 3.85875 3.56313 4.29684 4.10156 4.29688H4.5582C5.94215 4.29688 7.3009 3.92051 8.48758 3.20848C8.7182 3.0702 9.01328 3.10648 9.20336 3.2966C9.77949 3.87273 10.5254 4.21684 11.3281 4.28395V3.32031C11.3281 2.56645 10.7148 1.95313 9.96094 1.95313H9.17969C9.0243 1.95313 8.87527 1.89137 8.76539 1.78148C8.37223 1.38836 7.84957 1.17188 7.29359 1.17188H5.27344C4.08879 1.17188 3.125 2.13566 3.125 3.32031ZM18.8281 2.73438H14.9219V1.36719C14.9219 1.25949 15.0095 1.17188 15.1172 1.17188H18.6328C18.7405 1.17188 18.8281 1.25949 18.8281 1.36719V2.73438ZM16.875 9.375C17.1981 9.375 17.4609 9.11215 17.4609 8.78906V8.20312H16.2891V8.78906C16.2891 9.11215 16.5519 9.375 16.875 9.375ZM9.17969 11.954V13.2813C9.17969 13.9274 8.65399 14.4531 8.00781 14.4531C7.36164 14.4531 6.83594 13.9274 6.83594 13.2813V11.954C7.20969 12.0551 7.6025 12.1094 8.00781 12.1094C8.41313 12.1094 8.80594 12.0551 9.17969 11.954ZM13.2813 18.8281H14.8438V16.9349C14.8438 15.6214 13.9594 14.46 12.6932 14.1107L10.3439 13.4627C10.2509 14.6705 9.23906 15.625 8.00781 15.625C6.77656 15.625 5.76477 14.6705 5.67176 13.4627L3.32246 14.1107C2.05625 14.46 1.17188 15.6214 1.17188 16.9349V18.8281H2.73438V17.3828C2.73438 17.0592 2.99672 16.7969 3.32031 16.7969C3.64391 16.7969 3.90625 17.0592 3.90625 17.3828V18.8281H12.1094V17.3828C12.1094 17.0592 12.3717 16.7969 12.6953 16.7969C13.0189 16.7969 13.2813 17.0592 13.2813 17.3828V18.8281Z" fill="currentColor"/>
</g>
<defs>
<clipPath id="clip0_26_6816">
<rect width="20" height="20" fill="currentColor"/>
</clipPath>
</defs>
</svg>
