<svg width="20" height="20" viewBox="0 0 20 20" fill="none" xmlns="http://www.w3.org/2000/svg">
<g opacity="0.5">
<path d="M14.1668 6.66665V4.16665C14.1668 3.94563 14.079 3.73367 13.9228 3.57739C13.7665 3.42111 13.5545 3.33331 13.3335 3.33331H5.00016C4.55814 3.33331 4.13421 3.50891 3.82165 3.82147C3.50909 4.13403 3.3335 4.55795 3.3335 4.99998M3.3335 4.99998C3.3335 5.44201 3.50909 5.86593 3.82165 6.17849C4.13421 6.49105 4.55814 6.66665 5.00016 6.66665H15.0002C15.2212 6.66665 15.4331 6.75444 15.5894 6.91072C15.7457 7.067 15.8335 7.27897 15.8335 7.49998V9.99998M3.3335 4.99998V15C3.3335 15.442 3.50909 15.8659 3.82165 16.1785C4.13421 16.4911 4.55814 16.6666 5.00016 16.6666H15.0002C15.2212 16.6666 15.4331 16.5788 15.5894 16.4226C15.7457 16.2663 15.8335 16.0543 15.8335 15.8333V13.3333M16.6668 9.99998V13.3333H13.3335C12.8915 13.3333 12.4675 13.1577 12.155 12.8452C11.8424 12.5326 11.6668 12.1087 11.6668 11.6666C11.6668 11.2246 11.8424 10.8007 12.155 10.4881C12.4675 10.1756 12.8915 9.99998 13.3335 9.99998H16.6668Z" stroke="black" stroke-width="1.5" stroke-linecap="round" stroke-linejoin="round"/>
</g>
</svg>
