<svg width="24" height="24" viewBox="0 0 24 24" fill="none" xmlns="http://www.w3.org/2000/svg">
  <path d="M21.2148 8.56259C21.7188 8.05868 22 7.3868 22 6.67194C22 5.95709 21.7227 5.2852 21.2148 4.78129L19.2226 2.78907C18.7148 2.27735 18.0429 2 17.3281 2C16.6132 2 15.9413 2.27735 15.4374 2.78517L3.01146 15.2111C2.31614 15.9064 1.94895 16.8635 2.00363 17.844L1.99973 21.0237C1.99973 21.2815 2.10129 21.5315 2.28489 21.7151C2.46848 21.8987 2.71458 22.0003 2.9763 22.0003L6.15604 21.9964C7.13652 22.0511 8.09356 21.6839 8.78889 20.9886C9.17171 20.6057 9.17171 19.9885 8.78889 19.6057C8.40607 19.2229 7.78887 19.2229 7.40605 19.6057C7.10136 19.9104 6.67558 20.0706 6.24588 20.0432C6.22635 20.0432 6.20291 20.0393 6.18338 20.0393L3.95288 20.0471L3.95679 17.8166C3.95679 17.7971 3.95679 17.7737 3.95288 17.7541C3.92554 17.3244 4.08569 16.8987 4.39039 16.594L14.746 6.23834L17.7617 9.25401L9.98031 17.0354C9.59749 17.4182 9.59749 18.0354 9.98031 18.4182C10.3631 18.801 10.9803 18.801 11.3631 18.4182L21.2148 8.56259ZM16.1288 4.85551L16.8203 4.16409C16.957 4.02737 17.1367 3.95315 17.332 3.95315C17.5234 3.95315 17.707 4.02737 17.8437 4.16409L19.8359 6.15631C20.1172 6.43756 20.1172 6.89851 19.8359 7.17976L19.1445 7.87118L16.1288 4.85551Z" fill="currentColor" />
  <path d="M21.0236 20.0469H12.2149C11.6758 20.0469 11.2383 20.4844 11.2383 21.0235C11.2383 21.5625 11.6758 22 12.2149 22H21.0236C21.5626 22 22.0002 21.5625 22.0002 21.0235C22.0002 20.4844 21.5626 20.0469 21.0236 20.0469Z" fill="currentColor" />
</svg>