<svg width="21" height="20" viewBox="0 0 21 20" fill="none" xmlns="http://www.w3.org/2000/svg">
<path d="M16.6668 1.66669H5.00016C4.07516 1.66669 3.3335 2.41669 3.3335 3.33335V15C3.3335 15.9167 4.07516 16.6667 5.00016 16.6667H8.3335L10.8335 19.1667L13.3335 16.6667H16.6668C17.5835 16.6667 18.3335 15.9167 18.3335 15V3.33335C18.3335 2.41669 17.5835 1.66669 16.6668 1.66669ZM16.6668 15H12.6418L10.8335 16.8084L9.02516 15H5.00016V3.33335H16.6668V15ZM10.8335 9.16669C12.2085 9.16669 13.3335 8.04169 13.3335 6.66669C13.3335 5.29169 12.2085 4.16669 10.8335 4.16669C9.4585 4.16669 8.3335 5.29169 8.3335 6.66669C8.3335 8.04169 9.4585 9.16669 10.8335 9.16669ZM10.8335 5.83335C11.2918 5.83335 11.6668 6.20835 11.6668 6.66669C11.6668 7.12502 11.2918 7.50002 10.8335 7.50002C10.3752 7.50002 10.0002 7.12502 10.0002 6.66669C10.0002 6.20835 10.3752 5.83335 10.8335 5.83335ZM15.8335 12.9834C15.8335 10.9 12.5252 10 10.8335 10C9.14183 10 5.8335 10.9 5.8335 12.9834V14.1667H15.8335V12.9834ZM7.90016 12.5C8.51683 12.075 9.7585 11.6667 10.8335 11.6667C11.9085 11.6667 13.1502 12.075 13.7668 12.5H7.90016Z" fill="currentColor"/>
</svg>
