<svg width="20" height="20" viewBox="0 0 20 20" fill="none" xmlns="http://www.w3.org/2000/svg">
<g opacity="0.5">
<path d="M14.6441 15.3392L17.0058 12.9775C17.1625 12.8208 17.2869 12.6348 17.3717 12.43C17.4565 12.2252 17.5002 12.0058 17.5002 11.7842C17.5002 11.5625 17.4565 11.3431 17.3717 11.1383C17.2869 10.9336 17.1625 10.7475 17.0058 10.5908L11.075 4.66083M4.99999 7.5H4.99166M6.54917 5H4.1875C3.73995 5 3.31072 5.17779 2.99426 5.49425C2.67779 5.81072 2.5 6.23994 2.5 6.6875V9.04916C2.5 9.49666 2.6775 9.92583 2.99417 10.2425L8.09083 15.3392C8.24754 15.4959 8.43358 15.6202 8.63833 15.705C8.84308 15.7899 9.06254 15.8335 9.28417 15.8335C9.50579 15.8335 9.72525 15.7899 9.93 15.705C10.1348 15.6202 10.3208 15.4959 10.4775 15.3392L12.8392 12.9775C12.9959 12.8208 13.1202 12.6348 13.205 12.43C13.2899 12.2252 13.3335 12.0058 13.3335 11.7842C13.3335 11.5625 13.2899 11.3431 13.205 11.1383C13.1202 10.9336 12.9959 10.7475 12.8392 10.5908L7.74167 5.49416C7.42537 5.17791 6.99645 5.00017 6.54917 5Z" stroke="black" stroke-width="1.5" stroke-linecap="round" stroke-linejoin="round"/>
</g>
</svg>
