<svg width="20" height="20" viewBox="0 0 20 20" fill="none" xmlns="http://www.w3.org/2000/svg">
<g clip-path="url(#clip0_26_6916)">
<path d="M12.7731 11.4844H10.82V9.53125C10.82 9.09977 10.4702 8.75 10.0387 8.75C9.60725 8.75 9.25749 9.09977 9.25749 9.53125V11.4844H7.30436C6.87288 11.4844 6.52311 11.8341 6.52311 12.2656C6.52311 12.6971 6.87288 13.0469 7.30436 13.0469H9.25749V15C9.25749 15.4315 9.60725 15.7812 10.0387 15.7812C10.4702 15.7812 10.82 15.4315 10.82 15V13.0469H12.7731C13.2046 13.0469 13.5544 12.6971 13.5544 12.2656C13.5544 11.8341 13.2046 11.4844 12.7731 11.4844Z" fill="currentColor"/>
<path fill-rule="evenodd" clip-rule="evenodd" d="M19.1663 4.6875V15.3125C19.1663 17.8972 16.1781 20 13.5934 20H6.40592C3.82124 20 0.833008 17.8972 0.833008 15.3125V4.6875C0.833008 2.10281 3.82124 0 6.40592 0H13.5934C16.1781 0 19.1663 2.10281 19.1663 4.6875ZM17.6038 4.6875C17.6038 2.96438 15.3165 1.5625 13.5934 1.5625H6.40592C4.6828 1.5625 2.39551 2.96438 2.39551 4.6875V15.3125C2.39551 17.0356 4.6828 18.4375 6.40592 18.4375H13.5934C15.3165 18.4375 17.6038 17.0356 17.6038 15.3125V4.6875Z" fill="currentColor"/>
<path d="M14.2184 3.82812C14.2184 5.33586 12.9918 6.5625 11.484 6.5625H8.5153C7.00756 6.5625 5.78092 5.33586 5.78092 3.82812C5.78092 3.39664 6.13069 3.04688 6.56217 3.04688C6.99366 3.04688 7.34342 3.39664 7.34342 3.82812C7.34342 4.4743 7.86913 5 8.5153 5H11.484C12.1302 5 12.6559 4.4743 12.6559 3.82812C12.6559 3.39664 13.0057 3.04688 13.4372 3.04688C13.8687 3.04688 14.2184 3.39664 14.2184 3.82812Z" fill="currentColor"/>
</g>
<defs>
<clipPath id="clip0_26_6916">
<rect width="20" height="20" fill="currentColor"/>
</clipPath>
</defs>
</svg>
