<svg width="52" height="52" viewBox="0 0 52 52" fill="none" xmlns="http://www.w3.org/2000/svg">
  <path d="M12.6667 32.1649C10.8683 32.1649 9.24333 32.9016 8.07333 34.0716C5.51667 36.6283 4 47.3316 4 47.3316C4 47.3316 14.7033 45.8149 17.26 43.2583C18.43 42.0883 19.1667 40.4633 19.1667 38.6649C19.1667 35.0683 16.2633 32.1649 12.6667 32.1649ZM14.205 40.2033C13.5983 40.8099 9.50333 41.8499 9.50333 41.8499C9.50333 41.8499 10.5217 37.7766 11.15 37.1483C11.5183 36.7366 12.06 36.4983 12.6667 36.4983C13.8583 36.4983 14.8333 37.4733 14.8333 38.6649C14.8333 39.2716 14.595 39.8133 14.205 40.2033ZM37.41 29.2399C51.19 15.4599 46.5967 4.73493 46.5967 4.73493C46.5967 4.73493 35.8717 0.1416 22.0917 13.9216L16.6967 12.8383C15.2883 12.5566 13.815 13.0116 12.775 14.0299L4 22.8266L14.8333 27.4633L23.8683 36.4983L28.505 47.3316L37.28 38.5566C38.2983 37.5383 38.7533 36.0649 38.4717 34.6349L37.41 29.2399ZM15.7217 23.1299L11.5833 21.3533L15.8517 17.0849L18.9717 17.7133C17.7367 19.5116 16.6317 21.3966 15.7217 23.1299ZM29.9783 39.7483L28.2017 35.6099C29.935 34.6999 31.82 33.5949 33.5967 32.3599L34.225 35.4799L29.9783 39.7483ZM34.3333 26.1849C31.4733 29.0449 27.01 31.3849 25.58 32.0999L19.2317 25.7516C19.925 24.3433 22.265 19.8799 25.1467 16.9983C35.2867 6.85827 42.9783 8.35327 42.9783 8.35327C42.9783 8.35327 44.4733 16.0449 34.3333 26.1849ZM32.1667 23.4983C34.55 23.4983 36.5 21.5483 36.5 19.1649C36.5 16.7816 34.55 14.8316 32.1667 14.8316C29.7833 14.8316 27.8333 16.7816 27.8333 19.1649C27.8333 21.5483 29.7833 23.4983 32.1667 23.4983Z" fill="currentColor" />
</svg>