<svg width="21" height="20" viewBox="0 0 21 20" fill="none" xmlns="http://www.w3.org/2000/svg">
<path d="M13.1668 8.33335C13.1668 7.87502 13.5418 7.50002 14.0002 7.50002C14.4585 7.50002 14.8335 7.87502 14.8335 8.33335C14.8335 8.79169 14.4585 9.16669 14.0002 9.16669C13.5418 9.16669 13.1668 8.79169 13.1668 8.33335ZM7.3335 7.50002H11.5002V5.83335H7.3335V7.50002ZM19.0002 6.25002V12.0584L16.6502 12.8417L15.2502 17.5H10.6668V15.8334H9.00016V17.5H4.41683C4.41683 17.5 2.3335 10.45 2.3335 7.91669C2.3335 5.38335 4.3835 3.33335 6.91683 3.33335H11.0835C11.8418 2.32502 13.0502 1.66669 14.4168 1.66669C15.1085 1.66669 15.6668 2.22502 15.6668 2.91669C15.6668 3.09169 15.6335 3.25002 15.5668 3.40002C15.4502 3.68335 15.3502 4.00835 15.3002 4.35835L17.1918 6.25002H19.0002ZM17.3335 7.91669H16.5002L13.5835 5.00002C13.5835 4.45835 13.6585 3.92502 13.8002 3.40835C12.9918 3.61669 12.3335 4.21669 12.0585 5.00002H6.91683C5.3085 5.00002 4.00016 6.30835 4.00016 7.91669C4.00016 9.48335 5.01683 13.4584 5.67516 15.8334H7.3335V14.1667H12.3335V15.8334H14.0085L15.3002 11.5417L17.3335 10.8584V7.91669Z" fill="currentColor"/>
</svg>
