<svg width="20" height="20" viewBox="0 0 20 20" fill="none" xmlns="http://www.w3.org/2000/svg">
<g clip-path="url(#clip0_26_6779)">
<path d="M4.16667 20H7.5C7.72101 20 7.93298 19.9122 8.08926 19.7559C8.24554 19.5996 8.33333 19.3877 8.33333 19.1667C8.33333 18.9457 8.24554 18.7337 8.08926 18.5774C7.93298 18.4211 7.72101 18.3333 7.5 18.3333H4.16667C3.50383 18.3327 2.86833 18.0691 2.39963 17.6004C1.93093 17.1317 1.66733 16.4962 1.66667 15.8333V7.08333H18.3333V7.91667C18.3333 8.13768 18.4211 8.34964 18.5774 8.50592C18.7337 8.6622 18.9457 8.75 19.1667 8.75C19.3877 8.75 19.5996 8.6622 19.7559 8.50592C19.9122 8.34964 20 8.13768 20 7.91667V5.41667C19.9988 4.31197 19.5594 3.25287 18.7783 2.47173C17.9971 1.69059 16.938 1.25121 15.8333 1.25H15V0.833333C15 0.61232 14.9122 0.400358 14.7559 0.244078C14.5996 0.0877975 14.3877 0 14.1667 0C13.9457 0 13.7337 0.0877975 13.5774 0.244078C13.4211 0.400358 13.3333 0.61232 13.3333 0.833333V1.25H6.66667V0.833333C6.66667 0.61232 6.57887 0.400358 6.42259 0.244078C6.26631 0.0877975 6.05435 0 5.83333 0C5.61232 0 5.40036 0.0877975 5.24408 0.244078C5.0878 0.400358 5 0.61232 5 0.833333V1.25H4.16667C3.06197 1.25121 2.00287 1.69059 1.22173 2.47173C0.44059 3.25287 0.00121317 4.31197 0 5.41667V15.8333C0.00121317 16.938 0.44059 17.9971 1.22173 18.7783C2.00287 19.5594 3.06197 19.9988 4.16667 20ZM4.16667 2.91667H5V3.33333C5 3.55435 5.0878 3.76631 5.24408 3.92259C5.40036 4.07887 5.61232 4.16667 5.83333 4.16667C6.05435 4.16667 6.26631 4.07887 6.42259 3.92259C6.57887 3.76631 6.66667 3.55435 6.66667 3.33333V2.91667H13.3333V3.33333C13.3333 3.55435 13.4211 3.76631 13.5774 3.92259C13.7337 4.07887 13.9457 4.16667 14.1667 4.16667C14.3877 4.16667 14.5996 4.07887 14.7559 3.92259C14.9122 3.76631 15 3.55435 15 3.33333V2.91667H15.8333C16.4962 2.91733 17.1317 3.18093 17.6004 3.64963C18.0691 4.11833 18.3327 4.75383 18.3333 5.41667H1.66667C1.66733 4.75383 1.93093 4.11833 2.39963 3.64963C2.86833 3.18093 3.50383 2.91733 4.16667 2.91667Z" fill="currentColor"/>
<path d="M18.5673 10.4758C18.2623 10.1711 17.8489 10 17.4178 10C16.9867 10 16.5732 10.1711 16.2682 10.4758L14.7433 12.0006L10.7234 16.0191C10.393 16.35 10.1888 16.7861 10.1463 17.2518L10.0044 18.8157C9.99086 18.9659 10.0088 19.1173 10.0569 19.2601C10.1051 19.403 10.1824 19.5343 10.2841 19.6457C10.3857 19.7571 10.5094 19.8461 10.6473 19.9071C10.7852 19.9681 10.9343 19.9997 11.0851 20C11.1179 20 11.1512 20 11.1844 19.9957L12.7484 19.8534C13.2141 19.8108 13.6501 19.6065 13.9809 19.2759L17.8479 15.4099L19.5249 13.733C19.8291 13.4279 20 13.0146 20 12.5837C20 12.1529 19.8291 11.7396 19.5249 11.4344L18.5673 10.4758ZM12.8739 18.1694C12.8022 18.2414 12.7073 18.2859 12.6061 18.2949L11.6137 18.3853L11.7037 17.393C11.7131 17.2917 11.7575 17.1969 11.8292 17.1247L15.6962 13.2588L16.7409 14.3031L12.8739 18.1694ZM18.4176 12.6262L17.8467 13.1974L16.8019 12.1531L17.3732 11.5818C17.3854 11.5718 17.4008 11.5663 17.4166 11.5663C17.4324 11.5663 17.4478 11.5718 17.46 11.5818L18.4176 12.5394C18.429 12.5509 18.4354 12.5665 18.4354 12.5828C18.4354 12.599 18.429 12.6146 18.4176 12.6262Z" fill="currentColor"/>
</g>
<defs>
<clipPath id="clip0_26_6779">
<rect width="20" height="20" fill="currentColor"/>
</clipPath>
</defs>
</svg>
