<svg width="20" height="20" viewBox="0 0 20 20" fill="none" xmlns="http://www.w3.org/2000/svg">
<path d="M8.03317 6.36669C8.22484 5.95002 8.33317 5.49169 8.33317 5.00002C8.33317 3.15835 6.8415 1.66669 4.99984 1.66669C3.15817 1.66669 1.6665 3.15835 1.6665 5.00002C1.6665 6.84169 3.15817 8.33335 4.99984 8.33335C5.4915 8.33335 5.94984 8.22502 6.3665 8.03335L8.33317 10L6.3665 11.9667C5.94984 11.775 5.4915 11.6667 4.99984 11.6667C3.15817 11.6667 1.6665 13.1584 1.6665 15C1.6665 16.8417 3.15817 18.3334 4.99984 18.3334C6.8415 18.3334 8.33317 16.8417 8.33317 15C8.33317 14.5084 8.22484 14.05 8.03317 13.6334L9.99984 11.6667L15.8332 17.5H18.3332V16.6667L8.03317 6.36669ZM4.99984 6.66669C4.08317 6.66669 3.33317 5.92502 3.33317 5.00002C3.33317 4.07502 4.08317 3.33335 4.99984 3.33335C5.9165 3.33335 6.6665 4.07502 6.6665 5.00002C6.6665 5.92502 5.9165 6.66669 4.99984 6.66669ZM4.99984 16.6667C4.08317 16.6667 3.33317 15.925 3.33317 15C3.33317 14.075 4.08317 13.3334 4.99984 13.3334C5.9165 13.3334 6.6665 14.075 6.6665 15C6.6665 15.925 5.9165 16.6667 4.99984 16.6667ZM9.99984 10.4167C9.7665 10.4167 9.58317 10.2334 9.58317 10C9.58317 9.76669 9.7665 9.58335 9.99984 9.58335C10.2332 9.58335 10.4165 9.76669 10.4165 10C10.4165 10.2334 10.2332 10.4167 9.99984 10.4167ZM15.8332 2.50002L10.8332 7.50002L12.4998 9.16669L18.3332 3.33335V2.50002H15.8332Z" fill="currentColor" />
</svg>
