<svg width="20" height="20" viewBox="0 0 20 20" fill="none" xmlns="http://www.w3.org/2000/svg">
<g clip-path="url(#clip0_26_6927)">
<path fill-rule="evenodd" clip-rule="evenodd" d="M13.7613 9.87695L13.2409 9.56469C13.3429 9.24602 13.3984 8.90676 13.3984 8.55469C13.3984 8.20262 13.3429 7.86336 13.2409 7.54469L13.7613 7.23242C14.1313 7.01043 14.2513 6.53055 14.0293 6.16055C13.8072 5.79055 13.3273 5.67063 12.9574 5.89258L12.4274 6.21063C12.0025 5.7848 11.4627 5.47418 10.8594 5.32809V4.64844C10.8594 4.21695 10.5096 3.86719 10.0781 3.86719C9.64664 3.86719 9.29688 4.21695 9.29688 4.64844V5.32809C8.67977 5.47754 8.12965 5.79961 7.70047 6.24043L7.1207 5.89258C6.75082 5.67063 6.27086 5.79055 6.04887 6.16055C5.82684 6.53055 5.94684 7.01043 6.3168 7.23242L6.90289 7.58406C6.80879 7.89125 6.75781 8.21711 6.75781 8.55469C6.75781 8.89227 6.80879 9.21813 6.90289 9.52531L6.3168 9.87695C5.9468 10.0989 5.82684 10.5788 6.04883 10.9488C6.19535 11.1929 6.4541 11.3282 6.71949 11.3282C6.85629 11.3282 6.99488 11.2923 7.1207 11.2168L7.70047 10.8689C8.12965 11.3097 8.67977 11.6318 9.29688 11.7813V12.4609C9.29688 12.8924 9.64664 13.2422 10.0781 13.2422C10.5096 13.2422 10.8594 12.8924 10.8594 12.4609V11.7813C11.4627 11.6352 12.0025 11.3246 12.4273 10.8988L12.9574 11.2168C13.0833 11.2923 13.2218 11.3282 13.3586 11.3282C13.624 11.3282 13.8828 11.193 14.0293 10.9488C14.2513 10.5788 14.1313 10.0989 13.7613 9.87695ZM8.32031 8.55469C8.32031 9.52395 9.10887 10.3125 10.0781 10.3125C11.0474 10.3125 11.8359 9.52395 11.8359 8.55469C11.8359 7.58543 11.0474 6.79688 10.0781 6.79688C9.10887 6.79688 8.32031 7.58543 8.32031 8.55469Z" fill="currentColor"/>
<path fill-rule="evenodd" clip-rule="evenodd" d="M14.5313 18.6719C14.5313 19.1034 14.1815 19.4531 13.75 19.4531H6.25C5.81852 19.4531 5.46875 19.1034 5.46875 18.6719C5.46875 18.2404 5.81852 17.8906 6.25 17.8906H13.75C14.1815 17.8906 14.5313 18.2404 14.5313 18.6719Z" fill="currentColor"/>
<path fill-rule="evenodd" clip-rule="evenodd" d="M15.3125 0.546875H4.6875C2.10281 0.546875 0 2.64969 0 5.23438V11.6414C0 14.2257 2.10242 16.3281 4.68668 16.3281H15.3125C17.8972 16.3281 20 14.2253 20 11.6406V5.23438C20 2.64969 17.8972 0.546875 15.3125 0.546875ZM15.3125 14.7656C17.0356 14.7656 18.4375 13.3638 18.4375 11.6406V5.23438C18.4375 3.51125 17.0356 2.10938 15.3125 2.10938H4.6875C2.96438 2.10938 1.5625 3.51125 1.5625 5.23438V11.6414C1.5625 13.3641 2.96402 14.7656 4.68668 14.7656H15.3125Z" fill="currentColor"/>
</g>
<defs>
<clipPath id="clip0_26_6927">
<rect width="20" height="20" fill="currentColor"/>
</clipPath>
</defs>
</svg>
