<svg width="18" height="18" viewBox="0 0 18 18" fill="none" xmlns="http://www.w3.org/2000/svg">
  <path d="M15.6667 4.00033V15.667H4.00008V17.3337H15.6667C16.5834 17.3337 17.3334 16.5837 17.3334 15.667V4.00033H15.6667Z" fill="currentColor" />
  <path d="M12.3334 0.666992H2.33341C1.41675 0.666992 0.666748 1.41699 0.666748 2.33366V12.3337C0.666748 13.2503 1.41675 14.0003 2.33341 14.0003H12.3334C13.2501 14.0003 14.0001 13.2503 14.0001 12.3337V2.33366C14.0001 1.41699 13.2501 0.666992 12.3334 0.666992ZM6.50008 12.3337H2.33341V8.16699H6.50008V12.3337ZM12.3334 12.3337H8.16675V8.16699H12.3334V12.3337ZM12.3334 6.50033H2.33341V2.33366H12.3334V6.50033Z" fill="currentColor" />
</svg>