<svg width="20" height="20" viewBox="0 0 20 20" fill="none" xmlns="http://www.w3.org/2000/svg">
<g clip-path="url(#clip0_26_6858)">
<path fill-rule="evenodd" clip-rule="evenodd" d="M19.1667 15.3125V4.6875C19.1667 2.10281 16.1784 0 13.5938 0H6.40625C3.82156 0 0.9375 2.10281 0.9375 4.6875V15.3125C0.9375 17.8972 3.82156 20 6.40625 20H13.5938C16.1784 20 19.1667 17.8972 19.1667 15.3125ZM13.5938 1.5625C15.3169 1.5625 17.6042 2.96438 17.6042 4.6875V15.3125C17.6042 17.0356 15.3169 18.4375 13.5938 18.4375H6.40625C4.68313 18.4375 2.5 17.0356 2.5 15.3125V4.6875C2.5 2.96438 4.68313 1.5625 6.40625 1.5625H13.5938Z" fill="currentColor"/>
<path d="M8.82031 11.954L10.3204 10.441C10.6242 10.1346 10.6221 9.63992 10.3156 9.33613C10.0093 9.03238 9.51461 9.03445 9.21078 9.3409L7.71066 10.8539C7.70356 10.8611 7.69465 10.8611 7.68754 10.8539L6.96098 10.1211C6.65719 9.81465 6.16254 9.81254 5.85613 10.1163C5.54973 10.4201 5.54762 10.9148 5.85137 11.2212L6.57793 11.954C6.87703 12.2557 7.2752 12.4219 7.6991 12.4219C8.12309 12.4219 8.52125 12.2557 8.82031 11.954Z" fill="currentColor"/>
<path d="M14.0234 11.6406C14.0234 11.2091 13.6737 10.8594 13.2422 10.8594H11.7188C11.2873 10.8594 10.9375 11.2091 10.9375 11.6406C10.9375 12.0721 11.2873 12.4219 11.7188 12.4219H13.2422C13.6737 12.4219 14.0234 12.0721 14.0234 11.6406Z" fill="currentColor"/>
<path d="M13.2422 15.4297H6.64062C6.20914 15.4297 5.85938 15.0799 5.85938 14.6484C5.85938 14.217 6.20914 13.8672 6.64062 13.8672H13.2422C13.6737 13.8672 14.0234 14.217 14.0234 14.6484C14.0234 15.0799 13.6737 15.4297 13.2422 15.4297Z" fill="currentColor"/>
<path d="M14.2188 3.82812C14.2188 3.39664 13.869 3.04688 13.4375 3.04688C13.006 3.04688 12.6562 3.39664 12.6562 3.82812C12.6562 4.4743 12.1305 5 11.4844 5H8.51562C7.86945 5 7.34375 4.4743 7.34375 3.82812C7.34375 3.39664 6.99398 3.04688 6.5625 3.04688C6.13102 3.04688 5.78125 3.39664 5.78125 3.82812C5.78125 5.33586 7.00789 6.5625 8.51562 6.5625H11.4844C12.9921 6.5625 14.2188 5.33586 14.2188 3.82812Z" fill="currentColor"/>
</g>
<defs>
<clipPath id="clip0_26_6858">
<rect width="20" height="20" fill="currentColor"/>
</clipPath>
</defs>
</svg>
