<svg width="24" height="22" viewBox="0 0 24 22" fill="none" xmlns="http://www.w3.org/2000/svg">
<path d="M9 12C12.3137 12 15 9.3137 15 6C15 2.68629 12.3137 0 9 0C5.68629 0 3 2.68629 3 6C3 9.3137 5.68629 12 9 12Z" fill="currentColor"/>
<path d="M6.42857 13C2.87817 13 0 15.8782 0 19.4286C0 20.8487 1.15127 22 2.57143 22H15.4286C16.8487 22 18 20.8487 18 19.4286C18 15.8782 15.1218 13 11.5714 13H6.42857Z" fill="currentColor"/>
<path d="M15.8369 10.1555C15.657 10.4509 15.7909 10.8479 16.131 10.9108C16.4236 10.965 16.7261 11 16.9995 11C19.7609 11 21.9995 8.76142 21.9995 6C21.9995 3.23858 19.7609 1 16.9995 1C16.7261 1 16.4236 1.03505 16.131 1.0892C15.7909 1.15213 15.657 1.54912 15.8369 1.84447C16.5746 3.05562 16.9995 4.47819 16.9995 6C16.9995 7.52181 16.5746 8.94438 15.8369 10.1555Z" fill="currentColor"/>
<path d="M19.6567 21.169C19.5037 21.5404 19.7527 22 20.1543 22H21.4283C22.8485 22 23.9997 20.8487 23.9997 19.4286C23.9997 15.8782 21.1216 13 17.5712 13C17.384 13.0047 17.2982 13.2417 17.4327 13.3719C19.0156 14.9042 19.9997 17.0515 19.9997 19.4286C19.9997 20.0448 19.8778 20.6326 19.6567 21.169Z" fill="currentColor"/>
</svg>
