<svg width="24" height="24" viewBox="0 0 24 24" fill="none" xmlns="http://www.w3.org/2000/svg">
  <g clip-path="url(#clip0_1170_72062)">
    <path d="M20.8124 2.33925C20.2171 1.79081 17.8077 0.042373 12.4358 0.0189355C12.4358 0.0189355 6.10303 -0.360752 3.01865 2.4705C1.30303 4.18612 0.698338 6.70331 0.632713 9.8205C0.567088 12.9377 0.487401 18.7783 6.11709 20.3627H6.12178L6.11709 22.7814C6.11709 22.7814 6.07959 23.7611 6.72646 23.958C7.50459 24.2017 7.96396 23.4564 8.70928 22.6549C9.11709 22.2142 9.67959 21.5674 10.1061 21.0752C13.9593 21.3986 16.9171 20.658 17.2546 20.5502C18.0327 20.2971 22.4343 19.7346 23.1468 13.8939C23.8874 7.86581 22.7905 4.05956 20.8124 2.33925ZM21.464 13.4533C20.8593 18.3283 17.2921 18.6377 16.6358 18.8486C16.3546 18.9377 13.753 19.5846 10.4858 19.3736C10.4858 19.3736 8.04834 22.3127 7.28896 23.0767C7.04053 23.3252 6.76865 23.3017 6.77334 22.8096C6.77334 22.4861 6.79209 18.7924 6.79209 18.7924C6.7874 18.7924 6.7874 18.7924 6.79209 18.7924C2.02021 17.4705 2.30146 12.4971 2.35303 9.8955C2.40459 7.29394 2.89678 5.16112 4.3499 3.72675C6.96084 1.35956 12.3374 1.71112 12.3374 1.71112C16.8796 1.72987 19.0546 3.09862 19.5608 3.558C21.2343 4.99237 22.0874 8.42362 21.464 13.4533ZM14.9483 9.66581C14.9671 10.0689 14.3624 10.0971 14.3437 9.69394C14.2921 8.66269 13.8093 8.16112 12.8155 8.10487C12.4124 8.08144 12.4499 7.47675 12.8483 7.50019C14.1562 7.5705 14.8827 8.3205 14.9483 9.66581ZM15.8999 10.1955C15.9468 8.208 14.7046 6.65175 12.3468 6.47831C11.9483 6.45019 11.9905 5.8455 12.389 5.87362C15.1077 6.0705 16.5562 7.94081 16.5046 10.2096C16.4999 10.6127 15.8905 10.5939 15.8999 10.1955ZM18.103 10.8236C18.1077 11.2267 17.4983 11.2314 17.4983 10.8283C17.4702 7.008 14.9249 4.92675 11.8358 4.90331C11.4374 4.89862 11.4374 4.29862 11.8358 4.29862C15.2905 4.32206 18.0702 6.708 18.103 10.8236ZM17.5733 15.4221V15.4314C17.0671 16.3221 16.1202 17.3064 15.1452 16.9924L15.1358 16.9783C14.1468 16.7017 11.8171 15.5017 10.3452 14.3299C9.58584 13.7299 8.89209 13.0221 8.35771 12.3424C7.8749 11.7377 7.3874 11.0205 6.91396 10.158C5.91553 8.35331 5.69521 7.54706 5.69521 7.54706C5.38115 6.57206 6.36084 5.62519 7.25615 5.11894H7.26553C7.69678 4.89394 8.10927 4.96894 8.38584 5.30175C8.38584 5.30175 8.96709 5.9955 9.21552 6.33769C9.4499 6.65644 9.76396 7.16737 9.92803 7.45331C10.214 7.96425 10.0358 8.48456 9.75459 8.70019L9.19209 9.15019C8.90615 9.37987 8.94365 9.80644 8.94365 9.80644C8.94365 9.80644 9.77803 12.9611 12.8952 13.758C12.8952 13.758 13.3218 13.7955 13.5515 13.5096L14.0015 12.9471C14.2171 12.6658 14.7374 12.4877 15.2483 12.7736C15.9374 13.1627 16.814 13.7674 17.3952 14.3158C17.7233 14.583 17.7983 14.9908 17.5733 15.4221Z" fill="white" />
    <path fill-rule="evenodd" clip-rule="evenodd" d="M21.464 13.4533C20.8593 18.3283 17.2921 18.6377 16.6358 18.8486C16.3546 18.9377 13.753 19.5846 10.4858 19.3736C10.4858 19.3736 8.04834 22.3127 7.28896 23.0767C7.04053 23.3252 6.76865 23.3017 6.77334 22.8096C6.77334 22.4861 6.79209 18.7924 6.79209 18.7924C2.02021 17.4705 2.30146 12.4971 2.35303 9.8955C2.40459 7.29394 2.89678 5.16112 4.3499 3.72675C6.96084 1.35956 12.3374 1.71112 12.3374 1.71112C16.8796 1.72987 19.0546 3.09862 19.5608 3.558C21.2343 4.99237 22.0874 8.42362 21.464 13.4533ZM14.3437 9.69394C14.3624 10.0971 14.9671 10.0689 14.9483 9.66581C14.8827 8.3205 14.1562 7.5705 12.8483 7.50019C12.4499 7.47675 12.4124 8.08144 12.8155 8.10487C13.8093 8.16112 14.2921 8.66269 14.3437 9.69394ZM12.3468 6.47831C14.7046 6.65175 15.9468 8.208 15.8999 10.1955C15.8905 10.5939 16.4999 10.6127 16.5046 10.2096C16.5562 7.94081 15.1077 6.0705 12.389 5.87362C11.9905 5.8455 11.9483 6.45019 12.3468 6.47831ZM17.4983 10.8283C17.4983 11.2314 18.1077 11.2267 18.103 10.8236C18.0702 6.708 15.2905 4.32206 11.8358 4.29862C11.4374 4.29862 11.4374 4.89862 11.8358 4.90331C14.9249 4.92675 17.4702 7.008 17.4983 10.8283ZM17.5733 15.4314V15.4221C17.7983 14.9908 17.7233 14.583 17.3952 14.3158C16.814 13.7674 15.9374 13.1627 15.2483 12.7736C14.7374 12.4877 14.2171 12.6658 14.0015 12.9471L13.5515 13.5096C13.3218 13.7955 12.8952 13.758 12.8952 13.758C9.77803 12.9611 8.94365 9.80644 8.94365 9.80644C8.94365 9.80644 8.90615 9.37987 9.19209 9.15019L9.75459 8.70019C10.0358 8.48456 10.214 7.96425 9.92803 7.45331C9.76396 7.16737 9.4499 6.65644 9.21552 6.33769C8.96709 5.9955 8.38584 5.30175 8.38584 5.30175C8.10927 4.96894 7.69678 4.89394 7.26553 5.11894H7.25615C6.36084 5.62519 5.38115 6.57206 5.69521 7.54706C5.69521 7.54706 5.91553 8.35331 6.91396 10.158C7.3874 11.0205 7.8749 11.7377 8.35771 12.3424C8.89209 13.0221 9.58584 13.7299 10.3452 14.3299C11.8171 15.5017 14.1468 16.7017 15.1358 16.9783L15.1452 16.9924C16.1202 17.3064 17.0671 16.3221 17.5733 15.4314Z" fill="#7324D5" />
  </g>
  <defs>
    <clipPath id="clip0_1170_72062">
      <rect width="24" height="24" fill="white" />
    </clipPath>
  </defs>
</svg>