<svg width="20" height="20" viewBox="0 0 20 20" fill="none" xmlns="http://www.w3.org/2000/svg">
<g opacity="0.5">
<path d="M12.4999 3.33331H13.3333C13.5543 3.33331 13.7662 3.42111 13.9225 3.57739C14.0788 3.73367 14.1666 3.94563 14.1666 4.16665V7.08331M16.6666 4.99998C16.8866 5.09331 17.0999 5.18081 17.3066 5.26248C17.51 5.3488 17.6708 5.51239 17.7537 5.71727C17.8365 5.92215 17.8346 6.15153 17.7483 6.35498L15.8333 10.8333M3.00326 5.99748L8.95159 3.40665C9.04974 3.36458 9.15533 3.34258 9.26211 3.34196C9.3689 3.34134 9.47473 3.36211 9.57337 3.40304C9.672 3.44397 9.76145 3.50423 9.83642 3.58028C9.9114 3.65632 9.97039 3.74661 10.0099 3.84581L14.1133 13.7641C14.1985 13.9653 14.2014 14.1918 14.1213 14.3951C14.0412 14.5983 13.8845 14.762 13.6849 14.8508L7.73742 17.4416C7.63922 17.4838 7.53356 17.5059 7.42668 17.5066C7.3198 17.5073 7.21387 17.4866 7.11514 17.4456C7.0164 17.4047 6.92688 17.3444 6.85184 17.2683C6.7768 17.1922 6.71778 17.1018 6.67826 17.0025L2.57492 7.08331C2.48963 6.88219 2.48673 6.65562 2.56684 6.45238C2.64696 6.24914 2.80367 6.08631 3.00326 5.99748Z" stroke="black" stroke-width="1.5" stroke-linecap="round" stroke-linejoin="round"/>
</g>
</svg>
