<svg width="24" height="24" viewBox="0 0 24 24" fill="none" xmlns="http://www.w3.org/2000/svg">
  <path fill-rule="evenodd" clip-rule="evenodd" d="M20.7761 18.3506L18.9253 19.7458L21.3443 22.9637C21.7268 23.4757 22.4582 23.577 22.9701 23.1944C23.4823 22.8117 23.5834 22.0804 23.2007 21.5687L20.7761 18.3506Z" fill="#3A8AC0" />
  <path d="M12.4688 1.79736C14.2342 0.677991 15.7493 0.227083 16.9961 0.501465C18.1785 0.761694 19.0757 1.66356 19.7031 3.15186L19.8252 3.45654L19.8291 3.46924L19.9658 3.99561C20.5926 6.63426 20.3458 9.3584 18.9375 11.8374H18.9365C18.7733 12.1205 18.6737 12.2777 18.6211 12.4507C18.5715 12.6138 18.5627 12.7992 18.6172 13.1284C18.9834 15.3571 18.8303 17.3374 18.1475 19.064C17.4642 20.7913 16.2546 22.2538 14.5264 23.4526V23.4536C14.0805 23.7602 13.4758 23.4299 13.4756 22.8911V17.3833L13.4717 17.2231C13.3884 15.5744 12.0259 14.2642 10.3564 14.2642C8.62768 14.2643 7.23242 15.6604 7.23242 17.3833V22.8911C7.2322 23.4299 6.62723 23.7605 6.18164 23.4536V23.4526C4.45326 22.2539 3.24375 20.7913 2.56055 19.064C1.87772 17.3374 1.72449 15.3571 2.09082 13.1284C2.14516 12.7992 2.13657 12.6138 2.08691 12.4507C2.03424 12.2777 1.9347 12.1204 1.77148 11.8374H1.77051C0.268434 9.1932 0.0875786 6.27009 0.878906 3.46924L0.882812 3.45654L1.00488 3.15186C1.63236 1.66359 2.52954 0.761728 3.71191 0.501465C4.95852 0.227124 6.4731 0.678361 8.23828 1.79736C9.58689 2.3188 11.1198 2.31856 12.4688 1.79736Z" fill="#DAEEFF" stroke="#050098" stroke-width="0.3" />
  <path d="M7.43701 3.82473C7.29081 3.76853 7.21764 3.60541 7.27379 3.45906C7.33014 3.31291 7.49912 3.23964 7.64518 3.2957C8.51157 3.63339 9.43426 3.80223 10.3511 3.80223C11.2739 3.80223 12.1967 3.63339 13.0629 3.2957C13.2093 3.23969 13.3779 3.31291 13.4343 3.45906C13.4906 3.60541 13.4174 3.76853 13.2711 3.82473C12.3317 4.1905 11.3416 4.37031 10.3511 4.37031C9.36653 4.37026 8.37657 4.19045 7.43701 3.82473Z" fill="#CDC9C9" />
  <path fill-rule="evenodd" clip-rule="evenodd" d="M12.6014 9.41692C15.403 7.30707 19.375 7.86976 21.4848 10.6712C23.5888 13.4673 23.0262 17.445 20.2302 19.5489C17.4285 21.6588 13.451 21.0961 11.3468 18.2945C9.24281 15.4985 9.80531 11.5211 12.6014 9.41692Z" fill="#4099D5" />
  <path fill-rule="evenodd" clip-rule="evenodd" d="M13.4624 10.5532C15.6283 8.92178 18.7113 9.36062 20.3428 11.5264C21.9742 13.698 21.5411 16.7754 19.3695 18.4126C17.198 20.044 14.1205 19.605 12.489 17.4392C10.8574 15.2678 11.2908 12.1847 13.4624 10.5532Z" fill="#8FC3E6" />
  <path fill-rule="evenodd" clip-rule="evenodd" d="M12.7987 13.8105C12.7704 13.9679 12.6242 14.0693 12.4667 14.0411C12.3147 14.0131 12.2079 13.8668 12.2359 13.7092C12.3374 13.1861 12.5285 12.6909 12.8043 12.2463C13.0798 11.8021 13.4344 11.4081 13.8619 11.0874C13.9856 10.9918 14.1655 11.0199 14.2613 11.1438C14.3569 11.2732 14.3287 11.4476 14.205 11.5432C13.8338 11.8188 13.5243 12.1621 13.2881 12.5447C13.0517 12.9327 12.8829 13.3605 12.7987 13.8105Z" fill="#4099D5" />
</svg>