<svg width="24" height="24" viewBox="0 0 24 24" fill="none" xmlns="http://www.w3.org/2000/svg">
  <path d="M20.6233 12.8233C21.4833 11.7867 22 10.4533 22 9C22 5.68667 19.3133 3 16 3C12.6867 3 10 5.68667 10 9C10 12.3133 12.6867 15 16 15C17.02 15 17.98 14.7433 18.82 14.2967L22 15L20.6233 12.8233Z" fill="#99C5FF" />
  <path d="M3.37667 18.8233C2.51667 17.7867 2 16.4533 2 15C2 11.6867 4.68667 9 8 9C11.3133 9 14 11.6867 14 15C14 18.3133 11.3133 21 8 21C6.98 21 6.02 20.7433 5.18 20.2967L2 21L3.37667 18.8233Z" fill="#E65C62" />
  <path d="M7.875 18.125C8.18566 18.125 8.4375 17.8732 8.4375 17.5625C8.4375 17.2518 8.18566 17 7.875 17C7.56434 17 7.3125 17.2518 7.3125 17.5625C7.3125 17.8732 7.56434 18.125 7.875 18.125Z" fill="#F2F2F2" />
  <path d="M7.875 11.75C8.49375 11.75 9 12.2563 9 12.875C9 13.4938 8.49375 14 7.875 14C7.66875 14 7.5 14.1688 7.5 14.375V16.25H8.25V14.7125C9.105 14.54 9.75 13.7825 9.75 12.875C9.75 11.84 8.91 11 7.875 11C6.84 11 6 11.84 6 12.875H6.75C6.75 12.2563 7.25625 11.75 7.875 11.75Z" fill="#F2F2F2" />
  <path d="M13.3335 6.6665H18.6668V7.33317H13.3335V6.6665Z" fill="#2462B3" />
  <path d="M13.3335 8.6665H18.6668V9.33317H13.3335V8.6665Z" fill="#2462B3" />
  <path d="M14.667 10.6665H18.667V11.3332H14.667V10.6665Z" fill="#2462B3" />
</svg>