<svg width="24" height="24" viewBox="0 0 24 24" fill="none" xmlns="http://www.w3.org/2000/svg">
  <path d="M6.40625 0.489258L6.7334 0.50293C7.47061 0.556622 8.03742 0.758006 8.5 1.04395C9.02397 1.36784 9.39962 1.79225 9.72852 2.19141C10.3982 3.0041 10.866 3.67773 12 3.67773C13.134 3.67773 13.6018 3.00409 14.2715 2.19141C14.6004 1.79226 14.976 1.36784 15.5 1.04395C16.0287 0.717137 16.694 0.501069 17.5938 0.489258H17.5967C19.9525 0.489282 21.8485 1.81065 22.8086 4.10547C23.7638 6.38858 23.79 9.61974 22.4824 13.4795C21.1461 17.4239 20.4118 19.9128 19.7285 21.3994C19.3851 22.1465 19.0395 22.6779 18.6084 23.0186C18.1675 23.3669 17.664 23.4961 17.0527 23.4961C16.0467 23.4961 15.3998 22.9829 14.9619 22.2539C14.535 21.5431 14.2939 20.6081 14.0791 19.7178C13.8594 18.8072 13.6666 17.9454 13.3467 17.3047C13.1888 16.9885 13.0081 16.7434 12.793 16.5781C12.5824 16.4164 12.3275 16.3223 12 16.3223C11.6725 16.3223 11.4176 16.4164 11.207 16.5781C10.9919 16.7434 10.8112 16.9885 10.6533 17.3047C10.3334 17.9454 10.1406 18.8072 9.9209 19.7178C9.70607 20.6081 9.46498 21.5431 9.03809 22.2539C8.60024 22.9829 7.95326 23.4961 6.94727 23.4961C6.33599 23.4961 5.83247 23.3669 5.3916 23.0186C4.9605 22.6779 4.61492 22.1465 4.27148 21.3994C3.58817 19.9128 2.85394 17.4239 1.51758 13.4795C0.209979 9.61974 0.236176 6.38858 1.19141 4.10547C2.15154 1.81066 4.04752 0.489295 6.40332 0.489258H6.40625Z" fill="#D1DCFF" stroke="#050098" stroke-width="0.5" />
  <path d="M14.864 1.89325C13.9941 2.80633 13.5195 3.92762 11.9998 3.92762C11.5276 3.92762 11.157 3.81906 10.8432 3.64215C9.61935 3.57993 8.4752 3.40655 8.4752 3.40655C7.19826 3.19488 6.90469 5.22659 8.18298 5.42895C10.303 5.86834 13.9121 6.31131 15.7328 3.40655C16.089 2.71797 15.6054 1.87879 14.864 1.89325Z" fill="#BFD2FF" />
  <path d="M9.62224 10.988C7.21123 12.0295 7.0632 14.2902 7.0632 14.2902C6.97646 15.2868 8.47124 15.4169 8.55804 14.4203C8.55804 12.3749 11.7384 11.2332 13.9577 12.4438C14.8565 12.8832 15.5153 11.5351 14.6165 11.0957C13.0876 10.4566 11.0459 10.3981 9.62224 10.988Z" fill="#BFD2FF" />
  <path d="M4.42489 10.381C5.26865 12.4669 5.3331 14.0841 5.3331 14.0841V22.6263C5.76755 23.0752 6.26453 23.246 6.94736 23.246C7.05762 23.246 7.16299 23.2389 7.26376 23.2261V14.7205C7.26376 9.42373 16.5934 9.51005 16.5934 14.7205V23.2005C16.7374 23.2293 16.8876 23.2459 17.0526 23.2459C17.7357 23.2459 18.233 23.0777 18.6676 22.6284V14.084C18.6676 14.084 18.7321 12.4668 19.5758 10.3809C20.4195 8.29494 18.6148 6.7246 16.9273 7.28709C14.0851 8.10296 9.64957 8.41152 7.07333 7.28709C5.05247 6.50242 3.54375 8.48188 4.42489 10.381Z" fill="#EF6356" />
</svg>