<svg width="21" height="16" viewBox="0 0 21 16" fill="none" xmlns="http://www.w3.org/2000/svg">
  <path d="M10.9784 15.6991L5.96889 10.1077L0.958008 4.51782H10.9784H21.0001L15.9892 10.1077L10.9784 15.6991Z" fill="#01C6DA" />
  <path d="M10.9785 15.6991L8.77035 10.1077L6.56152 4.51782H10.9785H15.3972L13.188 10.1077L10.9785 15.6991Z" fill="#01BACC" />
  <path d="M0.958008 4.54432H10.9784H21.0001L18.2435 0.990234H3.71531L0.958008 4.54432Z" fill="#01A8B9" />
  <path d="M10.9785 0.95459L6.56152 4.5442H10.9785H15.3972L10.9785 0.95459Z" fill="#01C6DA" />
  <path d="M6.52554 4.54432L3.72312 0.990234H3.71531L0.958008 4.54432H6.52554Z" fill="#01BACC" />
  <path d="M15.4336 4.54432L18.2364 0.990234H18.2435L21.0001 4.54432H15.4336Z" fill="#01BACC" />
  <path d="M5.21068 2.03516L5.5652 4.13777L7.66817 4.49229L5.5652 4.84716L5.21068 6.94942L4.85616 4.84716L2.75391 4.49229L4.85616 4.13777L5.21068 2.03516Z" fill="#F7F8FC" />
</svg>