<svg width="24" height="24" viewBox="0 0 24 24" fill="none" xmlns="http://www.w3.org/2000/svg">
  <path d="M0.710229 23.9973C0.528473 23.9973 0.346669 23.9279 0.20803 23.7891C-0.0693433 23.5116 -0.0693433 23.0616 0.20803 22.7841L4.62859 18.361C4.90592 18.0835 5.35567 18.0835 5.63299 18.361C5.91037 18.6385 5.91037 19.0885 5.63299 19.366L1.21243 23.7891C1.07379 23.9279 0.891985 23.9973 0.710229 23.9973Z" fill="#EEE1DC" />
  <path d="M0.710207 23.9972C0.891963 23.9972 1.07377 23.9278 1.21241 23.789L5.63297 19.3658C5.91034 19.0883 5.91034 18.6384 5.63297 18.3608L0.208008 23.789C0.346694 23.9278 0.528451 23.9972 0.710207 23.9972Z" fill="#C9A79B" />
  <path d="M19.0203 5.67673C18.8385 5.67673 18.6567 5.60734 18.5181 5.46856C18.2407 5.19105 18.2407 4.74107 18.5181 4.46355L20.5643 2.41614C20.8416 2.13863 21.2914 2.13863 21.5687 2.41614C21.846 2.69366 21.846 3.14364 21.5687 3.42115L19.5225 5.46856C19.3838 5.60734 19.202 5.67673 19.0203 5.67673Z" fill="#B3DDFF" />
  <path d="M19.0203 5.6766C19.2021 5.6766 19.3839 5.60721 19.5225 5.46843L21.5687 3.42102C21.8461 3.14351 21.8461 2.69353 21.5687 2.41602L18.5181 5.46839C18.6568 5.60721 18.8385 5.6766 19.0203 5.6766Z" fill="#59A7FF" />
  <path d="M8.52917 20.1968L5.25404 19.4394C4.92013 19.3622 4.6589 19.102 4.58017 18.7682L3.80097 15.4651C3.72924 15.1611 3.81997 14.8416 4.04072 14.6207L15.9331 2.7215C16.2849 2.36953 16.8553 2.36953 17.2071 2.7215L21.2633 6.7801C21.6151 7.13207 21.6151 7.70277 21.2633 8.05478L9.36898 19.956C9.14932 20.1758 8.83188 20.2668 8.52917 20.1968Z" fill="#CAF0FF" />
  <path d="M23.2896 5.85386C23.1079 5.85386 22.9261 5.78447 22.7874 5.64569L18.3604 1.21607C18.083 0.93856 18.083 0.488579 18.3604 0.211065C18.6377 -0.0664488 19.0874 -0.0664488 19.3648 0.211065L23.7918 4.64068C24.0692 4.9182 24.0692 5.36818 23.7918 5.64569C23.6531 5.78447 23.4714 5.85386 23.2896 5.85386Z" fill="#59A7FF" />
  <path d="M23.7919 4.64077L21.5684 2.41602L20.564 3.42102L22.7875 5.64578C22.9261 5.78451 23.1079 5.85395 23.2897 5.85395C23.4714 5.85395 23.6532 5.78456 23.7919 5.64578C24.0693 5.36827 24.0693 4.91829 23.7919 4.64077Z" fill="#0082FF" />
  <path d="M21.2631 6.78028L19.235 4.75098L4.80811 19.1862C4.92695 19.3097 5.08041 19.3994 5.25386 19.4396L8.529 20.197C8.8317 20.267 9.14914 20.176 9.36881 19.9562L21.2631 8.05496C21.6149 7.70295 21.6149 7.13229 21.2631 6.78028Z" fill="#89CAFF" />
  <path d="M12.6558 6.00049L4.04072 14.6206C3.81997 14.8415 3.72924 15.161 3.80097 15.465L4.58017 18.7681C4.6589 19.1019 4.92008 19.362 5.25404 19.4392L8.52917 20.1967C8.83188 20.2667 9.14927 20.1757 9.36898 19.9558L17.986 11.3338L12.6558 6.00049Z" fill="#FFBCA7" />
  <path d="M15.3208 8.66748L4.80811 19.1862C4.92695 19.3097 5.08041 19.3995 5.25386 19.4396L8.529 20.197C8.83171 20.267 9.14915 20.176 9.36881 19.9562L17.9859 11.3341L15.3208 8.66748Z" fill="#FF7A61" />
  <path d="M11.3399 9.83933C11.4786 9.97811 11.6604 10.0475 11.8422 10.0475C12.024 10.0475 12.2057 9.97811 12.3444 9.83933C12.6217 9.56182 12.6217 9.11184 12.3444 8.83432L11.084 7.57324L10.0796 8.57825L11.3399 9.83933Z" fill="#FC7964" />
  <path d="M6.69588 14.4863C6.83456 14.6251 7.01632 14.6945 7.19812 14.6945C7.37988 14.6945 7.56168 14.6251 7.70032 14.4863C7.9777 14.2088 7.9777 13.7588 7.70032 13.4813L6.43999 12.2202L5.43555 13.2252L6.69588 14.4863Z" fill="#FC7964" />
  <path d="M9.5834 12.7281C9.72208 12.8668 9.90384 12.9363 10.0856 12.9363C10.2674 12.9363 10.4492 12.8669 10.5878 12.7281C10.8652 12.4506 10.8652 12.0006 10.5878 11.7231L8.76221 9.89648L7.75781 10.9015L9.5834 12.7281Z" fill="#FC7964" />
  <path d="M19.339 13.3985C19.1572 13.3985 18.9754 13.3291 18.8368 13.1903L10.8008 5.14965C10.5234 4.87214 10.5234 4.42216 10.8008 4.14464C11.0781 3.86717 11.5279 3.86713 11.8052 4.14464L19.8412 12.1853C20.1186 12.4628 20.1186 12.9128 19.8412 13.1903C19.7025 13.3291 19.5207 13.3985 19.339 13.3985Z" fill="#9ED3FF" />
  <path d="M19.8413 12.1849L15.8233 8.16455L14.8188 9.16956L18.8369 13.1899C18.9756 13.3286 19.1573 13.398 19.3391 13.398C19.5208 13.398 19.7026 13.3287 19.8413 13.1899C20.1187 12.9124 20.1187 12.4624 19.8413 12.1849Z" fill="#59A7FF" />
</svg>