<svg width="20" height="26" viewBox="0 0 20 26" fill="none" xmlns="http://www.w3.org/2000/svg">
  <path fill-rule="evenodd" clip-rule="evenodd" d="M9.99311 7.9034C9.83845 7.9034 9.71191 7.79092 9.71191 7.6222V5.58354C9.71191 5.20392 10.2743 5.20392 10.2743 5.58354V7.6222C10.2743 7.77686 10.1478 7.9034 9.99311 7.9034Z" fill="#17C247" />
  <path fill-rule="evenodd" clip-rule="evenodd" d="M9.99291 7.90346C9.79608 7.90346 9.41646 7.45355 9.17745 7.20047C8.91031 6.9474 9.30399 6.53966 9.57112 6.8068L9.99291 7.22859C10.2741 6.9474 10.5553 6.55372 10.8224 6.8068C11.1036 7.08799 10.5834 7.42543 10.1898 7.8191C10.1335 7.87534 10.0632 7.90346 9.99291 7.90346Z" fill="#17C247" />
  <path d="M14.2046 4.40723C16.1545 4.32654 17.7966 5.01549 18.7759 6.30469L18.9624 6.57031L18.9634 6.57129C20.0715 8.32098 19.925 10.8146 18.605 13.4121C17.7481 15.0908 17.5381 15.7302 17.4761 16.3535C17.4442 16.6738 17.4516 16.9855 17.437 17.4453C17.4226 17.9 17.3868 18.4806 17.27 19.3125C17.0903 20.627 16.3974 22.2453 15.5366 23.4375C15.1061 24.0338 14.626 24.5339 14.1372 24.835C13.6477 25.1363 13.1275 25.2495 12.6431 25.0234L12.6411 25.0225C12.1672 24.7933 11.8606 24.2803 11.6743 23.8164C11.4871 23.3499 11.4038 22.8876 11.4038 22.708V18.7148C11.4037 17.1388 10.6514 16.4234 9.99756 16.4131C9.66585 16.4079 9.32138 16.5768 9.0542 16.9502C8.78598 17.3251 8.59625 17.9075 8.59619 18.7148V18.7158L8.58252 22.793V22.8027L8.58154 22.8115C8.54514 23.0954 8.42897 23.6628 8.1665 24.1641C7.90517 24.663 7.47502 25.1357 6.80127 25.1357C6.35397 25.1356 5.89736 24.9056 5.46826 24.5498C5.03642 24.1916 4.61579 23.6926 4.23877 23.123C3.48558 21.9852 2.8887 20.5408 2.71631 19.3125V19.3115C2.60307 18.4798 2.57054 17.8999 2.55811 17.4453C2.54553 16.9853 2.55296 16.6737 2.52197 16.3535C2.46166 15.7304 2.25308 15.0912 1.396 13.4121H1.39502C0.0751065 10.8147 -0.0714985 8.32095 1.03662 6.57129H1.0376C1.97243 5.11062 3.71649 4.32117 5.78174 4.40723L5.78076 4.4082C5.93045 4.40976 6.04712 4.47277 6.11963 4.58008C6.18685 4.67962 6.2065 4.80161 6.20654 4.9082C6.20654 6.99042 7.91051 8.69506 9.99268 8.69531C12.1023 8.69531 13.808 6.99167 13.7944 4.83887V4.83789C13.7946 4.61281 13.9608 4.41173 14.2046 4.4082V4.40723Z" fill="#DAEEFF" stroke="#050098" stroke-width="0.299941" />
  <path d="M5.78125 0.849609V0.850586C7.12059 0.906979 8.53763 1.28342 9.99219 1.9873C11.4598 1.28319 12.864 0.907086 14.2041 0.850586L14.2109 0.849609C14.3575 0.84963 14.4785 0.906241 14.5576 1.01172C14.6317 1.11044 14.6562 1.235 14.6562 1.35156C14.6562 3.92286 12.5644 6.01452 9.99316 6.01465C7.40707 6.01465 5.30029 3.87957 5.34375 1.29297C5.34498 1.0659 5.52947 0.849609 5.77539 0.849609H5.78125Z" fill="#DAEEFF" stroke="#050098" stroke-width="0.299941" />
  <path fill-rule="evenodd" clip-rule="evenodd" d="M12.9174 13.1195C12.7628 13.1195 12.6362 12.993 12.6362 12.8383V11.7698C12.6362 11.4042 13.1986 11.4042 13.1986 11.7698V12.8383C13.1986 12.993 13.0721 13.1195 12.9174 13.1195Z" fill="#CDD5F6" />
  <path fill-rule="evenodd" clip-rule="evenodd" d="M12.9174 15.8894C12.7628 15.8894 12.6362 15.7629 12.6362 15.6082V14.5538C12.6362 14.1741 13.1986 14.1741 13.1986 14.5538V15.6082C13.1986 15.7629 13.0721 15.8894 12.9174 15.8894Z" fill="#CDD5F6" />
  <path fill-rule="evenodd" clip-rule="evenodd" d="M14.8437 13.9772H13.7751C13.4096 13.9772 13.4096 13.4148 13.7751 13.4148H14.8437C15.2092 13.4148 15.2092 13.9772 14.8437 13.9772Z" fill="#CDD5F6" />
  <path fill-rule="evenodd" clip-rule="evenodd" d="M12.0599 13.9772H11.0054C10.6258 13.9772 10.6258 13.4148 11.0054 13.4148H12.0599C12.4395 13.4148 12.4395 13.9772 12.0599 13.9772Z" fill="#CDD5F6" />
  <path fill-rule="evenodd" clip-rule="evenodd" d="M2.76648 11.3623C2.63994 11.3623 2.52746 11.292 2.48528 11.1514C2.02131 9.37982 3.06173 7.56612 4.84732 7.07403C5.19881 6.97561 5.35347 7.52394 4.98792 7.62236C3.51164 8.01603 2.63994 9.54854 3.03361 11.0108C3.08985 11.2076 2.93519 11.3623 2.76648 11.3623Z" fill="#CDD5F6" />
  <path fill-rule="evenodd" clip-rule="evenodd" d="M17.0089 11.2075C16.8261 11.2075 16.6856 11.0247 16.7277 10.856C17.1214 9.36567 16.2497 7.86127 14.7734 7.45354C14.4219 7.35512 14.5625 6.82085 14.914 6.91927C16.6856 7.38324 17.74 9.18289 17.2761 10.9966C17.2479 11.1231 17.1355 11.2075 17.0089 11.2075Z" fill="#CDD5F6" />
</svg>