<svg width="22" height="22" viewBox="0 0 22 22" fill="none" xmlns="http://www.w3.org/2000/svg">
  <path d="M21.3422 12.4204C21.6353 12.0476 22 11.5836 22 11C22 10.4164 21.6353 9.95242 21.3422 9.57963C21.1918 9.38829 21.0047 9.1502 20.9779 9.01523C20.9484 8.86617 21.0291 8.57777 21.1003 8.3233C21.2326 7.85022 21.3825 7.31401 21.1649 6.78915C20.9438 6.25599 20.4535 5.98099 20.0209 5.73839C19.7945 5.61146 19.538 5.4676 19.4583 5.34854C19.3765 5.22638 19.3409 4.93182 19.3095 4.67195C19.2503 4.18206 19.1831 3.62678 18.7784 3.22205C18.3737 2.81729 17.8184 2.75009 17.3285 2.69083C17.0686 2.65942 16.7741 2.62376 16.6519 2.54195C16.5329 2.46224 16.389 2.20567 16.262 1.97931C16.0194 1.54666 15.7444 1.0563 15.2112 0.835184C14.6863 0.617461 14.1501 0.767379 13.6769 0.89968C13.4224 0.970836 13.1339 1.05149 12.9849 1.02201C12.8498 0.995285 12.6118 0.808113 12.4204 0.657723C12.0476 0.364719 11.5836 0 11 0C10.4164 0 9.95242 0.364719 9.57963 0.657766C9.38833 0.808156 9.1502 0.995328 9.01523 1.02205C8.866 1.05157 8.57772 0.970879 8.32335 0.89968C7.85026 0.767379 7.3141 0.617461 6.78915 0.835055C6.25604 1.05617 5.98099 1.54649 5.73839 1.9791C5.61146 2.20546 5.4676 2.46198 5.34858 2.54169C5.22638 2.62346 4.93187 2.65908 4.67199 2.69049C4.18211 2.7497 3.62682 2.81682 3.22205 3.22158C2.81729 3.62635 2.75013 4.18159 2.69088 4.67152C2.65946 4.93139 2.6238 5.22594 2.54203 5.34811C2.46232 5.46717 2.20571 5.61107 1.97931 5.73805C1.5467 5.98065 1.05634 6.25565 0.835184 6.78885C0.617504 7.31371 0.767422 7.84996 0.899723 8.32309C0.970836 8.57759 1.05149 8.86609 1.02201 9.01519C0.995328 9.15015 0.808113 9.38829 0.657723 9.57963C0.364676 9.95242 0 10.4164 0 11C0 11.5836 0.364719 12.0476 0.657766 12.4204C0.808156 12.6117 0.995328 12.8498 1.02205 12.9848C1.05157 13.1338 0.970879 13.4222 0.899723 13.6767C0.767379 14.1498 0.617461 14.686 0.835055 15.2109C1.05617 15.744 1.54649 16.019 1.9791 16.2616C2.20546 16.3885 2.46198 16.5324 2.54169 16.6515C2.62346 16.7736 2.65908 17.0682 2.69053 17.3281C2.74974 17.8179 2.81686 18.3732 3.22158 18.7779C3.62635 19.1827 4.18163 19.2499 4.67148 19.3092C4.93135 19.3406 5.2259 19.3762 5.34806 19.4581C5.46713 19.5378 5.61103 19.7943 5.73796 20.0207C5.98061 20.4533 6.25565 20.9437 6.78881 21.1648C7.31363 21.3825 7.84992 21.2326 8.32309 21.1003C8.57764 21.0292 8.8663 20.9486 9.01514 20.978C9.15015 21.0047 9.38824 21.1919 9.57958 21.3423C9.95238 21.6353 10.4164 22 11 22C11.5836 22 12.0476 21.6353 12.4204 21.3422C12.6117 21.1918 12.8498 21.0047 12.9848 20.9779C13.134 20.9484 13.4223 21.0291 13.6767 21.1003C14.1498 21.2327 14.6859 21.3826 15.2109 21.1649C15.744 20.9438 16.019 20.4535 16.2616 20.0209C16.3885 19.7945 16.5324 19.538 16.6514 19.4583C16.7736 19.3765 17.0681 19.3409 17.328 19.3095C17.8179 19.2503 18.3732 19.1832 18.7779 18.7784C19.1827 18.3737 19.2499 17.8184 19.3091 17.3285C19.3405 17.0686 19.3762 16.7741 19.458 16.6519C19.5377 16.5328 19.7943 16.3889 20.0207 16.262C20.4533 16.0194 20.9437 15.7444 21.1648 15.2112C21.3825 14.6863 21.2326 14.15 21.1003 13.6769C21.0292 13.4224 20.9485 13.1339 20.978 12.9848C21.0047 12.8498 21.1918 12.6117 21.3422 12.4204Z" fill="#FF7D47" />
  <path d="M12.4204 21.3422C12.6117 21.1918 12.8498 21.0047 12.9848 20.9779C13.134 20.9484 13.4223 21.0291 13.6767 21.1003C14.1498 21.2327 14.6859 21.3826 15.2109 21.1649C15.744 20.9438 16.019 20.4535 16.2616 20.0209C16.3885 19.7945 16.5324 19.538 16.6514 19.4583C16.7736 19.3765 17.0681 19.3409 17.328 19.3095C17.8179 19.2503 18.3732 19.1832 18.7779 18.7784C19.1827 18.3737 19.2499 17.8184 19.3091 17.3285C19.3405 17.0686 19.3762 16.7741 19.458 16.6519C19.5377 16.5328 19.7943 16.3889 20.0207 16.262C20.4533 16.0194 20.9437 15.7444 21.1648 15.2112C21.3825 14.6863 21.2326 14.15 21.1003 13.6769C21.0292 13.4224 20.9485 13.1339 20.978 12.9848C21.0047 12.8498 21.1919 12.6117 21.3423 12.4204C21.6353 12.0476 22 11.5836 22 11C22 10.4164 21.6353 9.95242 21.3422 9.57963C21.1918 9.38829 21.0047 9.1502 20.9779 9.01523C20.9484 8.86617 21.0291 8.57777 21.1003 8.3233C21.2326 7.85022 21.3825 7.31401 21.1649 6.78915C20.9438 6.25599 20.4535 5.98099 20.0209 5.73839C19.7945 5.61146 19.538 5.4676 19.4583 5.34854C19.3765 5.22638 19.3409 4.93182 19.3095 4.67195C19.2503 4.18206 19.1831 3.62678 18.7784 3.22205C18.3737 2.81729 17.8184 2.75009 17.3285 2.69083C17.0686 2.65942 16.7741 2.62376 16.6519 2.54195C16.5329 2.46224 16.389 2.20567 16.262 1.97931C16.0194 1.54666 15.7444 1.0563 15.2112 0.835184C14.6863 0.617461 14.1501 0.767379 13.6769 0.89968C13.4224 0.970836 13.1339 1.05149 12.9849 1.02201C12.8498 0.995285 12.6118 0.808113 12.4204 0.657723C12.0476 0.364719 11.5836 0 11 0V22C11.5836 22 12.0476 21.6353 12.4204 21.3422Z" fill="#FF405C" />
  <path d="M11 18.0898C14.9156 18.0898 18.0898 14.9156 18.0898 11C18.0898 7.08439 14.9156 3.91016 11 3.91016C7.08439 3.91016 3.91016 7.08439 3.91016 11C3.91016 14.9156 7.08439 18.0898 11 18.0898Z" fill="#F9F9F9" />
  <path d="M18.0898 11C18.0898 7.08439 14.9156 3.91016 11 3.91016V18.0898C14.9156 18.0898 18.0898 14.9156 18.0898 11Z" fill="#E2DFF4" />
  <path d="M11 18.7344C6.73527 18.7344 3.26562 15.2647 3.26562 11C3.26562 6.73527 6.73527 3.26562 11 3.26562C15.2647 3.26562 18.7344 6.73527 18.7344 11C18.7344 15.2647 15.2647 18.7344 11 18.7344ZM11 4.55469C7.44605 4.55469 4.55469 7.44605 4.55469 11C4.55469 14.5539 7.44605 17.4453 11 17.4453C14.5539 17.4453 17.4453 14.5539 17.4453 11C17.4453 7.44605 14.5539 4.55469 11 4.55469Z" fill="#FF7D47" />
  <path d="M17.4453 11C17.4453 14.5539 14.5539 17.4453 11 17.4453V18.7344C15.2647 18.7344 18.7344 15.2647 18.7344 11C18.7344 6.73527 15.2647 3.26562 11 3.26562V4.55469C14.5539 4.55469 17.4453 7.44605 17.4453 11Z" fill="#FF405C" />
  <path d="M8.42188 7.99219C8.42188 8.70414 8.99899 9.28125 9.71094 9.28125H10.1406V14.0078C10.1406 14.7198 10.7177 15.2969 11.4297 15.2969C12.1416 15.2969 12.7188 14.7198 12.7188 14.0078V7.99219C12.7188 7.28024 12.1416 6.70312 11.4297 6.70312H9.71094C8.99899 6.70312 8.42188 7.28024 8.42188 7.99219Z" fill="#613393" />
  <path d="M11.4297 6.70312H11V15.2232C11.1344 15.2708 11.279 15.2969 11.4297 15.2969C12.1416 15.2969 12.7188 14.7198 12.7188 14.0078V7.99219C12.7188 7.28024 12.1416 6.70312 11.4297 6.70312Z" fill="#2B0552" />
</svg>