<svg width="24" height="24" viewBox="0 0 24 24" fill="none" xmlns="http://www.w3.org/2000/svg">
  <g clip-path="url(#clip0_11833_59555)">
    <path d="M12 24C18.6274 24 24 18.6274 24 12C24 5.37258 18.6274 0 12 0C5.37258 0 0 5.37258 0 12C0 18.6274 5.37258 24 12 24Z" fill="#82D2FF" />
    <path d="M24 12C24 18.6274 18.6274 24 12 24C12 20.8099 12 2.05697 12 0C18.6274 0 24 5.37258 24 12Z" fill="#08B7FC" />
    <path d="M5.63739 13.8457C4.97861 11.5686 5.58358 9.0499 7.31673 7.31675C8.35262 6.28086 9.66536 5.63056 11.113 5.43612C12.5154 5.24792 13.9657 5.51811 15.197 6.19733L15.8762 4.96592C14.3828 4.14219 12.6248 3.8143 10.9258 4.04239C9.16994 4.27822 7.57811 5.06666 6.32233 6.32239C4.21459 8.43022 3.48344 11.4967 4.29484 14.2647L3.13056 13.7463L2.55859 15.0309L5.97236 16.5509L7.49223 13.137L6.20758 12.5651L5.63739 13.8457Z" fill="white" />
    <path d="M21.4416 8.96919L18.0279 7.44922L16.508 10.8631L17.7926 11.435L18.3628 10.1543C19.0216 12.4314 18.4166 14.9502 16.6835 16.6833C15.6476 17.7192 14.3349 18.3695 12.8872 18.5639C11.4848 18.7522 10.0346 18.482 8.80324 17.8027L8.12402 19.0341C9.30762 19.687 10.6573 20.0285 12.0123 20.0285C12.3669 20.0285 12.722 20.005 13.0744 19.9577C14.8303 19.7218 16.4221 18.9334 17.6779 17.6777C19.7857 15.5698 20.5168 12.5033 19.7054 9.73541L20.8697 10.2538L21.4416 8.96919Z" fill="white" />
    <path d="M15.1969 6.19698L15.8761 4.96557C14.6961 4.31471 13.3508 3.9737 12 3.97168V5.37765C13.1145 5.37929 14.2241 5.66035 15.1969 6.19698Z" fill="white" />
    <path d="M21.4415 8.96919L18.0278 7.44922L16.5079 10.8631L17.7925 11.435L18.3627 10.1543C19.0215 12.4314 18.4165 14.9502 16.6834 16.6833C15.6475 17.7192 14.3347 18.3695 12.8871 18.5639C12.5927 18.6035 12.2962 18.6225 12 18.6221V20.0282C12.004 20.0282 12.0081 20.0284 12.0121 20.0284C12.3667 20.0284 12.7218 20.005 13.0743 19.9576C14.8301 19.7218 16.422 18.9334 17.6777 17.6776C19.7856 15.5698 20.5167 12.5033 19.7053 9.73536L20.8695 10.2537L21.4415 8.96919Z" fill="white" />
  </g>
  <defs>
    <clipPath id="clip0_11833_59555">
      <rect width="24" height="24" fill="white" />
    </clipPath>
  </defs>
</svg>