<svg width="24" height="24" viewBox="0 0 24 24" fill="none" xmlns="http://www.w3.org/2000/svg">
  <g clip-path="url(#clip0_11833_43792)">
    <path d="M22.6279 20.6509L12.0859 16.7651L12 16.7339L1.42381 20.6152L1.36521 20.646C1.17424 20.7809 1.01861 20.9599 0.911512 21.1677C0.804418 21.3756 0.74902 21.6062 0.750013 21.84C0.749161 22.2125 0.896069 22.5701 1.15852 22.8344C1.42097 23.0987 1.77753 23.2482 2.15001 23.25H21.85C22.0369 23.2486 22.2216 23.2101 22.3934 23.1368C22.5653 23.0635 22.7209 22.9567 22.8511 22.8227C22.9814 22.6887 23.0837 22.5302 23.1522 22.3564C23.2207 22.1825 23.2539 21.9968 23.25 21.81C23.2508 21.5803 23.1944 21.354 23.0858 21.1516C22.9771 20.9493 22.8198 20.7772 22.6279 20.6509Z" fill="#FA8F82" />
    <path d="M3.21019 16.7499H2.02659C1.71528 16.751 1.41548 16.8677 1.18551 17.0776C0.955546 17.2874 0.811854 17.5753 0.782388 17.8852C0.657413 19.0558 0.88527 20.2371 1.43669 21.2772C1.55728 21.526 1.73403 21.7434 1.95298 21.9122C2.17193 22.081 2.42711 22.1966 2.69839 22.2499C2.96961 22.1966 3.22476 22.081 3.44372 21.9123C3.66268 21.7436 3.83948 21.5264 3.96019 21.2777C4.1641 20.8924 4.32507 20.4858 4.44019 20.0653C4.63216 19.3556 4.69172 18.6166 4.61589 17.8853C4.57351 17.5512 4.40352 17.2464 4.1415 17.0348C3.87949 16.8231 3.54576 16.7211 3.21019 16.7499Z" fill="#EDF2FF" />
    <path d="M3.31987 22C3.14318 22.144 2.92704 22.2312 2.69987 22.25C2.42883 22.1976 2.17379 22.0826 1.95504 21.9142C1.73629 21.7458 1.55989 21.5286 1.43987 21.28C1.2321 20.8973 1.07095 20.4911 0.959867 20.07C0.765478 19.3607 0.704444 18.6215 0.779867 17.89C0.809315 17.5786 0.953649 17.2894 1.18474 17.0786C1.41583 16.8679 1.71711 16.7507 2.02987 16.75H3.24987C2.94251 16.7587 2.64891 16.8793 2.42425 17.0892C2.19958 17.2992 2.05934 17.5839 2.02987 17.89C1.95444 18.6215 2.01548 19.3607 2.20987 20.07C2.32095 20.4911 2.4821 20.8973 2.68987 21.28C2.84109 21.5657 3.05679 21.8122 3.31987 22Z" fill="#D5E1F7" />
    <path d="M6.57916 16.7498H5.39456C5.0832 16.7508 4.78333 16.8676 4.5533 17.0774C4.32327 17.2873 4.17954 17.5752 4.15006 17.8851C4.02509 19.0557 4.25295 20.237 4.80436 21.2771C4.92495 21.5259 5.10169 21.7433 5.32065 21.9121C5.5396 22.0809 5.79478 22.1965 6.06606 22.2498C6.33743 22.1964 6.5927 22.0808 6.81181 21.912C7.03091 21.7432 7.20787 21.5259 7.32876 21.2771C7.53244 20.8922 7.69292 20.4859 7.80726 20.0657C7.99994 19.356 8.05955 18.6166 7.98306 17.8851C7.94088 17.5513 7.77119 17.2466 7.50952 17.035C7.24785 16.8234 6.91447 16.7212 6.57916 16.7498Z" fill="#EDF2FF" />
    <path d="M6.68803 22C6.51134 22.144 6.29519 22.2312 6.06803 22.25C5.797 22.1976 5.54195 22.0826 5.3232 21.9142C5.10446 21.7458 4.92805 21.5286 4.80803 21.28C4.60026 20.8973 4.43912 20.4911 4.32803 20.07C4.13364 19.3607 4.07261 18.6215 4.14803 17.89C4.17748 17.5786 4.32181 17.2894 4.5529 17.0786C4.78399 16.8679 5.08527 16.7507 5.39803 16.75H6.61803C6.31067 16.7587 6.01705 16.8793 5.79239 17.0892C5.56772 17.2992 5.42748 17.5839 5.39803 17.89C5.32261 18.6215 5.38364 19.3607 5.57803 20.07C5.68912 20.4911 5.85026 20.8973 6.05803 21.28C6.20925 21.5657 6.42495 21.8122 6.68803 22Z" fill="#D5E1F7" />
    <path d="M23.2179 17.8857C23.1762 17.5515 23.0066 17.2465 22.7447 17.0347C22.4829 16.8229 22.1491 16.7209 21.8136 16.75H20.6301C20.3187 16.7512 20.0188 16.868 19.7887 17.0779C19.5586 17.2878 19.4147 17.5757 19.385 17.8857C19.2609 19.0562 19.489 20.2372 20.0402 21.2773C20.1608 21.5261 20.3376 21.7434 20.5566 21.9122C20.7755 22.081 21.0307 22.1967 21.302 22.25C21.5732 22.1967 21.8284 22.0811 22.0473 21.9124C22.2662 21.7437 22.443 21.5265 22.5637 21.2778C23.1148 20.2375 23.3425 19.0563 23.2179 17.8857Z" fill="#EDF2FF" />
    <path d="M21.9229 22C21.7462 22.144 21.5301 22.2312 21.3029 22.25C21.0319 22.1975 20.7769 22.0825 20.5581 21.9141C20.3394 21.7457 20.163 21.5286 20.0429 21.28C19.8351 20.8973 19.674 20.4911 19.5629 20.07C19.3685 19.3607 19.3075 18.6215 19.3829 17.89C19.4123 17.5786 19.5567 17.2894 19.7878 17.0786C20.0189 16.8678 20.3202 16.7507 20.6329 16.75H21.8529C21.5456 16.7586 21.2519 16.8793 21.0273 17.0892C20.8026 17.2991 20.6624 17.5839 20.6329 17.89C20.5575 18.6215 20.6185 19.3607 20.8129 20.07C20.924 20.4911 21.0851 20.8973 21.2929 21.28C21.4441 21.5657 21.6598 21.8122 21.9229 22Z" fill="#D5E1F7" />
    <path d="M7.80997 20.0698C7.69272 20.4888 7.53184 20.8943 7.32997 21.2798C7.27267 21.3857 7.20572 21.4862 7.12997 21.5798C7.00594 21.4285 6.91101 21.2556 6.84997 21.0698C6.75885 20.8658 6.59982 20.6997 6.39997 20.5998C6.20311 20.4914 6.03896 20.3321 5.92463 20.1386C5.81031 19.9451 5.75 19.7245 5.75 19.4998C5.75 19.275 5.81031 19.0544 5.92463 18.8609C6.03896 18.6675 6.20311 18.5082 6.39997 18.3998C6.6086 18.2812 6.78134 18.1084 6.89997 17.8998C6.9875 17.7424 7.10778 17.6056 7.25269 17.4986C7.3976 17.3917 7.56376 17.3171 7.73997 17.2798C7.87621 17.4562 7.95945 17.6678 7.97997 17.8898C8.05914 18.6207 8.00149 19.36 7.80997 20.0698Z" fill="#F0E486" />
    <path d="M19.8499 17.8857C19.8082 17.5515 19.6385 17.2464 19.3766 17.0346C19.1146 16.8228 18.7808 16.7208 18.4452 16.75H17.2616C16.9502 16.7512 16.6503 16.8681 16.4202 17.078C16.1901 17.2878 16.0462 17.5757 16.0165 17.8857C15.8933 19.0563 16.121 20.2371 16.6708 21.2778C16.7918 21.5265 16.9688 21.7437 17.1879 21.9123C17.407 22.081 17.6622 22.1966 17.9335 22.25C18.2047 22.1967 18.4598 22.0812 18.6788 21.9125C18.8977 21.7437 19.0745 21.5265 19.1952 21.2778C19.7463 20.2375 19.9745 19.0564 19.8499 17.8857Z" fill="#EDF2FF" />
    <path d="M18.5547 22C18.378 22.144 18.1619 22.2312 17.9347 22.25C17.6637 22.1976 17.4087 22.0826 17.1899 21.9142C16.9712 21.7458 16.7948 21.5286 16.6747 21.28C16.467 20.8973 16.3058 20.4911 16.1947 20.07C16.0003 19.3607 15.9393 18.6215 16.0147 17.89C16.0442 17.5786 16.1885 17.2894 16.4196 17.0786C16.6507 16.8679 16.952 16.7507 17.2647 16.75H18.4847C18.1774 16.7587 17.8838 16.8793 17.6591 17.0892C17.4344 17.2992 17.2942 17.5839 17.2647 17.89C17.1893 18.6215 17.2503 19.3607 17.4447 20.07C17.5558 20.4911 17.717 20.8973 17.9247 21.28C18.076 21.5657 18.2917 21.8122 18.5547 22Z" fill="#D5E1F7" />
    <path d="M19.7698 19.6098C19.746 19.7651 19.7126 19.9187 19.6698 20.0698C19.5577 20.4891 19.4001 20.8949 19.1998 21.2798C19.0767 21.5281 18.8981 21.7447 18.6779 21.9129C18.4577 22.0811 18.2017 22.1964 17.9298 22.2498C17.6598 22.1947 17.406 22.0786 17.1876 21.9105C16.9693 21.7425 16.7922 21.5267 16.6698 21.2798C16.4679 20.8944 16.307 20.4889 16.1898 20.0698C15.9983 19.36 15.9406 18.6208 16.0198 17.8898C16.0182 17.8726 16.0217 17.8552 16.0298 17.8398C16.2498 17.9053 16.454 18.0154 16.6295 18.1634C16.805 18.3114 16.9481 18.494 17.0498 18.6998C17.0594 18.7307 17.0752 18.7592 17.0963 18.7836C17.1174 18.808 17.1433 18.8279 17.1723 18.842C17.2014 18.856 17.233 18.864 17.2652 18.8653C17.2975 18.8667 17.3297 18.8614 17.3598 18.8498C17.5662 18.7818 17.7824 18.748 17.9998 18.7498C18.3405 18.751 18.6765 18.8289 18.9829 18.9778C19.2894 19.1267 19.5583 19.3427 19.7698 19.6098Z" fill="#F0E486" />
    <path d="M18.5498 21.9998C18.3732 22.1439 18.157 22.231 17.9298 22.2498C17.6588 22.1974 17.4038 22.0824 17.185 21.914C16.9663 21.7456 16.7899 21.5285 16.6698 21.2798C16.4621 20.8971 16.3009 20.4909 16.1898 20.0698C15.9955 19.3606 15.9344 18.6214 16.0098 17.8898C16.0083 17.8726 16.0118 17.8552 16.0198 17.8398C16.2421 17.9033 16.4485 18.0126 16.6259 18.1607C16.8034 18.3089 16.9478 18.4925 17.0498 18.6998C17.0624 18.7412 17.0874 18.7778 17.1213 18.8046C17.1553 18.8314 17.1967 18.8472 17.2398 18.8498C17.2617 19.2626 17.3288 19.6717 17.4398 20.0698C17.5509 20.4909 17.7121 20.8971 17.9198 21.2798C18.0711 21.5655 18.2868 21.812 18.5498 21.9998Z" fill="#D9CE79" />
    <path d="M14.9012 10.5029H14.8872" stroke="#231F20" stroke-width="0.5" stroke-linecap="round" stroke-linejoin="round" />
    <path d="M15.304 7.49707H15.29" stroke="#231F20" stroke-width="0.5" stroke-linecap="round" stroke-linejoin="round" />
    <path d="M22.7501 14.5C22.7461 13.9001 22.5043 13.3263 22.0778 12.9045C21.6512 12.4826 21.0747 12.2473 20.4748 12.25C19.909 12.2768 19.3497 12.1193 18.881 11.8011L18.7036 11.6665L17.6626 12.7517L17.8708 12.9233C18.6094 13.4957 19.5265 13.7885 20.4601 13.75C20.6755 13.7535 20.8811 13.8405 21.0336 13.9927C21.1014 14.0588 21.1554 14.1377 21.1925 14.2248C21.2296 14.312 21.2491 14.4056 21.2497 14.5003C21.2502 14.635 21.2144 14.7674 21.1461 14.8835C21.0778 14.9996 20.9795 15.0952 20.8616 15.1603C20.6922 15.2303 20.5456 15.3458 20.4379 15.4941C20.3302 15.6424 20.2657 15.8176 20.2516 16.0003C20.2494 16.1107 20.273 16.2202 20.3204 16.3199C20.3679 16.4197 20.438 16.507 20.5251 16.5749C20.5987 16.6324 20.6846 16.672 20.776 16.6907C20.8675 16.7095 20.962 16.7068 21.0523 16.6829C21.538 16.5602 21.9688 16.2787 22.2764 15.8833C22.584 15.4878 22.7507 15.001 22.7501 14.5Z" fill="#D2DFFF" />
    <path d="M19.8102 13.6899L19.7902 13.7099C19.0878 13.6356 18.4215 13.3614 17.8702 12.9199L17.6602 12.7499L18.7002 11.6699L18.8802 11.7999C19.159 12.0029 19.4805 12.1397 19.8202 12.1999C19.8502 12.2299 19.8702 12.2699 19.9002 12.2999C20.0545 12.5038 20.1303 12.7565 20.1138 13.0117C20.0973 13.2669 19.9895 13.5076 19.8102 13.6899Z" fill="#9DC5F0" />
    <path d="M18.7701 11.2922C15.8309 7.51562 12.5605 4.00888 8.99782 0.813712L8.92662 0.749512L4.87012 0.750912L5.21652 1.16141C6.67482 2.89081 8.22472 4.57821 9.82332 6.17671C12.1744 8.52663 14.6688 10.7287 17.2921 12.7702C17.4951 12.9251 17.7474 13.0011 18.0022 12.984C18.257 12.967 18.4969 12.8581 18.6774 12.6775C18.858 12.497 18.9669 12.2571 18.9839 12.0023C19.001 11.7475 18.925 11.4952 18.7701 11.2922Z" fill="#B7CBFF" />
    <path d="M18.9001 12.35C18.8458 12.4715 18.7714 12.5831 18.6801 12.68C18.4978 12.8593 18.2571 12.9671 18.0019 12.9836C17.7467 13.0002 17.494 12.9243 17.2901 12.77C14.6665 10.7296 12.1718 8.5287 9.82012 6.18C8.22012 4.58 6.67012 2.89 5.22012 1.16L4.87012 0.75H7.00012L7.35012 1.16C8.80012 2.89 10.3501 4.58 11.9501 6.18C14.1426 8.37241 16.4634 10.4327 18.9001 12.35Z" fill="#71A5DE" />
    <path d="M16.3592 8.34136C16.0737 7.99846 15.7812 7.66386 15.4743 7.32866L15.4007 7.24756H10.9219L11.3691 7.67756C11.7309 8.02556 12.0862 8.35256 12.4408 8.67886L12.5122 8.74406L16.7022 8.75276L16.3592 8.34136Z" fill="#A6D5FF" />
    <path d="M17.2011 9.33906C16.9242 9.00556 16.6469 8.67096 16.3562 8.33746L16.2816 8.25176L11.9702 8.24316L12.4402 8.67786C12.8165 9.02516 13.1929 9.35876 13.562 9.68566L13.632 9.74786H17.5401L17.2011 9.33906Z" fill="#6593A6" />
    <path d="M18.0176 10.3411C17.7541 10.0066 17.4841 9.68004 17.2 9.33854L17.1254 9.24854H13.0513L14.8093 10.7525L18.3363 10.7446L18.0176 10.3411Z" fill="#A6D5FF" />
    <path d="M14.9843 15.75H13.0136C12.6936 15.7512 12.3861 15.8745 12.1541 16.0949C11.9221 16.3153 11.7831 16.616 11.7655 16.9355C11.7264 17.6384 11.7614 18.3435 11.87 19.0391C11.982 19.7463 12.1706 20.4391 12.4325 21.1055C12.5664 21.4431 12.7986 21.7327 13.099 21.9367C13.3995 22.1408 13.7543 22.2499 14.1175 22.2499C14.4807 22.2499 14.8355 22.1408 15.1359 21.9367C15.4364 21.7327 15.6686 21.4431 15.8025 21.1055C16.3226 19.7798 16.5502 18.3573 16.4695 16.9355C16.452 16.7593 16.3993 16.5883 16.3147 16.4328C16.2301 16.2772 16.1152 16.1401 15.9768 16.0296C15.8384 15.9191 15.6793 15.8375 15.5088 15.7895C15.3384 15.7414 15.16 15.728 14.9843 15.75Z" fill="#EDF2FF" />
    <path d="M14.8652 22.09C14.629 22.1947 14.3736 22.2492 14.1152 22.25C13.7528 22.2521 13.3982 22.1443 13.0983 21.9408C12.7983 21.7373 12.5672 21.4476 12.4352 21.11C12.1754 20.4419 11.9877 19.748 11.8752 19.04C11.7636 18.3459 11.7267 17.6419 11.7652 16.94C11.7827 16.6197 11.9219 16.3182 12.1542 16.097C12.3865 15.8759 12.6945 15.7517 13.0152 15.75H14.4952C14.1751 15.7505 13.8674 15.8745 13.6364 16.0961C13.4054 16.3178 13.2689 16.6201 13.2552 16.94C13.2134 17.6416 13.2469 18.3456 13.3552 19.04C13.4677 19.748 13.6554 20.4419 13.9152 21.11C14.0003 21.3284 14.1282 21.5276 14.2913 21.6959C14.4544 21.8642 14.6496 21.9982 14.8652 22.09Z" fill="#D5E1F7" />
    <path d="M16.47 18.0401C16.45 18.3801 16.41 18.7101 16.36 19.0401C16.2475 19.7481 16.0598 20.442 15.8 21.1101C15.6778 21.4257 15.4679 21.6998 15.1951 21.9001C14.9222 22.1003 14.5977 22.2183 14.26 22.2401C13.9357 21.9085 13.7528 21.4639 13.75 21.0001C13.7509 20.8449 13.771 20.6904 13.81 20.5401C13.86 20.35 13.86 20.1502 13.81 19.9601C13.771 19.8098 13.7509 19.6553 13.75 19.5001C13.7522 19.0367 13.9373 18.5928 14.265 18.2651C14.5927 17.9374 15.0366 17.7523 15.5 17.7501C15.8452 17.7463 16.1835 17.8475 16.47 18.0401Z" fill="#F0E486" />
    <path d="M10.749 15.7502H8.77834C8.45837 15.7515 8.15097 15.8749 7.91896 16.0952C7.68695 16.3156 7.54783 16.6162 7.53004 16.9357C7.44934 18.3575 7.67687 19.78 8.19704 21.1057C8.33094 21.4433 8.56317 21.7329 8.86361 21.9369C9.16405 22.141 9.51886 22.2501 9.88204 22.2501C10.2452 22.2501 10.6 22.141 10.9005 21.9369C11.2009 21.7329 11.4331 21.4433 11.567 21.1057C11.8289 20.4393 12.0175 19.7464 12.1295 19.0393C12.2381 18.3437 12.2731 17.6386 12.234 16.9357C12.2168 16.7594 12.1643 16.5883 12.0798 16.4327C11.9952 16.277 11.8804 16.1398 11.7419 16.0293C11.6035 15.9188 11.4443 15.8371 11.2737 15.7892C11.1032 15.7413 10.9248 15.728 10.749 15.7502Z" fill="#EDF2FF" />
    <path d="M10.6299 22.09C10.3937 22.1947 10.1383 22.2492 9.87989 22.25C9.51744 22.2521 9.16285 22.1443 8.86292 21.9408C8.56299 21.7373 8.33182 21.4476 8.19989 21.11C7.94009 20.4419 7.75236 19.748 7.63989 19.04C7.52827 18.3459 7.4914 17.6419 7.52989 16.94C7.54744 16.6197 7.68657 16.3182 7.91888 16.0971C8.15119 15.8759 8.45915 15.7518 8.77989 15.75H10.2599C9.93973 15.7505 9.6321 15.8745 9.4011 16.0962C9.1701 16.3179 9.03354 16.6201 9.01989 16.94C8.97806 17.6416 9.01158 18.3456 9.11989 19.04C9.23236 19.748 9.42009 20.4419 9.67989 21.11C9.76495 21.3284 9.8928 21.5276 10.0559 21.6959C10.2191 21.8642 10.4142 21.9982 10.6299 22.09Z" fill="#D5E1F7" />
    <path d="M10.2498 20.5C10.2487 20.8437 10.1467 21.1794 9.95653 21.4656C9.76632 21.7518 9.49625 21.9759 9.17985 22.11C8.95749 22.018 8.75603 21.882 8.58761 21.7102C8.41919 21.5383 8.28729 21.3342 8.19985 21.11C7.94004 20.4419 7.75231 19.748 7.63985 19.04C7.55109 18.4811 7.50761 17.9159 7.50985 17.35C7.66545 17.2862 7.83168 17.2523 7.99985 17.25C8.164 17.25 8.32655 17.2823 8.4782 17.3451C8.62986 17.408 8.76766 17.5 8.88373 17.6161C8.9998 17.7322 9.09188 17.87 9.1547 18.0216C9.21751 18.1733 9.24985 18.3358 9.24985 18.5C9.24722 18.615 9.23043 18.7292 9.19985 18.84C9.259 18.9089 9.33015 18.9665 9.40985 19.01C9.66715 19.1641 9.87991 19.3825 10.0272 19.6437C10.1745 19.905 10.2512 20.2001 10.2498 20.5Z" fill="#F0E486" />
    <path d="M9.91985 21.5201C9.73073 21.7797 9.47508 21.9835 9.17985 22.1101C8.95749 22.0181 8.75603 21.8821 8.58761 21.7103C8.41919 21.5384 8.28729 21.3343 8.19985 21.1101C7.94004 20.442 7.75231 19.748 7.63985 19.0401C7.55109 18.4812 7.50761 17.916 7.50985 17.3501C7.66545 17.2863 7.83168 17.2524 7.99985 17.2501C8.19784 17.2478 8.39338 17.294 8.56942 17.3847C8.74547 17.4753 8.89667 17.6076 9.00985 17.7701C9.01128 18.1957 9.04807 18.6205 9.11985 19.0401C9.23231 19.748 9.42005 20.442 9.67985 21.1101C9.73792 21.2585 9.8189 21.3968 9.91985 21.5201Z" fill="#D9CE79" />
  </g>
  <defs>
    <clipPath id="clip0_11833_43792">
      <rect width="24" height="24" fill="white" />
    </clipPath>
  </defs>
</svg>