<svg width="24" height="24" viewBox="0 0 24 24" fill="none" xmlns="http://www.w3.org/2000/svg">
  <path d="M15.3284 13.383L14.5784 20.672C14.4323 22.0928 13.4286 23.2502 12.0003 23.2502C10.572 23.2502 9.56839 22.0928 9.4222 20.672L8.6722 13.383C8.52601 11.9622 15.4746 11.9622 15.3284 13.383Z" fill="#40344F" />
  <path d="M19.8753 11.4719V12.3047C19.8753 13.3435 19.039 14.1797 18.0003 14.1797H5.86279C4.82404 14.1797 3.98779 13.3435 3.98779 12.3047V11.4719C3.98779 10.4332 19.8753 10.4332 19.8753 11.4719Z" fill="#59586E" />
  <path d="M16.1792 0.506836C16.5649 0.518158 16.9473 0.575415 17.3218 0.685547C19.0226 1.18606 20.2978 2.62184 21.0132 4.50098C21.7293 6.38203 21.8969 8.73206 21.3706 11.1221L21.3677 11.1328C21.3133 11.3357 21.2076 11.6153 21.0005 11.8477C20.7861 12.0881 20.4701 12.2685 20.0298 12.2686H3.96729C3.64555 12.2685 3.36074 12.1568 3.13525 11.9512C2.91324 11.7485 2.75972 11.4654 2.67139 11.1357L2.66846 11.125C2.14134 8.73423 2.30889 6.38373 3.0249 4.50195C3.74022 2.62211 5.01493 1.18509 6.71631 0.68457C8.80365 0.0703534 10.7675 1.1133 12.0181 2.28027C13.208 1.16132 14.5709 0.538266 15.9224 0.50293L16.1792 0.496094V0.506836Z" fill="#DAEEFF" stroke="#050098" stroke-width="0.5" />
  <path d="M10.0112 1.22437C9.85815 2.40616 9.0507 3.70619 8.61811 3.80945C7.92382 3.97518 8.23873 4.77433 9.07102 4.67115C10.9426 4.43912 12.0003 2.62256 12.0003 2.62256C11.4657 2.09003 10.7835 1.57785 10.0112 1.22437Z" fill="#C0E0FF" />
  <path d="M8.48289 16.6502L14.8859 18.3659C15.4358 18.5132 15.9971 18.1891 16.1445 17.6392C16.2918 17.0893 15.9678 16.528 15.4178 16.3806L9.01483 14.6649C8.46492 14.5176 7.90359 14.8417 7.75624 15.3916C7.6089 15.9415 7.93298 16.5028 8.48289 16.6502Z" fill="#59586E" />
  <path d="M8.70875 19.9304L14.3618 21.2711C14.9157 21.4025 15.473 21.0944 15.6204 20.5445C15.7677 19.9945 15.4476 19.4172 14.8937 19.2859L9.24069 17.9452C8.68675 17.8138 8.12945 18.1219 7.9821 18.6718C7.83475 19.2217 8.1548 19.7991 8.70875 19.9304Z" fill="#59586E" />
</svg>