<svg width="20" height="20" viewBox="0 0 20 20" fill="none" xmlns="http://www.w3.org/2000/svg">
  <path d="M5.88379 11.7144L8.32422 14.1558L8.42969 14.2622L4.01074 18.6812C3.65895 19.0327 3.18192 19.23 2.68457 19.23C2.18726 19.2299 1.7101 19.0327 1.3584 18.6812C1.00678 18.3295 0.808776 17.8522 0.808594 17.355C0.80854 16.8576 1.00674 16.3796 1.3584 16.0278L5.77734 11.6089L5.88379 11.7144ZM2.4541 16.9897C2.35591 17.0093 2.26513 17.0576 2.19434 17.1284C2.12378 17.1991 2.0762 17.2893 2.05664 17.3872C2.03711 17.4854 2.04665 17.5877 2.08496 17.6802C2.12324 17.7725 2.18838 17.8511 2.27148 17.9067C2.35472 17.9624 2.45262 17.9927 2.55273 17.9927C2.61914 17.9927 2.68473 17.979 2.74609 17.9536C2.80751 17.9282 2.86413 17.8912 2.91113 17.8442C2.95801 17.7973 2.99511 17.7415 3.02051 17.6802C3.04588 17.6189 3.05854 17.5531 3.05859 17.4868C3.05859 17.3868 3.02912 17.2887 2.97363 17.2056C2.91801 17.1223 2.83859 17.0574 2.74609 17.019C2.65369 16.9808 2.55219 16.9703 2.4541 16.9897Z" fill="#7A89EB" stroke="#050098" stroke-width="0.3" />
  <path d="M8.229 0.849609C8.27051 0.849539 8.31173 0.858172 8.3501 0.874023C8.38843 0.88988 8.42331 0.913052 8.45264 0.942383L9.03857 1.52832L8.94678 1.63379C8.94618 1.63448 8.94414 1.63621 8.94287 1.6377C8.94033 1.64066 8.93625 1.64536 8.93115 1.65137C8.92087 1.6635 8.90605 1.68208 8.88623 1.70605C8.84624 1.75443 8.78732 1.82666 8.71436 1.91992C8.56847 2.10641 8.36449 2.378 8.1333 2.71777C7.67008 3.39858 7.09883 4.35021 6.66455 5.43555C5.79448 7.61013 5.48593 10.281 7.62158 12.417C9.75746 14.5529 12.4284 14.245 14.603 13.375C15.6883 12.9408 16.64 12.3695 17.3208 11.9062C17.6609 11.6748 17.9331 11.4702 18.1196 11.3242C18.2128 11.2513 18.2852 11.1933 18.3335 11.1533C18.3576 11.1334 18.3761 11.1177 18.3882 11.1074C18.3941 11.1024 18.3989 11.0982 18.4019 11.0957C18.403 11.0947 18.4042 11.0943 18.4048 11.0938L18.4058 11.0928L18.5112 11.001L19.0972 11.5869C19.1264 11.6162 19.1497 11.6512 19.1655 11.6895C19.1814 11.7278 19.1891 11.769 19.189 11.8105C19.1889 11.8521 19.1806 11.8933 19.1646 11.9316C19.1565 11.9508 19.1468 11.9692 19.1353 11.9863L19.0952 12.0342C16.5348 14.5458 13.8646 15.6025 11.5073 15.6025C10.0105 15.6025 7.97395 15.0095 6.46924 13.5752L6.46338 13.5703V13.5693C5.0295 12.0647 4.43604 10.0288 4.43604 8.53223C4.43604 6.17498 5.49283 3.50482 8.00439 0.944336L8.00537 0.943359C8.03453 0.913932 8.06971 0.891031 8.10791 0.875C8.14623 0.858955 8.18746 0.849724 8.229 0.849609Z" fill="#79A5FF" stroke="#050098" stroke-width="0.3" />
  <path d="M16.941 9.64284L18.5037 11.2055C16.0334 13.676 13.4956 14.7002 11.3152 14.7002C7.88067 14.7002 5.33301 12.1588 5.33301 8.72542C5.33301 6.54723 6.35843 4.01007 8.83334 1.53516L10.396 3.09786L12.3908 7.64811L16.941 9.64284ZM16.6905 11.5373C16.7561 11.5373 16.8202 11.5178 16.8747 11.4814C16.9292 11.445 16.9717 11.3932 16.9968 11.3326C17.0219 11.272 17.0284 11.2054 17.0156 11.1411C17.0029 11.0768 16.9713 11.0177 16.9249 10.9713C16.8786 10.925 16.8195 10.8934 16.7552 10.8806C16.6909 10.8678 16.6242 10.8744 16.5636 10.8995C16.5031 10.9246 16.4513 10.9671 16.4149 11.0216C16.3784 11.0761 16.359 11.1402 16.359 11.2058C16.359 11.2937 16.3939 11.378 16.4561 11.4401C16.5183 11.5023 16.6026 11.5372 16.6905 11.5373ZM15.3003 12.5519C15.3659 12.5519 15.43 12.5324 15.4845 12.496C15.539 12.4595 15.5815 12.4078 15.6066 12.3472C15.6317 12.2866 15.6382 12.22 15.6254 12.1557C15.6126 12.0914 15.581 12.0323 15.5347 11.9859C15.4883 11.9396 15.4292 11.908 15.3649 11.8952C15.3006 11.8825 15.234 11.889 15.1734 11.9141C15.1128 11.9392 15.0611 11.9817 15.0246 12.0363C14.9882 12.0908 14.9688 12.1549 14.9688 12.2205C14.9688 12.264 14.9773 12.3071 14.994 12.3473C15.0106 12.3876 15.035 12.4241 15.0658 12.4549C15.0966 12.4857 15.1332 12.5101 15.1734 12.5267C15.2137 12.5434 15.2568 12.5519 15.3003 12.5519ZM13.7767 13.4711C13.8422 13.4711 13.9063 13.4517 13.9608 13.4153C14.0154 13.3789 14.0578 13.3271 14.0829 13.2665C14.108 13.206 14.1146 13.1393 14.1018 13.075C14.089 13.0107 14.0575 12.9517 14.0111 12.9053C13.9648 12.8589 13.9057 12.8274 13.8414 12.8146C13.7771 12.8018 13.7104 12.8084 13.6499 12.8335C13.5893 12.8586 13.5376 12.9011 13.5011 12.9556C13.4647 13.0101 13.4453 13.0742 13.4453 13.1397C13.4453 13.2276 13.4803 13.3119 13.5424 13.374C13.6045 13.4361 13.6888 13.4711 13.7767 13.4711ZM9.03654 13.1471C9.10211 13.1472 9.16622 13.1277 9.22076 13.0913C9.27529 13.0549 9.31781 13.0032 9.34292 12.9426C9.36804 12.882 9.37463 12.8154 9.36185 12.751C9.34908 12.6867 9.31752 12.6276 9.27116 12.5813C9.2248 12.5349 9.16574 12.5033 9.10142 12.4905C9.03711 12.4777 8.97045 12.4842 8.90986 12.5093C8.84928 12.5344 8.7975 12.5769 8.76106 12.6314C8.72463 12.6859 8.70518 12.75 8.70518 12.8156C8.70521 12.9035 8.74012 12.9878 8.80225 13.05C8.86438 13.1121 8.94865 13.1471 9.03654 13.1471ZM8.83313 3.67989C8.8987 3.67989 8.96279 3.66045 9.01731 3.62402C9.07183 3.58759 9.11432 3.53582 9.13941 3.47524C9.1645 3.41467 9.17106 3.34801 9.15827 3.28371C9.14548 3.2194 9.11391 3.16033 9.06754 3.11397C9.02118 3.0676 8.96211 3.03603 8.89781 3.02324C8.8335 3.01045 8.76684 3.01701 8.70627 3.0421C8.64569 3.0672 8.59392 3.10969 8.55749 3.1642C8.52106 3.21872 8.50162 3.28281 8.50162 3.34838C8.50165 3.43629 8.53659 3.5206 8.59875 3.58276C8.66092 3.64492 8.74522 3.67986 8.83313 3.67989ZM7.81843 5.07006C7.884 5.07008 7.94811 5.05066 8.00264 5.01424C8.05717 4.97783 8.09967 4.92606 8.12478 4.86549C8.14989 4.80491 8.15647 4.73826 8.14369 4.67394C8.13091 4.60963 8.09934 4.55055 8.05298 4.50418C8.00662 4.4578 7.94756 4.42622 7.88325 4.41342C7.81894 4.40062 7.75227 4.40718 7.69169 4.43227C7.63111 4.45736 7.57933 4.49985 7.5429 4.55436C7.50647 4.60888 7.48702 4.67298 7.48702 4.73855C7.487 4.78208 7.49556 4.82519 7.51221 4.86541C7.52886 4.90564 7.55326 4.94219 7.58404 4.97297C7.61482 5.00376 7.65136 5.02818 7.69158 5.04484C7.73179 5.0615 7.7749 5.07007 7.81843 5.07006ZM7.22326 11.3337C7.28884 11.3337 7.35294 11.3143 7.40746 11.2778C7.46198 11.2414 7.50447 11.1896 7.52955 11.129C7.55464 11.0684 7.5612 11.0018 7.54839 10.9375C7.53559 10.8731 7.504 10.8141 7.45762 10.7677C7.41124 10.7214 7.35216 10.6898 7.28784 10.677C7.22352 10.6643 7.15686 10.6708 7.09629 10.696C7.03572 10.7211 6.98395 10.7636 6.94755 10.8181C6.91114 10.8727 6.89172 10.9368 6.89175 11.0023C6.89179 11.0902 6.92673 11.1745 6.9889 11.2367C7.05107 11.2988 7.13537 11.3337 7.22326 11.3337ZM6.89915 6.59356C6.96468 6.59356 7.02875 6.57413 7.08324 6.53772C7.13773 6.50131 7.1802 6.44956 7.20528 6.38901C7.23036 6.32847 7.23692 6.26184 7.22414 6.19756C7.21135 6.13329 7.17979 6.07425 7.13345 6.0279C7.08711 5.98156 7.02807 5.95001 6.96379 5.93722C6.89952 5.92443 6.83289 5.931 6.77234 5.95608C6.7118 5.98116 6.66005 6.02363 6.62364 6.07812C6.58723 6.13261 6.56779 6.19667 6.56779 6.26221C6.56772 6.30574 6.57625 6.34886 6.59288 6.38909C6.60951 6.42933 6.63391 6.46588 6.66469 6.49666C6.69548 6.52745 6.73203 6.55185 6.77226 6.56848C6.8125 6.58511 6.85561 6.59363 6.89915 6.59356Z" fill="#7A89EB" />
  <path d="M16.941 9.64313C14.9356 11.6486 12.9472 12.4795 11.3205 12.4795C9.10328 12.4795 7.55811 10.9358 7.55811 8.71883C7.55811 7.0929 8.38925 5.10487 10.396 3.09814L16.941 9.64313Z" fill="#79A5FF" />
  <path d="M11.5376 6.28673L10.1159 4.86512C10.1006 4.84975 10.0883 4.83151 10.08 4.81143C10.0717 4.79135 10.0674 4.76982 10.0674 4.74808C10.0674 4.72634 10.0716 4.70481 10.08 4.68472C10.0883 4.66463 10.1005 4.64638 10.1158 4.631C10.1312 4.61563 10.1495 4.60343 10.1696 4.59511C10.1896 4.58679 10.2112 4.58251 10.2329 4.58252C10.2547 4.58252 10.2762 4.58681 10.2963 4.59514C10.3164 4.60347 10.3346 4.61567 10.35 4.63105L11.7716 6.05267C11.8026 6.08371 11.8199 6.12578 11.8199 6.16963C11.8199 6.21348 11.8024 6.25553 11.7714 6.28654C11.7404 6.31755 11.6984 6.33498 11.6545 6.33502C11.6107 6.33505 11.5686 6.31769 11.5376 6.28673Z" fill="#7A89EB" />
  <path d="M10.6409 7.80807L9.21931 6.38646C9.1883 6.35542 9.17089 6.31333 9.1709 6.26946C9.17091 6.22559 9.18834 6.18351 9.21936 6.15249C9.25038 6.12146 9.29245 6.10402 9.33633 6.104C9.3802 6.10399 9.42229 6.12139 9.45333 6.15239L10.875 7.574C10.906 7.60504 10.9234 7.64713 10.9234 7.691C10.9234 7.73487 10.9059 7.77695 10.8749 7.80797C10.8439 7.839 10.8018 7.85644 10.7579 7.85646C10.7141 7.85647 10.672 7.83907 10.6409 7.80807Z" fill="#7A89EB" />
  <path d="M9.74494 9.32955L8.32331 7.90794C8.29231 7.8769 8.27489 7.83482 8.2749 7.79094C8.27491 7.74707 8.29234 7.705 8.32336 7.67397C8.35439 7.64294 8.39646 7.62551 8.44033 7.62549C8.4842 7.62547 8.52629 7.64288 8.55733 7.67388L9.97897 9.09549C10.01 9.12653 10.0274 9.16861 10.0274 9.21248C10.0274 9.25636 10.0099 9.29843 9.97891 9.32946C9.94789 9.36048 9.90582 9.37792 9.86195 9.37794C9.81807 9.37796 9.77599 9.36055 9.74494 9.32955Z" fill="#7A89EB" />
  <path d="M15.1741 9.92332L13.7525 8.50169C13.7371 8.48635 13.7248 8.4681 13.7164 8.448C13.708 8.4279 13.7037 8.40634 13.7036 8.38455C13.7036 8.36277 13.7078 8.3412 13.7161 8.32106C13.7245 8.30093 13.7367 8.28264 13.7521 8.26723C13.7675 8.25183 13.7858 8.23962 13.8059 8.2313C13.826 8.22298 13.8476 8.21871 13.8694 8.21875C13.8912 8.21879 13.9127 8.22312 13.9328 8.23151C13.9529 8.2399 13.9712 8.25217 13.9865 8.26763L15.4081 9.68926C15.4391 9.7203 15.4565 9.76238 15.4565 9.80626C15.4565 9.85013 15.4391 9.89221 15.4081 9.92323C15.3771 9.95426 15.335 9.9717 15.2911 9.97171C15.2472 9.97173 15.2052 9.95433 15.1741 9.92332Z" fill="#7A89EB" />
  <path d="M13.6528 10.82L12.2312 9.39832C12.2158 9.38296 12.2036 9.36471 12.1952 9.34463C12.1869 9.32455 12.1826 9.30302 12.1826 9.28128C12.1826 9.25954 12.1869 9.23801 12.1952 9.21792C12.2035 9.19783 12.2157 9.17958 12.2311 9.1642C12.2465 9.14883 12.2647 9.13663 12.2848 9.12832C12.3049 9.12 12.3264 9.11572 12.3481 9.11572C12.3699 9.11573 12.3914 9.12002 12.4115 9.12834C12.4316 9.13667 12.4498 9.14888 12.4652 9.16426L13.8868 10.5859C13.9022 10.6013 13.9144 10.6195 13.9227 10.6396C13.9311 10.6597 13.9354 10.6812 13.9354 10.7029C13.9354 10.7247 13.9311 10.7462 13.9228 10.7663C13.9145 10.7864 13.9023 10.8046 13.8869 10.82C13.8715 10.8354 13.8533 10.8476 13.8332 10.8559C13.8131 10.8642 13.7916 10.8685 13.7699 10.8685C13.7481 10.8685 13.7266 10.8642 13.7065 10.8559C13.6864 10.8475 13.6682 10.8353 13.6528 10.82Z" fill="#7A89EB" />
  <path d="M12.1313 11.7159L10.7097 10.2943C10.6943 10.279 10.6821 10.2607 10.6738 10.2406C10.6654 10.2205 10.6611 10.199 10.6611 10.1773C10.6611 10.1555 10.6654 10.134 10.6737 10.1139C10.682 10.0938 10.6942 10.0756 10.7096 10.0602C10.725 10.0448 10.7432 10.0326 10.7633 10.0243C10.7834 10.016 10.8049 10.0117 10.8267 10.0117C10.8484 10.0117 10.8699 10.016 10.89 10.0243C10.9101 10.0327 10.9283 10.0449 10.9437 10.0603L12.3653 11.4819C12.3807 11.4972 12.3929 11.5155 12.4012 11.5356C12.4096 11.5556 12.4138 11.5772 12.4139 11.5989C12.4139 11.6206 12.4096 11.6422 12.4013 11.6623C12.393 11.6824 12.3808 11.7006 12.3654 11.716C12.35 11.7314 12.3318 11.7435 12.3117 11.7519C12.2916 11.7602 12.2701 11.7645 12.2483 11.7645C12.2266 11.7645 12.2051 11.7602 12.185 11.7518C12.1649 11.7435 12.1466 11.7313 12.1313 11.7159Z" fill="#7A89EB" />
</svg>