<svg width="24" height="24" viewBox="0 0 24 24" fill="none" xmlns="http://www.w3.org/2000/svg">
  <g clip-path="url(#clip0_11833_83023)">
    <path d="M23.0427 7.53662V22.7391H0.957031V7.53662C0.957031 7.12271 1.29266 6.78662 1.70703 6.78662H22.2927C22.707 6.78662 23.0427 7.12271 23.0427 7.53662Z" fill="#5E5F6F" />
    <path d="M3.17984 6.78709C2.75281 6.78709 2.40687 7.13256 2.40687 7.55959V22.7391H0.957031V7.53662C0.957031 7.12271 1.29266 6.78662 1.70703 6.78662H3.17844L3.17984 6.78709Z" fill="#3F3442" />
    <path d="M9.61182 5.95227C9.41761 5.95227 9.26025 5.79491 9.26025 5.60071V2.10196C9.26025 1.44289 9.79641 0.906738 10.4555 0.906738H11.5294C11.7236 0.906738 11.881 1.0641 11.881 1.2583C11.881 1.4525 11.7236 1.60986 11.5294 1.60986H10.4555C10.1841 1.60986 9.96338 1.8306 9.96338 2.10196V5.60071C9.96338 5.79486 9.80597 5.95227 9.61182 5.95227Z" fill="#463849" />
    <path d="M18.8763 5.95227C18.6821 5.95227 18.5248 5.79491 18.5248 5.60071V2.10196C18.5248 1.8306 18.3043 1.60986 18.0332 1.60986H16.8667C16.6725 1.60986 16.5151 1.4525 16.5151 1.2583C16.5151 1.0641 16.6725 0.906738 16.8667 0.906738H18.0332C18.692 0.906738 19.2279 1.44289 19.2279 2.10196V5.60071C19.2279 5.79486 19.0705 5.95227 18.8763 5.95227Z" fill="#463849" />
    <path d="M21.5945 8.7041V19.1741C21.5945 19.4329 21.3845 19.6429 21.1258 19.6429H2.87451C2.61576 19.6429 2.40576 19.4329 2.40576 19.1741V8.7041C2.40576 8.44535 2.61576 8.23535 2.87451 8.23535H21.1258C21.3845 8.23535 21.5945 8.44535 21.5945 8.7041Z" fill="#9EC8FC" />
    <path d="M13.0366 16.7995H11.9757C11.1161 16.7995 10.4169 16.1002 10.4169 15.2407V14.5627C10.4169 14.0909 10.033 13.707 9.56116 13.707H8.50023C8.02844 13.707 7.64453 14.0909 7.64453 14.5627V15.8537C7.64453 16.0479 7.48717 16.2053 7.29297 16.2053C7.09877 16.2053 6.94141 16.0479 6.94141 15.8537V14.5627C6.94141 13.7032 7.64069 13.0039 8.50023 13.0039H9.56116C10.4207 13.0039 11.12 13.7032 11.12 14.5627V15.2407C11.12 15.7125 11.5038 16.0964 11.9757 16.0964H13.0366C13.5084 16.0964 13.8923 15.7126 13.8923 15.2407V13.3555C13.8923 13.1613 14.0496 13.0039 14.2438 13.0039C14.438 13.0039 14.5954 13.1613 14.5954 13.3555V15.2407C14.5954 16.1002 13.8961 16.7995 13.0366 16.7995Z" fill="#6F6571" />
    <path d="M4.29061 19.6429H2.87451C2.61576 19.6429 2.40576 19.4329 2.40576 19.1741V8.7041C2.40576 8.44535 2.61576 8.23535 2.87451 8.23535H4.29061C4.02389 8.23535 3.80779 8.45145 3.80779 8.71816V19.16C3.80779 19.4268 4.02389 19.6429 4.29061 19.6429Z" fill="#8BB3EA" />
    <path d="M24 21.6712V22.2988C24 22.9659 23.4595 23.5063 22.793 23.5063H1.20703C0.540469 23.5063 0 22.9659 0 22.2988V21.6712C0 21.351 0.259219 21.0918 0.579375 21.0918H9.60844L12 21.5001L14.3916 21.0918H23.4206C23.7408 21.0918 24 21.351 24 21.6712Z" fill="#9294B1" />
    <path d="M14.392 21.0918V22.0093C14.392 22.1691 14.2626 22.299 14.1023 22.299H9.89813C9.73782 22.299 9.6084 22.1691 9.6084 22.0093V21.0918H14.392Z" fill="#5D5360" />
    <path d="M2.60906 23.5063H1.20703C0.540469 23.5063 0 22.9659 0 22.2988V21.6712C0 21.351 0.259219 21.0918 0.579375 21.0918H1.98141C1.66125 21.0918 1.40203 21.351 1.40203 21.6712V22.2988C1.40203 22.9659 1.94203 23.5063 2.60906 23.5063Z" fill="#61627D" />
    <path d="M7.29291 18.2831C8.09299 18.2831 8.74158 17.6345 8.74158 16.8344C8.74158 16.0343 8.09299 15.3857 7.29291 15.3857C6.49283 15.3857 5.84424 16.0343 5.84424 16.8344C5.84424 17.6345 6.49283 18.2831 7.29291 18.2831Z" fill="#F8F6F6" />
    <path d="M7.29297 17.186C7.48713 17.186 7.64453 17.0286 7.64453 16.8345C7.64453 16.6403 7.48713 16.4829 7.29297 16.4829C7.09881 16.4829 6.94141 16.6403 6.94141 16.8345C6.94141 17.0286 7.09881 17.186 7.29297 17.186Z" fill="#6F6571" />
    <path d="M19.0936 5.22656H18.659C18.4456 5.22656 18.2727 5.39953 18.2727 5.61286V6.05522C18.2727 8.25206 16.5053 10.0441 14.3172 10.0834C12.055 10.1239 10.215 8.26228 10.215 5.99972V5.61291C10.215 5.39953 10.0421 5.22661 9.82873 5.22661H9.39411C9.18073 5.22661 9.00781 5.39958 9.00781 5.61291V6.05527C9.00781 8.62748 10.8721 10.7722 13.3205 11.2096C13.5052 11.2426 13.6402 11.4022 13.6402 11.5898V13.3059C13.6402 13.5193 13.8132 13.6922 14.0265 13.6922H14.4612C14.6745 13.6922 14.8475 13.5193 14.8475 13.3059V11.5886C14.8475 11.4013 14.982 11.2419 15.1663 11.2086C17.6201 10.7647 19.4799 8.58441 19.4799 5.99358V5.61295C19.4799 5.39948 19.307 5.22656 19.0936 5.22656Z" fill="#FFE077" />
    <path d="M11.9593 2.02253C12.3814 2.02253 12.7237 1.68028 12.7237 1.25809C12.7237 0.835903 12.3814 0.493652 11.9593 0.493652C11.5371 0.493652 11.1948 0.835903 11.1948 1.25809C11.1948 1.68028 11.5371 2.02253 11.9593 2.02253Z" fill="#8A7591" />
    <path d="M16.5286 2.02253C16.9508 2.02253 17.293 1.68028 17.293 1.25809C17.293 0.835903 16.9508 0.493652 16.5286 0.493652C16.1064 0.493652 15.7642 0.835903 15.7642 1.25809C15.7642 1.68028 16.1064 2.02253 16.5286 2.02253Z" fill="#8A7591" />
  </g>
  <defs>
    <clipPath id="clip0_11833_83023">
      <rect width="24" height="24" fill="white" />
    </clipPath>
  </defs>
</svg>