<svg width="24" height="24" viewBox="0 0 24 24" fill="none" xmlns="http://www.w3.org/2000/svg">
  <path d="M5.07351 6.6582L0.604492 10.3301L4.5052 15.6849H13.8948V6.6582H5.07351Z" fill="#7FCDFF" />
  <path d="M23.9998 12.7397V8.73064C23.9998 7.58609 23.0712 6.6582 21.9257 6.6582H13.0884V15.6849H22.3951L23.9998 12.7397Z" fill="#80A1FF" />
  <path d="M10.9548 2.26685C10.0387 2.26685 9.24917 2.91091 9.06589 3.80772L7.83008 9.85408L13.0886 9.9656L13.8949 9.36485V3.54002L13.0886 2.26685H10.9548Z" fill="#5E5E72" />
  <path d="M17.2393 3.82858C17.0644 2.92197 16.2703 2.26685 15.3463 2.26685H13.0884V9.96555L18.445 10.0791L17.2393 3.82858Z" fill="#454555" />
  <path d="M4.50515 12.7397L3.58691 13.544V20.8228L4.50515 21.733H13.0884L13.8947 20.6695V13.925L13.0884 12.7397H4.50515Z" fill="#F0E4E4" />
  <path d="M23.9998 19.6606V12.7397H13.0884V21.733H21.9257C23.0712 21.733 23.9998 20.8052 23.9998 19.6606Z" fill="#BCB4C0" />
  <path d="M0 10.3301V19.6605C0 20.8051 0.928641 21.733 2.07413 21.733H4.5053V10.3301H0Z" fill="#747489" />
  <path d="M0.703125 7.36108H5.20842V10.445H0.703125V7.36108Z" fill="#FFE28F" />
  <path d="M5.20842 11.1482H0.703125C0.314812 11.1482 0 10.8334 0 10.445V7.36108C0 6.97277 0.314812 6.65796 0.703125 6.65796H5.20842C5.59673 6.65796 5.91155 6.97277 5.91155 7.36108V10.445C5.91155 10.8334 5.59673 11.1482 5.20842 11.1482ZM1.40625 9.74191H4.5053V8.06421H1.40625V9.74191Z" fill="#5E5E72" />
  <path d="M7.35889 13.3953C7.35889 16.5571 9.92407 19.1201 13.0884 19.1201L13.8947 18.1079V8.48336L13.0884 7.67041C9.92412 7.67041 7.35889 10.2335 7.35889 13.3953Z" fill="#76E3F9" />
  <path d="M18.8179 13.3953C18.8179 10.2335 16.2527 7.67041 13.0884 7.67041V19.1201C16.2527 19.1201 18.8179 16.557 18.8179 13.3953Z" fill="#7FCDFF" />
  <path d="M10.2842 13.3954C10.2842 14.9428 11.5396 16.1972 13.0883 16.1972L13.8946 15.537V11.6666L13.0883 10.5935C11.5396 10.5935 10.2842 11.8479 10.2842 13.3954Z" fill="#BFEFF7" />
  <path d="M8.06201 13.3953C8.06201 10.6263 10.3169 8.37354 13.0884 8.37354L13.8948 7.67041L13.0884 6.96729C9.54143 6.96729 6.65576 9.85089 6.65576 13.3953C6.65576 16.9396 9.54148 19.8232 13.0884 19.8232L13.8948 19.1201L13.0884 18.417C10.3169 18.417 8.06201 16.1642 8.06201 13.3953Z" fill="#747489" />
  <path d="M15.8925 13.3953C15.8925 11.8479 14.637 10.5935 13.0884 10.5935V16.1972C14.637 16.1971 15.8925 14.9427 15.8925 13.3953Z" fill="#76E3F9" />
  <path d="M19.521 13.3953C19.521 9.85085 16.6353 6.96729 13.0884 6.96729V8.37354C15.86 8.37354 18.1148 10.6263 18.1148 13.3953C18.1148 16.1642 15.8599 18.417 13.0884 18.417V19.8232C16.6354 19.8232 19.521 16.9396 19.521 13.3953Z" fill="#5E5E72" />
</svg>