<svg width="24" height="24" viewBox="0 0 24 24" fill="none" xmlns="http://www.w3.org/2000/svg">
  <path d="M11.9927 7.92529C12.1179 7.92529 12.2381 7.97551 12.3267 8.06396C12.4152 8.15252 12.4652 8.27273 12.4653 8.39795V9.55615L12.6323 9.38916C12.6762 9.34527 12.7283 9.31038 12.7856 9.28662C12.8429 9.2629 12.9044 9.25054 12.9663 9.25049C13.0284 9.25049 13.0906 9.26285 13.1479 9.28662C13.205 9.31032 13.2566 9.3455 13.3003 9.38916L13.3013 9.39014C13.3887 9.47886 13.4373 9.59857 13.437 9.72314C13.4367 9.84773 13.3873 9.96693 13.2993 10.0552V10.0562L12.314 11.0415C12.2253 11.1298 12.1051 11.1792 11.98 11.1792C11.8862 11.1792 11.7953 11.1513 11.7183 11.1001L11.646 11.0415L10.6958 10.0913C10.6123 10.0017 10.5667 9.88268 10.5688 9.76025C10.5711 9.63804 10.6211 9.52155 10.7075 9.43506C10.7941 9.34847 10.9113 9.29855 11.0337 9.29639C11.1253 9.29481 11.2148 9.31992 11.2915 9.36768L11.3638 9.42334L11.3677 9.42725L11.52 9.57861V8.39795C11.5201 8.27273 11.5701 8.15252 11.6587 8.06396C11.7473 7.97542 11.8674 7.92536 11.9927 7.92529Z" fill="white" stroke="#050098" stroke-width="0.3" />
  <path d="M2 13.7026H22V20.2231H2V13.7026Z" fill="#FF8C90" />
  <path d="M4.92473 13.7026C4.76554 14.2426 4.69296 14.8044 4.70968 15.3672C4.71398 16.4037 4.52903 17.1521 4.12043 17.5306H4.11613C3.90751 17.7206 3.63253 17.821 3.35054 17.8102C2.28387 17.8102 2.21505 16.5198 2.11183 15.1005C2.10159 14.9251 2.06385 14.7524 2 14.5887V13.7026H4.92473Z" fill="#E28186" />
  <path d="M14.7957 13.7026C14.6386 14.2429 14.5689 14.8049 14.5893 15.3672C14.5893 16.4037 14.4043 17.1521 13.9957 17.5306H13.9914C13.7828 17.7206 13.5078 17.821 13.2258 17.8102C12.1592 17.8102 12.0904 16.5198 11.9914 15.1005C11.981 14.8396 11.9024 14.586 11.7635 14.365C11.7331 14.3253 11.6969 14.2905 11.656 14.2618C11.6058 14.2238 11.5485 14.1963 11.4874 14.1809C11.4264 14.1656 11.3629 14.1626 11.3008 14.1722C11.2386 14.1819 11.179 14.2039 11.1255 14.237C11.072 14.2701 11.0256 14.3136 10.9893 14.365C10.9851 14.3745 10.9793 14.3833 10.9721 14.3908C10.8395 14.6042 10.7667 14.8493 10.7613 15.1005C10.6882 16.1198 10.6323 17.0747 10.2151 17.5263C10.1276 17.6203 10.0208 17.6944 9.902 17.7434C9.78324 17.7924 9.6553 17.8151 9.52692 17.8102C8.57208 17.8102 8.15918 16.9155 8.16778 15.3672C8.18437 14.8047 8.11326 14.2432 7.95703 13.7026H14.7957Z" fill="#E28186" />
  <path d="M22.0001 13.7026V14.3779C21.9958 14.3736 21.9958 14.3693 21.9915 14.365C21.9472 14.3045 21.8893 14.2552 21.8224 14.2213C21.7555 14.1874 21.6816 14.1697 21.6066 14.1697C21.5316 14.1697 21.4576 14.1874 21.3907 14.2213C21.3238 14.2552 21.2659 14.3045 21.2216 14.365C21.2158 14.3746 21.2085 14.3833 21.2001 14.3908C21.0694 14.605 20.9968 14.8496 20.9894 15.1005C20.9162 16.1198 20.8603 17.0747 20.4431 17.5263C20.3556 17.6203 20.2488 17.6944 20.13 17.7434C20.0113 17.7924 19.8833 17.8151 19.7549 17.8102C18.8001 17.8102 18.3915 16.9155 18.3958 15.3672C18.4124 14.8047 18.3413 14.2432 18.1851 13.7026H22.0001Z" fill="#E28186" />
  <path d="M5.22064 8.97391C3.98151 8.48703 2.89505 9.29864 2 9.29864V13.9356C2.07533 13.9355 2.14959 13.9535 2.21651 13.9881C2.28343 14.0226 2.34106 14.0728 2.38452 14.1343C2.52782 14.3544 2.60787 14.6095 2.61591 14.872C2.71613 16.2913 2.78323 17.5817 3.85247 17.5817C4.80516 17.5817 5.21333 16.6862 5.21118 15.1343C5.17447 14.1113 5.43566 13.0995 5.96301 12.2221C6.00624 12.1486 6.0453 12.0728 6.08 11.995C6.13753 11.8793 6.18697 11.7597 6.22796 11.6371C6.61247 10.509 6.2757 9.3894 5.22064 8.97391Z" fill="#59CEF2" />
  <path d="M5.2207 8.97409C3.98199 8.48678 2.89468 9.29882 2.00049 9.29882V13.7659C2.23891 13.631 2.51891 13.5893 2.78629 13.6489C2.92331 13.6736 3.04711 13.7461 3.13554 13.8537C3.27883 14.0733 3.35848 14.3283 3.36565 14.5904C3.46758 16.0098 3.53339 17.3001 4.60264 17.3001H4.62242C5.0306 16.9225 5.21339 16.1775 5.21124 15.1371C5.17538 14.1134 5.43697 13.1012 5.96436 12.2231C6.70715 10.9246 6.45941 9.46226 5.2207 8.97409Z" fill="#84DBF8" />
  <path d="M5.22064 8.97391C3.98194 8.48703 2.89462 9.29864 2 9.29864V9.56144C2.73505 9.35456 3.57075 9.0023 4.48903 9.36273C5.72774 9.84961 5.97548 11.312 5.23226 12.6113C4.70445 13.4899 4.44284 14.5027 4.47914 15.527C4.50653 16.1065 4.41445 16.6853 4.2086 17.2277C4.33351 17.2784 4.46736 17.3034 4.60215 17.3012H4.62194C5.03097 16.924 5.2129 16.1795 5.21075 15.1382C5.17484 14.1145 5.43644 13.1023 5.96387 12.2242C6.7071 10.9249 6.45935 9.46251 5.22064 8.97391Z" fill="#A5E5FA" />
  <path d="M2.28215 13.6533C2.18662 13.6644 2.09222 13.6837 2 13.711V13.7656C2.08777 13.715 2.18236 13.6774 2.28086 13.6538L2.28215 13.6533Z" fill="#A5E5FA" />
  <path d="M22 9.28468V13.9238C21.9247 13.9235 21.8504 13.9414 21.7834 13.976C21.7165 14.0106 21.6589 14.0609 21.6155 14.1225C21.6104 14.1317 21.6043 14.1404 21.5975 14.1483C21.4652 14.3628 21.3928 14.6087 21.3876 14.8606C21.3119 15.8782 21.2585 16.8305 20.8379 17.2847C20.7508 17.3792 20.6441 17.4536 20.5252 17.5025C20.4063 17.5513 20.2781 17.5736 20.1497 17.5677C19.1957 17.5677 18.7854 16.6722 18.7906 15.1238C18.8263 14.0998 18.5642 13.0875 18.0362 12.2094C17.2912 10.9079 17.5416 9.44468 18.7811 8.95952C18.9293 8.90056 19.0833 8.85731 19.2405 8.83049C20.2891 8.66446 21.2173 9.28468 22 9.28468Z" fill="#5ECAEE" />
  <path d="M19.2064 8.83807C18.2525 9.43635 18.1122 10.7469 18.7858 11.9245C19.3133 12.8026 19.5751 13.8148 19.5393 14.8385C19.5359 16.3572 19.9264 17.2471 20.8387 17.2824C21.2572 16.8252 21.3118 15.8742 21.3849 14.8579C21.3939 14.6209 21.4589 14.3895 21.5746 14.1826L21.5871 14.1628C21.6876 13.9929 21.8295 13.8511 21.9996 13.7508V9.28366C21.2095 9.28366 20.2688 8.65012 19.2064 8.83807Z" fill="#84DBF8" />
  <path d="M19.2068 8.83795C19.0525 8.9343 18.9143 9.05433 18.7974 9.19365C19.7285 9.16225 20.5608 9.67193 21.2683 9.67193C21.5166 9.66287 21.7625 9.62049 21.9995 9.54591V9.28311C21.2094 9.28354 20.2692 8.65042 19.2068 8.83795Z" fill="#A5E5FA" />
  <path d="M20.9333 14.4446C20.7706 14.6825 20.674 14.9593 20.6533 15.2468C20.6394 15.8976 20.5486 16.5445 20.3828 17.1741C20.5258 17.2411 20.6809 17.2779 20.8387 17.2825C21.2581 16.8257 21.3118 15.8752 21.385 14.858C21.3939 14.621 21.4589 14.3896 21.5746 14.1827L21.5871 14.1629C21.6875 13.9928 21.8295 13.8509 21.9996 13.7504V13.6958C21.5714 13.8212 21.1966 14.0844 20.9333 14.4446Z" fill="#A5E5FA" />
  <path d="M13.2202 3.76758C13.7702 3.62241 14.3899 3.53276 15.0542 3.79395C15.6226 4.01783 16.0018 4.43423 16.1841 4.94727C16.3654 5.45762 16.3498 6.05582 16.1489 6.64648C16.1061 6.77326 16.0536 6.89648 15.9946 7.0166C15.9575 7.09914 15.9172 7.18064 15.8716 7.25879L15.8276 7.33301H15.7417L7.81592 7.33203H7.72998L7.68701 7.25781C7.64206 7.18163 7.60113 7.10317 7.56494 7.02246L7.47998 6.83789C7.45372 6.77581 7.42879 6.71315 7.40674 6.64941V6.64844C7.20595 6.05686 7.19041 5.45881 7.37158 4.94824C7.55388 4.43472 7.93275 4.01783 8.50146 3.79395L8.74854 3.71191C9.31881 3.5566 9.85261 3.64075 10.3335 3.76758C10.4709 3.80382 10.6056 3.84378 10.7349 3.88281C10.8649 3.92208 10.9894 3.96048 11.1108 3.99414C11.3544 4.06164 11.5741 4.10838 11.7769 4.1084C11.9797 4.1084 12.2 4.06177 12.4438 3.99414C12.5651 3.9605 12.689 3.92204 12.8188 3.88281C12.9481 3.84375 13.0828 3.80385 13.2202 3.76758Z" fill="#59CEF2" stroke="#050098" stroke-width="0.3" />
  <path d="M8.95801 3.66406C9.52482 3.56381 10.0537 3.68426 10.5244 3.82031C10.7652 3.8899 10.9801 3.96057 11.1943 4.0166C11.4055 4.07182 11.5987 4.10742 11.7773 4.10742C11.98 4.1074 12.1997 4.06152 12.4434 3.99414C12.5647 3.96058 12.6894 3.92293 12.8193 3.88379C12.9486 3.84484 13.0833 3.80471 13.2207 3.76855C13.7708 3.62383 14.3903 3.53417 15.0537 3.79492C15.7227 4.05793 16.1271 4.58761 16.2607 5.22266C16.3935 5.85356 16.2585 6.58125 15.8721 7.25684L15.8291 7.33301L15.7422 7.33203H8.625L8.58301 7.25L8.43359 6.97266C7.73799 5.75523 7.85623 4.34262 8.9043 3.68555L8.92871 3.66992L8.95801 3.66406Z" fill="#84DBF8" stroke="#050098" stroke-width="0.3" />
  <path d="M15.7421 7.18252C16.4853 5.88316 16.2376 4.42123 14.9989 3.93392C13.7601 3.4466 12.672 4.25779 11.7773 4.25779C10.9872 4.25779 10.047 3.62424 8.98466 3.81219C8.83035 3.90855 8.69218 4.02858 8.5752 4.16789C9.50552 4.13564 10.3365 4.64488 11.0457 4.64488C11.9404 4.64488 13.0277 3.83284 14.2664 4.32015C15.3847 4.75929 15.6939 5.99069 15.1997 7.18123H15.7421V7.18252Z" fill="#A5E5FA" />
  <path d="M16.0068 12.0732L15.8711 12.3008C15.3594 13.1534 15.1051 14.1361 15.1406 15.1299L15.1416 15.1348C15.1429 15.9188 15.0406 16.5604 14.8027 17.0107C14.6825 17.2382 14.5258 17.4211 14.3271 17.5459C14.128 17.671 13.8953 17.7324 13.6328 17.7324C13.3322 17.7324 13.09 17.6413 12.9014 17.4707C12.7165 17.3034 12.5946 17.0701 12.5088 16.8066C12.3388 16.2849 12.2966 15.5851 12.2471 14.8838L12.2461 14.8779C12.239 14.6434 12.1672 14.4153 12.0391 14.2188C12.0096 14.1791 11.9717 14.1466 11.9277 14.124C11.8821 14.1006 11.8315 14.0879 11.7803 14.0879C11.729 14.0879 11.6784 14.1006 11.6328 14.124C11.5887 14.1467 11.55 14.1789 11.5205 14.2188C11.3929 14.4149 11.3222 14.643 11.3164 14.877V14.8838C11.2658 15.585 11.2231 16.2849 11.0527 16.8066C10.9667 17.0701 10.8432 17.3034 10.6582 17.4707C10.4696 17.641 10.228 17.7324 9.92773 17.7324C9.66524 17.7324 9.43235 17.6711 9.2334 17.5459C9.03497 17.4211 8.87881 17.2382 8.75879 17.0107C8.52122 16.5605 8.41897 15.9195 8.41895 15.1357V14.7578C8.3872 13.8923 8.13675 13.0465 7.68848 12.3008L7.55176 12.0732H16.0068Z" fill="#59CEF2" stroke="#050098" stroke-width="0.3" />
  <path d="M15.7421 12.2236H8.72021C9.14601 13.0331 9.35284 13.9397 9.32021 14.8537C9.31677 16.3724 9.70731 17.2623 10.6196 17.2976C11.0381 16.8404 11.0927 15.8894 11.1658 14.8731C11.1747 14.6362 11.2397 14.4047 11.3555 14.1978L11.368 14.178C11.4846 13.9731 11.664 13.811 11.8798 13.7158C12.0955 13.6205 12.3362 13.5971 12.5662 13.649C12.7033 13.6737 12.827 13.7462 12.9155 13.8537C13.0585 14.0735 13.1381 14.3284 13.1456 14.5905C13.2475 16.0099 13.3129 17.3002 14.3821 17.3002H14.4024C14.8105 16.9226 14.9933 16.1776 14.9912 15.1372C14.9544 14.1138 15.2152 13.1017 15.7421 12.2236Z" fill="#84DBF8" />
  <path d="M10.7145 14.4598C10.5513 14.6975 10.4545 14.9744 10.4341 15.262C10.4202 15.9128 10.3294 16.5598 10.1636 17.1893C10.3065 17.2563 10.4617 17.2932 10.6195 17.2977C11.0393 16.8409 11.0926 15.8904 11.1657 14.8732C11.1747 14.6362 11.2397 14.4048 11.3554 14.1979L11.3679 14.1781C11.442 14.0484 11.5416 13.9351 11.6606 13.845C11.7797 13.7549 11.9159 13.6899 12.0608 13.6538C11.7935 13.69 11.5364 13.7801 11.3049 13.9187C11.0735 14.0572 10.8727 14.2413 10.7145 14.4598Z" fill="#A5E5FA" />
  <path d="M15.7419 12.2236H15.203C15.1475 12.3565 15.0838 12.4857 15.0124 12.6107C14.4844 13.4894 14.2227 14.5024 14.2593 15.5269C14.2863 16.1063 14.1942 16.6851 13.9888 17.2275C14.1135 17.2782 14.2472 17.3032 14.3819 17.3011H14.4021C14.8111 16.9238 14.9931 16.1793 14.9909 15.138C14.9541 14.1144 15.2149 13.102 15.7419 12.2236Z" fill="#A5E5FA" />
</svg>