<svg width="26" height="26" viewBox="0 0 26 26" fill="none" xmlns="http://www.w3.org/2000/svg">
  <path d="M8.12669 24.883C7.94674 24.883 7.76679 24.8143 7.62954 24.677L3.68219 20.7297C1.01154 18.059 1.01154 13.7135 3.68219 11.0429C4.78488 9.9402 6.24452 9.24162 7.79224 9.07583C9.31652 8.91242 10.8676 9.26862 12.1597 10.0786C12.1984 10.1029 12.2348 10.1309 12.2681 10.1622L15.9896 13.6639C15.9948 13.6688 16 13.6738 16.005 13.6788L16.3035 13.9774C16.9715 14.6453 17.8596 15.0132 18.8043 15.0132C19.7489 15.0132 20.6371 14.6453 21.3051 13.9774C21.9321 13.3504 22.2987 12.5176 22.3375 11.6325C22.3756 10.7628 22.0957 9.91644 21.5489 9.24565L20.6986 8.39089C20.4248 8.11559 20.4259 7.67037 20.7012 7.39653C20.9766 7.12264 21.4218 7.12386 21.6956 7.39915L22.5693 8.27745C22.5843 8.29245 22.5985 8.30811 22.612 8.32437C23.3948 9.26801 23.7963 10.4647 23.7424 11.694C23.6882 12.9313 23.1758 14.0954 22.2994 14.9717C21.3659 15.9053 20.1246 16.4195 18.8043 16.4195C17.484 16.4195 16.2428 15.9053 15.3092 14.9717L15.0182 14.6808L11.3561 11.235C10.3415 10.6167 9.13178 10.3465 7.94196 10.4741C6.69471 10.6077 5.56554 11.1482 4.6765 12.0372C2.55414 14.1597 2.55414 17.613 4.6765 19.7354L8.62385 23.6827C8.89844 23.9573 8.89844 24.4025 8.62385 24.6771C8.4866 24.8143 8.30664 24.883 8.12669 24.883Z" fill="#FF5C47" />
  <path d="M22.5693 8.27743L21.6956 7.39914C21.4217 7.12384 20.9766 7.12267 20.7012 7.39651C20.4259 7.67036 20.4248 8.11557 20.6986 8.39087L21.5489 9.24564C22.0957 9.91642 22.3756 10.7628 22.3375 11.6325C22.2987 12.5176 21.9321 13.3503 21.3051 13.9773C20.6371 14.6453 19.749 15.0132 18.8043 15.0132C17.8596 15.0132 16.9715 14.6453 16.3035 13.9773L16.005 13.6788C15.9999 13.6738 15.9948 13.6688 15.9896 13.6639L14.1071 11.8926L13.1123 12.8874L15.0182 14.6807L15.3092 14.9717C16.2428 15.9053 17.484 16.4194 18.8043 16.4194C20.1246 16.4194 21.3659 15.9053 22.2995 14.9717C23.1758 14.0954 23.6882 12.9313 23.7424 11.694C23.7963 10.4647 23.3949 9.26804 22.612 8.32436C22.5985 8.30809 22.5842 8.29243 22.5693 8.27743Z" fill="#D9331D" />
  <path d="M7.6295 24.6771C7.76679 24.8144 7.94675 24.883 8.12665 24.883C8.30656 24.883 8.48656 24.8144 8.62381 24.6771C8.8984 24.4025 8.8984 23.9573 8.62381 23.6827L5.47043 20.5293L4.47607 21.5237L7.6295 24.6771Z" fill="#D9331D" />
  <path d="M19.0664 1.89355C20.4578 0.502354 22.7131 0.502358 24.1045 1.89355C25.4959 3.28498 25.4959 5.54119 24.1045 6.93262C23.8499 7.18706 22.7836 8.08514 21.2285 9.37012C19.6683 10.6593 17.607 12.3456 15.3545 14.1797C10.8495 17.848 5.57843 22.1109 2.02051 24.9844C1.35465 25.5221 0.479015 24.6474 1.0166 23.9814C3.8896 20.4232 8.15139 15.1512 11.8193 10.6455C13.6532 8.39273 15.3389 6.33092 16.6279 4.77051C17.9134 3.21443 18.8123 2.14762 19.0664 1.89355Z" fill="#A8D8FF" stroke="#050098" stroke-width="0.3" />
  <path d="M1.17236 24.8277C1.35789 25.0138 1.66272 25.0809 1.92602 24.8683C9.04178 19.1213 23.0088 7.81674 23.9989 6.8265C25.3316 5.49385 25.3318 3.33338 23.9996 2.00049L1.17236 24.8277Z" fill="#80ADE2" />
  <path d="M18.6914 8.01024C18.5114 8.01024 18.3315 7.94162 18.1942 7.80427C17.9196 7.52968 17.9196 7.08451 18.1942 6.80991L20.4662 4.53798C20.7407 4.26338 21.1859 4.26338 21.4605 4.53798C21.7351 4.81257 21.7351 5.25774 21.4605 5.53234L19.1886 7.80427C19.0513 7.94162 18.8713 8.01024 18.6914 8.01024Z" fill="white" />
  <path d="M18.1948 7.80531C18.332 7.94223 18.5117 8.01067 18.6914 8.01067C18.8713 8.01067 19.0513 7.94205 19.1885 7.8047L21.4605 5.53277C21.7349 5.25836 21.7351 4.8137 21.461 4.53906L18.1948 7.80531Z" fill="#EFF8FF" />
  <path d="M17.6217 3.30381C16.7806 2.46273 15.6623 1.99951 14.4729 1.99951C13.2834 1.99951 12.1651 2.46273 11.324 3.30381L10.2592 4.36862C9.98457 4.64322 9.98457 5.08839 10.2592 5.36298C10.5337 5.63757 10.9789 5.63757 11.2535 5.36298L12.3184 4.29817C12.8938 3.72268 13.659 3.40576 14.4729 3.40576C15.2867 3.40576 16.0518 3.72268 16.626 4.29686L19.6532 7.34171L20.6476 6.34731L17.6217 3.30381Z" fill="#FF5C47" />
  <path d="M19.1572 6.84299L19.6529 7.34165L20.6473 6.34729L20.1516 5.84863L19.1572 6.84299Z" fill="#D9331D" />
</svg>