<svg width="24" height="22" viewBox="0 0 24 22" fill="none" xmlns="http://www.w3.org/2000/svg">
  <path d="M23.5455 5.28848C23.1935 5.01417 22.724 4.96153 22.3201 5.151L19.1104 6.65663C18.8635 6.77242 18.7059 7.02053 18.7059 7.2932V8.51023C18.7059 9.54027 17.8679 10.3783 16.8378 10.3783C15.8077 10.3783 14.9697 9.54031 14.9697 8.51023C14.9697 7.84872 15.5079 7.31059 16.1694 7.31059C16.4332 7.31059 16.6748 7.16289 16.7951 6.92809C16.9154 6.69329 16.8942 6.41091 16.7401 6.19674L12.9569 0.939291C12.736 0.632257 12.3783 0.448975 12 0.448975C11.6218 0.448975 11.264 0.632257 11.0431 0.939291L7.2599 6.19679C7.10578 6.41091 7.08454 6.69334 7.20487 6.92813C7.3252 7.16293 7.56679 7.31064 7.83066 7.31064C8.49216 7.31064 9.03029 7.84877 9.03029 8.51027C9.03029 9.54031 8.1923 10.3783 7.16221 10.3783C6.13213 10.3783 5.29414 9.54036 5.29414 8.51027V7.29325C5.29414 7.02057 5.13649 6.77246 4.8896 6.65668L1.6799 5.15104C1.27598 4.96157 0.806476 5.01426 0.454536 5.28853C0.102642 5.5628 -0.0631091 6.00525 0.0219697 6.44321L2.68416 20.1447H2.58544C2.19713 20.1447 1.88231 20.4595 1.88231 20.8478C1.88231 21.2361 2.19713 21.551 2.58544 21.551H21.4146C21.8029 21.551 22.1177 21.2361 22.1177 20.8478C22.1177 20.4595 21.8029 20.1447 21.4146 20.1447H21.3159L23.978 6.44316C24.0632 6.00521 23.8974 5.56275 23.5455 5.28848Z" fill="#FFDF50" />
  <path d="M23.5455 5.28848C23.1935 5.01417 22.724 4.96153 22.3201 5.151L19.1104 6.65663C18.8635 6.77242 18.7058 7.02053 18.7058 7.2932V8.51023C18.7058 9.54027 17.8679 10.3783 16.8378 10.3783C15.8077 10.3783 14.9697 9.54031 14.9697 8.51023C14.9697 7.84872 15.5078 7.31059 16.1693 7.31059C16.4331 7.31059 16.6748 7.16289 16.7951 6.92809C16.9154 6.69329 16.8942 6.41091 16.7401 6.19674L12.9569 0.939291C12.736 0.632257 12.3782 0.448975 12 0.448975V21.551H21.4145C21.8029 21.551 22.1177 21.2361 22.1177 20.8478C22.1177 20.4595 21.8029 20.1447 21.4145 20.1447H21.3158L23.978 6.44316C24.0631 6.00521 23.8974 5.56275 23.5455 5.28848Z" fill="#FFB159" />
  <path d="M12 6.63782C11.6117 6.63782 11.2969 6.32301 11.2969 5.93469V5.3728C11.2969 4.98449 11.6117 4.66968 12 4.66968C12.3883 4.66968 12.7031 4.98449 12.7031 5.3728V5.93469C12.7031 6.32301 12.3883 6.63782 12 6.63782Z" fill="#FC7780" />
  <path d="M8.05623 18.6401C7.72121 18.6401 7.4214 18.4287 7.30904 18.1127C7.30848 18.111 7.30791 18.1094 7.3073 18.1077L5.94582 14.1853C5.81846 13.8184 6.01262 13.4179 6.37946 13.2905C6.7463 13.1632 7.14694 13.3574 7.27426 13.7242L8.04348 15.9403L8.7743 13.7404C8.89674 13.3719 9.29462 13.1724 9.66324 13.2948C10.0318 13.4172 10.2313 13.8152 10.1088 14.1837L8.80862 18.0977C8.8081 18.0993 8.80759 18.1009 8.80702 18.1025C8.69841 18.4218 8.39888 18.6378 8.06166 18.6401C8.05984 18.6401 8.05801 18.6401 8.05623 18.6401Z" fill="#FC7780" />
  <path d="M14.9019 18.6402C14.5135 18.6402 14.1987 18.3254 14.1987 17.9371V13.9548C14.1987 13.5665 14.5135 13.2517 14.9019 13.2517H16.0107C16.5595 13.2517 17.0778 13.4937 17.4327 13.9156C17.7784 14.3266 17.9241 14.8647 17.8324 15.3919C17.6799 16.269 16.9127 16.9056 16.0082 16.9056H15.605V17.9371C15.605 18.3254 15.2902 18.6402 14.9019 18.6402ZM15.605 15.4993H16.0082C16.2238 15.4993 16.4124 15.3496 16.4469 15.1509C16.4735 14.9985 16.4124 14.8872 16.3565 14.8208C16.2707 14.7188 16.1415 14.658 16.0107 14.658H15.605V15.4993Z" fill="#FF306F" />
  <path d="M12.0005 18.6402C11.6122 18.6402 11.2974 18.3254 11.2974 17.9371V13.9548C11.2974 13.5665 11.6122 13.2517 12.0005 13.2517C12.3888 13.2517 12.7036 13.5665 12.7036 13.9548V17.9371C12.7036 18.3254 12.3888 18.6402 12.0005 18.6402Z" fill="#FC7780" />
  <path d="M12.7036 17.9371V13.9548C12.7036 13.5665 12.3888 13.2517 12.0005 13.2517V18.6402C12.3888 18.6402 12.7036 18.3254 12.7036 17.9371Z" fill="#FF306F" />
  <path d="M12 4.66968V6.63782C12.3883 6.63782 12.7031 6.32301 12.7031 5.93469V5.3728C12.7031 4.98449 12.3883 4.66968 12 4.66968Z" fill="#FF306F" />
</svg>