<svg width="19" height="32" viewBox="0 0 19 32" fill="none" xmlns="http://www.w3.org/2000/svg">
<path d="M7.26855 1.20537C8.4214 0.221258 9.6526 0.290654 10.951 1.26846C11.7677 1.9033 12.4313 2.75754 12.8817 3.75398C15.9653 10.3274 18.1702 26.1362 18.1702 26.1362V26.2119C18.3588 27.1821 18.3454 28.1883 18.1311 29.1517C18.0778 29.5167 17.9596 29.8658 17.7836 30.178C17.6076 30.4902 17.3775 30.7591 17.1069 30.9685C16.3964 31.357 15.5936 31.4765 14.818 31.3091L4.61028 30.2872C3.81774 30.1565 3.0752 29.7719 2.47099 29.1792C1.86678 28.5864 1.42635 27.8105 1.20211 26.9437C1.05467 26.2878 0.977637 25.6143 0.972656 24.9376C2.27101 17.2035 3.79882 9.11613 5.91424 3.27453C6.19112 2.45928 6.65921 1.74411 7.26855 1.20537Z" stroke="#BDBDBD" stroke-miterlimit="10"/>
</svg>
