<svg width="23" height="28" viewBox="0 0 23 28" fill="none" xmlns="http://www.w3.org/2000/svg">
<path d="M11.8086 26.9258C13.3982 27.0509 14.6333 26.6388 15.501 25.4727C15.9397 24.8534 16.4638 24.2923 17.0586 23.8047L17.0654 23.7998C18.8734 22.3691 20.4427 20.9427 21.2529 19.29C22.0397 17.6851 22.1349 15.812 20.8535 13.3945L20.8311 13.3525L20.8174 13.3066L18.2861 5.06445C17.9724 4.06224 17.251 3.20582 16.2656 2.68555L16.2578 2.68164L16.25 2.67676C14.7727 1.82869 13.0805 1.36173 11.3457 1.32617C9.61081 1.29068 7.89764 1.68841 6.38184 2.47559L6.375 2.47949L6.15039 2.59863C5.63761 2.89021 5.19217 3.27311 4.83887 3.72461C4.43508 4.24077 4.16156 4.83399 4.03711 5.45898L4.03613 5.46387L2.33789 13.6113L2.33105 13.6455L2.31934 13.6787L2.13867 14.2041C1.28888 16.8007 1.21845 18.9456 1.82324 20.6904C2.46498 22.5415 3.89569 24.026 6.16016 25.1455C8.27457 26.1187 10.1953 26.7988 11.8086 26.9258Z"  stroke="#BDBDBD"/>
</svg>
