<svg width="21" height="30" viewBox="0 0 21 30" fill="none" xmlns="http://www.w3.org/2000/svg">
<path d="M6.47266 27.5166C7.8243 28.7322 9.12503 29.0766 10.4062 28.9072C11.7206 28.7334 13.0743 28.0115 14.4844 26.9688L14.5254 26.9375L14.5732 26.916C17.1437 25.7376 18.9004 24.2546 19.7314 22.3916C20.5574 20.5396 20.515 18.2065 19.2598 15.2188L19.2559 15.21L19.252 15.2002L15.3477 4.76074C14.9736 3.78075 14.3201 2.97664 13.5 2.46582L13.499 2.46484C11.469 1.19376 9.61464 0.876131 7.90625 1.51562C7.29726 1.75146 6.74597 2.15665 6.30762 2.69922C5.86784 3.24357 5.55748 3.9074 5.40918 4.62891V4.62988L5.25195 5.35547C4.43832 8.96212 3.16588 12.4249 1.47266 15.6406C1.06705 16.7227 0.872398 17.8895 0.90332 19.0635C0.934466 20.2457 1.19343 21.4055 1.66113 22.4648L1.66406 22.4717C1.94466 23.131 2.35352 23.7078 2.85645 24.1631L2.86035 24.168L6.47168 27.5176L6.47266 27.5166Z"  stroke="#BDBDBD"/>
</svg>
