<svg width="34" height="23" viewBox="0 0 34 23" fill="none" xmlns="http://www.w3.org/2000/svg">
<path d="M0.703125 12.6399C0.703125 8.69426 3.52475 5.25508 7.58513 2.38126C8.34794 1.83563 9.20849 1.45061 10.1171 1.24845C11.0256 1.04629 11.9642 1.03101 12.8785 1.20347C17.4617 2.1284 22.1113 2.66414 26.7802 2.80527C27.3227 2.80599 27.8588 2.925 28.3531 3.15444C28.8475 3.38388 29.2887 3.71851 29.6477 4.13618C32.28 7.36923 33.3238 11.7919 33.3238 16.9388C32.6872 20.1071 31.0986 21.0964 28.8735 20.6371C28.5219 20.574 28.161 20.5942 27.8182 20.696L25.2145 21.4262C22.6166 22.7512 19.9555 22.6511 17.2486 21.4262C16.8016 21.2424 16.3885 20.9815 16.027 20.6548C15.2356 19.8892 14.1517 19.8774 12.9244 20.2425C11.9473 20.6507 10.9014 20.8572 9.84646 20.8501C8.79157 20.843 7.74837 20.6226 6.7765 20.2013C4.74057 19.2591 1.73543 17.3216 1.08738 15.1309C0.840664 14.3245 0.71118 13.4851 0.703125 12.6399Z" stroke="#BDBDBD" stroke-miterlimit="10"/>
</svg>
