<svg width="29" height="20" viewBox="0 0 29 20" fill="none" xmlns="http://www.w3.org/2000/svg">
<path d="M17.9717 18.3584C21.2925 19.3032 23.9826 18.9954 26.0684 17.2783V17.2773C26.1929 17.173 26.3008 17.0508 26.3867 16.915L26.3945 16.9014C27.4755 15.3074 28.0812 13.4506 28.1445 11.5391C28.1375 8.32311 26.0439 5.74332 23.5791 3.08301L23.5771 3.08105C23.2307 2.70258 22.7939 2.41171 22.3057 2.23438C16.2537 0.0784021 10.3295 0.333478 4.4707 2.27832H4.46875C4.03209 2.42207 3.64916 2.68724 3.36523 3.03906C1.50306 5.44771 0.601632 8.48314 0.601562 12.1289V12.1914C0.611794 13.1889 0.995813 14.15 1.68359 14.8896L1.68555 14.8916C2.98344 16.303 4.41258 17.2636 6.00293 17.7168C7.58261 18.1669 9.36178 18.1276 11.3896 17.4766C13.3428 16.4842 15.6034 16.9935 17.9717 18.3584Z"  stroke="#BDBDBD"/>
</svg>
