<svg width="25" height="20" viewBox="0 0 25 20" fill="none" xmlns="http://www.w3.org/2000/svg">
<path d="M9.15332 18.5371C11.1259 19.1695 12.7566 18.9351 14.1123 17.835V17.834C14.4032 17.5889 14.7513 17.4211 15.123 17.3428L15.2842 17.3145L15.2959 17.3135L17.8398 17.0225L17.8486 17.0215C18.2206 16.9855 18.596 17.024 18.9531 17.1328L18.9541 17.1318C20.1506 17.4807 21.0378 17.4227 21.6816 17.0674C22.3225 16.7137 22.8345 16.0035 23.1455 14.8008L23.1465 14.7979C24.1119 11.1744 23.201 7.51978 20.7109 3.80469L20.71 3.80273C20.2148 3.05508 19.5021 2.46522 18.6611 2.10938L18.6533 2.10547C16.5648 1.17841 14.2945 0.704151 11.999 0.714844C9.70345 0.725555 7.43784 1.2214 5.3584 2.16797L5.35059 2.1709L5.07031 2.30469C4.42831 2.63681 3.87657 3.11347 3.46094 3.69531L3.45605 3.70117L3.24512 3.99512C2.21605 5.47683 1.53063 7.16057 1.23828 8.92871C0.926488 10.8148 1.07028 12.7465 1.6582 14.5693L1.65918 14.5713C1.88566 15.2824 2.35593 15.8992 2.99414 16.3174C3.63254 16.7356 4.40026 16.9295 5.16895 16.8643L5.21289 16.8604L5.25781 16.8643C6.3154 16.9647 7.32188 17.3616 8.15625 18.0078L8.16504 18.0137L8.17188 18.0205C8.45174 18.2559 8.7813 18.4303 9.1377 18.5322L9.14551 18.5342L9.15332 18.5371Z"  stroke="#BDBDBD"/>
</svg>
