<svg width="21" height="28" viewBox="0 0 21 28" fill="none" xmlns="http://www.w3.org/2000/svg">
<path d="M8.3457 26.6904C8.88474 26.9146 9.51188 26.9889 10.2285 26.9258C11.6741 26.7984 13.4 26.1202 15.3027 25.1455H15.3037C17.3336 24.0378 18.6289 22.5594 19.2129 20.6992C19.8009 18.8261 19.6884 16.4997 18.7666 13.6689L18.7568 13.6377L18.751 13.6064L17.2148 5.46387V5.45996C17.1006 4.82577 16.8506 4.22757 16.4854 3.70898C16.1202 3.19047 15.6491 2.76485 15.1074 2.46289L15.1025 2.45996C13.741 1.68096 12.2067 1.29112 10.6553 1.32715C9.10394 1.3632 7.58768 1.82439 6.26074 2.66602L6.25293 2.6709L6.24414 2.67578L6.08203 2.77539C5.28582 3.29132 4.69387 4.09822 4.42773 5.04785L2.12695 13.2998L2.11426 13.3418L2.0957 13.3809L1.89258 13.8291C0.946521 16.0392 1.06324 17.7915 1.73633 19.3057C2.47146 20.9591 3.89169 22.3829 5.52441 23.8135L5.53418 23.8213C6.06768 24.3122 6.53659 24.873 6.93066 25.4883C7.33445 26.0869 7.81148 26.4682 8.3457 26.6904Z" stroke="#BDBDBD"/>
</svg>
