<svg width="22" height="30" viewBox="0 0 22 30" fill="none" xmlns="http://www.w3.org/2000/svg">
<path d="M11.1074 28.9092C12.3821 29.0645 13.6695 28.7579 14.9941 27.6963L15.2598 27.4736L19.0635 24.1279L19.0674 24.125C19.5933 23.6705 20.0217 23.1002 20.3223 22.4521C20.8116 21.3942 21.0826 20.2369 21.1152 19.0586C21.1476 17.8893 20.9439 16.727 20.5205 15.6475C18.6212 12.2178 17.2252 8.50592 16.3799 4.6377V4.63574C16.2257 3.91731 15.9008 3.25457 15.4385 2.70898C14.9773 2.16476 14.3947 1.75534 13.7471 1.5166C11.9357 0.871357 9.97926 1.20014 7.83496 2.47461H7.83594C6.96892 2.99189 6.28566 3.80371 5.90234 4.78516V4.78613L1.80078 15.2178L1.79688 15.2275L1.79199 15.2373C0.472107 18.2238 0.42926 20.5547 1.29395 22.4023C2.16601 24.2655 4.01299 25.7503 6.71582 26.9219L6.7627 26.9424L6.80371 26.9717C8.2881 28.0144 9.71736 28.7397 11.1074 28.9092Z" stroke="#BDBDBD"/>
</svg>
