<svg width="35" height="24" viewBox="0 0 35 24" fill="none" xmlns="http://www.w3.org/2000/svg">
<path d="M33.2966 12.6396C33.2966 8.69393 30.5627 5.26057 26.6285 2.38079C25.8902 1.83561 25.0574 1.45082 24.178 1.24867C23.2987 1.04651 22.3902 1.03098 21.5052 1.20296C17.0636 2.12212 12.5589 2.65782 8.03559 2.8048C7.50991 2.80515 6.99031 2.924 6.51128 3.15346C6.03226 3.38293 5.60478 3.71778 5.25722 4.13575C2.70111 7.36888 1.69531 11.7916 1.69531 16.9387C2.30656 20.107 3.85134 21.0964 6.00736 20.6371C6.34786 20.5721 6.69798 20.5923 7.02982 20.696L9.55258 21.4262C12.0698 22.7513 14.6481 22.6511 17.2709 21.4262C17.7028 21.2397 18.1026 20.979 18.4545 20.6547C19.2214 19.8891 20.266 19.8774 21.4552 20.2366C22.4019 20.6491 23.4167 20.8579 24.4403 20.8508C25.4639 20.8437 26.476 20.6209 27.4176 20.1954C29.3847 19.259 32.302 17.3215 32.9299 15.1249C33.167 14.3201 33.2905 13.4827 33.2966 12.6396Z"  stroke="#BDBDBD" />
</svg>
