<svg width="30" height="20" viewBox="0 0 30 20" fill="none" xmlns="http://www.w3.org/2000/svg">
<path d="M2.99512 17.2646C5.19483 18.9981 7.96774 19.304 11.415 18.3564C13.8671 16.9856 16.1963 16.483 18.2061 17.4746C20.3132 18.1258 22.165 18.1657 23.8096 17.7139C25.4633 17.2594 26.9456 16.2964 28.29 14.8848L28.292 14.8828C29.0044 14.1423 29.4022 13.1858 29.418 12.1943V12.168C29.4179 8.50893 28.4844 5.47074 26.5557 3.05078C26.2598 2.69794 25.8599 2.42982 25.4004 2.28516L25.3975 2.28418C19.3282 0.33687 13.1834 0.0704756 6.90137 2.24121H6.90234C6.39215 2.41951 5.93801 2.71227 5.5791 3.0918L5.57715 3.09375L5.10352 3.59277C2.76502 6.08149 0.862593 8.52971 0.855469 11.5381C0.921229 13.4461 1.54684 15.3015 2.66602 16.8955L2.67188 16.9033L2.67773 16.9131C2.76204 17.0445 2.86961 17.1629 2.99609 17.2637L2.99512 17.2646Z" stroke="#BDBDBD"/>
</svg>
