<svg width="26" height="22" viewBox="0 0 26 22" fill="none" xmlns="http://www.w3.org/2000/svg">
<path d="M6.14108 2.65475C8.29563 1.69619 10.6377 1.20547 13.0054 1.21653C15.3732 1.22758 17.7103 1.74013 19.8554 2.71877C20.6965 3.08639 21.4198 3.66968 21.9483 4.4066C23.1421 6.02412 23.9325 7.89142 24.2566 9.85974C24.5806 11.8281 24.4292 13.843 23.8146 15.7442C23.5528 16.5664 23.011 17.2767 22.279 17.7572C21.547 18.2378 20.6687 18.4598 19.7898 18.3865C18.8233 18.4794 17.9045 18.8409 17.1423 19.4283C16.8053 19.6997 16.4131 19.8981 15.9915 20.0103C13.8926 20.6913 12.0681 20.4527 10.5535 19.2188C10.2979 18.9971 9.98017 18.8552 9.6412 18.8114L7.09514 18.5146C6.78575 18.4843 6.47326 18.516 6.17686 18.6077C3.65462 19.3468 2.00295 18.4855 1.3709 15.9246C0.357234 12.1124 1.33513 8.3119 3.87525 4.51137C4.4299 3.69095 5.21719 3.04584 6.14108 2.65475Z" stroke="#BDBDBD"/>
</svg>
