<svg width="20" height="31" viewBox="0 0 20 31" fill="none" xmlns="http://www.w3.org/2000/svg">
<path d="M8.97266 30.1025C9.46397 30.2419 10.0549 30.1416 10.7773 29.6777L11.0947 29.4561C12.0845 28.6881 12.8343 27.6515 13.2539 26.4688L13.2549 26.4639C15.3886 20.6401 17.087 14.6652 18.3369 8.58887C18.5597 6.93718 18.6219 5.50844 18.4385 4.41797C18.261 3.36296 17.875 2.73118 17.2969 2.44043L2.78516 1.34668C2.32893 1.40368 2.00985 1.55493 1.78418 1.76855C1.55025 1.99003 1.37646 2.31513 1.28027 2.77441C1.08323 3.71533 1.23844 5.10573 1.74023 6.91113L1.74414 6.92188L1.74609 6.93359C3.43651 14.292 5.31676 21.2526 6.93359 27.5576L6.93262 27.5586C6.99709 27.806 7.08811 28.0457 7.20215 28.2744C7.78726 29.3962 8.39397 29.9382 8.97266 30.1025Z"  stroke="#BDBDBD"/>
</svg>
