<svg width="24" height="27" viewBox="0 0 24 27" fill="none" xmlns="http://www.w3.org/2000/svg">
<path d="M7.85645 24.9814C10.42 26.3204 13.3329 26.2991 16.6299 24.8984L17.2949 24.5996C18.1602 24.1606 18.8228 23.4512 19.1729 22.6055L19.1768 22.5977L19.1797 22.5908C21.8983 16.5793 22.9293 11.7917 22.501 8.38086C22.3499 7.26736 21.7962 6.22942 20.9229 5.44336L20.9209 5.44238C17.9078 2.70795 14.9552 1.35534 12.0576 1.41113C9.16375 1.4669 6.21236 2.93002 3.2041 6.06445L3.2002 6.06738L2.96875 6.31543C1.84284 7.57464 1.20837 9.15347 1.16895 10.792C1.11336 14.6551 2.8885 18.6379 5.48242 22.7646L5.70898 23.1045C6.25829 23.8725 6.99165 24.5163 7.85645 24.9814Z" stroke="#BDBDBD"/>
</svg>
