<svg width="20" height="26" viewBox="0 0 20 26" fill="none" xmlns="http://www.w3.org/2000/svg">
<path d="M5.49023 24.2822C7.86443 25.2917 10.6296 25.0433 13.7588 23.7109L13.7607 23.71C14.3304 23.4698 14.8488 23.1019 15.2812 22.6289C15.7139 22.1556 16.0505 21.5873 16.2666 20.9609C17.1115 18.4955 17.9421 16.0585 18.4844 13.7588C19.0269 11.458 19.2689 9.33967 18.9678 7.50684C18.8057 6.58677 18.3667 5.75502 17.7246 5.1377L17.7197 5.13281C15.0782 2.52514 12.4854 1.27977 9.92676 1.41895C7.36505 1.55837 4.69479 3.09345 1.91797 6.36816L1.73926 6.59375C1.34138 7.13623 1.07571 7.78232 0.970703 8.47266L0.969727 8.47461C0.241024 13.16 1.214 17.6949 3.36133 22.1514L3.36328 22.1572C3.78697 23.0636 4.4801 23.7799 5.32031 24.2012L5.49023 24.2822Z"  stroke="#BDBDBD"/>
</svg>
