<svg width="34" height="24" viewBox="0 0 34 24" fill="none" xmlns="http://www.w3.org/2000/svg">
<path d="M6.58984 22.0459C13.4724 23.1906 20.6295 22.9476 28.0166 21.5635H28.0186C28.8726 21.4075 29.6484 20.9753 30.2236 20.3379V20.3389C30.8056 19.6931 31.2525 18.9409 31.5391 18.126C32.4228 15.189 32.8456 12.136 32.7939 9.07324V9.06543C32.7939 8.32189 32.7938 7.59328 32.7393 6.85742V6.84961L32.7383 6.8418C32.6949 5.8158 32.26 4.84256 31.5186 4.11621C29.9378 2.59188 28.1662 1.70009 26.1738 1.46973C24.1781 1.23908 21.9166 1.66697 19.3535 2.86035C18.3044 3.50425 17.1053 3.8712 15.8711 3.9248C14.643 3.97807 13.4213 3.71962 12.3232 3.1748C9.26189 2.35667 6.6216 2.10429 4.69531 3.07812C2.81988 4.02641 1.44405 6.24167 1.17871 10.8447C1.44556 13.3591 1.964 15.8415 2.72559 18.2559C3.13813 19.556 4.04205 20.6535 5.25391 21.3184L5.25488 21.3174L6.58984 22.0459Z" stroke="#BDBDBD"/>
</svg>
