<svg width="30" height="24" viewBox="0 0 30 24" fill="none" xmlns="http://www.w3.org/2000/svg">
<path d="M3.50293 20.9756C11.0197 23.5803 18.6689 23.3301 26.4541 20.3809C26.8459 20.2197 27.1953 19.9623 27.4707 19.6289C27.7121 19.3367 27.8904 18.9944 27.9932 18.625L28.0322 18.4648L28.0342 18.4561C28.6824 15.6807 29.1294 12.8592 29.3721 10.0156V10.0137C29.4052 9.64411 29.417 9.27096 29.417 8.8916V8.88477C29.4363 7.39495 29.1442 5.91898 28.5625 4.55566C28.0274 3.36651 27.3682 2.57213 26.6221 2.08105C25.8781 1.59143 25.0101 1.37764 24.0127 1.41309C21.9924 1.48496 19.4948 2.57679 16.6523 4.38574C15.9517 4.96007 15.203 5.2659 14.415 5.25879C13.621 5.25154 12.8557 4.92779 12.1289 4.375L12.084 4.3418L12.0479 4.29883C10.6823 2.67114 9.27969 1.83909 7.81543 1.81543C6.34432 1.79171 4.66132 2.58027 2.73242 4.54102H2.7334C1.63582 5.67432 0.968335 7.17752 0.855469 8.77832V9.35254C0.855486 10.4646 0.943642 12.5465 1.07422 14.5C1.13942 15.4755 1.21509 16.4136 1.29492 17.1777C1.37657 17.9593 1.4577 18.5142 1.52734 18.7539H1.52832L1.53125 18.7646C1.66601 19.2709 1.91613 19.7358 2.25977 20.1201C2.60319 20.504 3.02951 20.7974 3.50293 20.9756Z"  stroke="#BDBDBD"/>
</svg>
