<svg width="28" height="24" viewBox="0 0 28 24" fill="none" xmlns="http://www.w3.org/2000/svg">
<path d="M26.2317 18.5026C26.053 19.028 25.9078 19.565 25.7972 20.1101C25.5571 21.5108 24.9225 22.3973 23.8133 22.6691C17.4681 23.6385 11.007 23.4385 4.72927 22.0781C3.41431 21.3098 2.56244 19.9919 2.19082 18.0889C1.2642 14.9714 0.854404 11.7144 0.978777 8.45559C1.02301 6.84458 1.58641 5.29497 2.57959 4.05264C5.55254 0.364795 9.01145 0.441621 12.7619 2.82926C13.3342 3.19126 13.992 3.38282 14.6629 3.38282C15.3338 3.38282 15.9917 3.19126 16.5639 2.82926C19.594 0.695751 22.2411 0.264333 24.4365 1.91913C25.6987 2.94506 26.5465 4.41972 26.8149 6.05613L27.1636 7.90597C27.453 9.37538 27.532 10.8808 27.398 12.3739C27.2124 14.4526 26.8215 16.5061 26.2317 18.5026Z" stroke="#BDBDBD" stroke-miterlimit="10"/>
</svg>
