<svg width="17" height="33" viewBox="0 0 17 33" fill="none" xmlns="http://www.w3.org/2000/svg">
<path d="M9.4707 32.2695C10.3029 32.4917 11.1116 32.2958 11.9395 31.5596C12.7167 30.8249 13.2072 29.819 13.3184 28.7334L13.3359 28.5156L13.3369 28.5029C13.7568 23.2645 14.5531 18.066 15.7197 12.9512L15.958 11.9297C16.5018 9.29277 16.5009 6.56629 15.9551 3.92969L15.9492 3.9043L15.9473 3.87793C15.8685 3.09805 15.5787 2.55659 15.1367 2.17578C14.6883 1.78947 14.0378 1.5304 13.1699 1.40918H3.04199C2.26331 1.61853 1.75845 2.08422 1.44727 2.78613C1.11871 3.52733 1.00081 4.54719 1.07715 5.81738C2.21542 13.2554 3.67525 20.607 5.45703 27.8721L5.45801 27.875C5.64656 28.6671 6.01195 29.4012 6.52246 30.0186C7.60671 31.3138 8.59301 32.0352 9.4707 32.2695Z" stroke="#BDBDBD"/>
</svg>
