<svg width="25" height="27" viewBox="0 0 25 27" fill="none" xmlns="http://www.w3.org/2000/svg">
<path d="M6.97168 24.6025C10.7032 26.2875 13.9849 26.4101 16.8574 24.9834H16.8584C17.8927 24.4506 18.7496 23.6894 19.3496 22.7793L19.3506 22.7773C21.9917 18.811 23.7945 14.9485 23.8506 11.1699V10.8037C23.7999 9.06389 23.0533 7.3884 21.7305 6.08789L21.7285 6.08594C18.5706 2.94852 15.4724 1.47151 12.4307 1.41211C9.38614 1.35272 6.29528 2.71197 3.14844 5.46191L3.14648 5.46289L2.97949 5.61426C2.16189 6.38549 1.64714 7.36615 1.50293 8.4082C1.05767 11.8377 2.1333 16.6286 4.9707 22.6123L4.97559 22.6221C5.32722 23.4104 5.96681 24.0811 6.80176 24.5186L6.97168 24.6025Z" stroke="#BDBDBD"/>
</svg>
