<svg width="21" height="26" viewBox="0 0 21 26" fill="none" xmlns="http://www.w3.org/2000/svg">
<path d="M6.52832 23.7109C9.80473 25.0393 12.7534 25.2936 15.2695 24.2832V24.2822C16.2435 23.8696 17.0425 23.1146 17.5186 22.1514L17.5205 22.1475C19.781 17.6691 20.802 13.1564 20.0361 8.47852C19.9066 7.69487 19.561 6.96588 19.04 6.37695C16.1209 3.10395 13.304 1.55936 10.5879 1.41895C8.04318 1.28743 5.47493 2.38275 2.87012 4.66895L2.34961 5.1416L2.3457 5.14551L2.10156 5.3877C1.63516 5.89147 1.29547 6.50419 1.11328 7.17285L1.03613 7.51172C0.723046 9.3395 0.976867 11.4533 1.54688 13.7529C2.11676 16.052 2.9885 18.4898 3.87793 20.958L3.87891 20.957C4.10584 21.581 4.45958 22.1487 4.91602 22.623C5.37238 23.0972 5.92096 23.4682 6.52637 23.7109H6.52832Z" stroke="#BDBDBD"/>
</svg>
