<svg width="35" height="24" viewBox="0 0 35 24" fill="none" xmlns="http://www.w3.org/2000/svg">
<path d="M1.20801 9.07422C1.15438 12.137 1.5904 15.1903 2.50195 18.1279C2.79608 18.9413 3.25691 19.6924 3.85938 20.3369L3.86133 20.3389C4.37884 20.8979 5.05774 21.3007 5.81348 21.4971L6.1416 21.5684L6.15039 21.5703C13.4403 22.9923 20.9385 23.1541 28.2881 22.0488L29.667 21.3252C30.911 20.6516 31.8311 19.5522 32.2451 18.2588L32.2461 18.2559C33.0349 15.8417 33.5682 13.3587 33.8408 10.8438C33.5696 6.24897 32.1615 4.02808 30.2266 3.07422C28.2363 2.09321 25.5079 2.34768 22.3467 3.1748C21.2157 3.72168 19.9572 3.98085 18.6924 3.92773C17.4198 3.87428 16.1823 3.50666 15.1006 2.85938C12.4567 1.6686 10.1184 1.23892 8.05176 1.46973C6.11478 1.68606 4.38176 2.4861 2.8291 3.84375L2.52051 4.12207C1.75337 4.84843 1.30712 5.82112 1.26465 6.8418V6.84375C1.23011 7.59652 1.20802 8.34028 1.20801 9.06543V9.07422Z" stroke="#BDBDBD"/>
</svg>
