<svg width="30" height="24" viewBox="0 0 30 24" fill="none" xmlns="http://www.w3.org/2000/svg">
<path d="M3.55859 20.3916C11.347 23.3382 18.995 23.5654 26.5176 20.9873C26.9915 20.8091 27.418 20.5162 27.7617 20.1328C28.1063 19.7484 28.3573 19.2837 28.4922 18.7773C28.5573 18.529 28.6351 17.968 28.7129 17.1885C28.7893 16.423 28.8626 15.4844 28.9268 14.5098C29.0552 12.5572 29.1445 10.4795 29.1445 9.37305V8.80176C29.0416 7.19096 28.3745 5.67552 27.2695 4.53418C25.3397 2.57594 23.6579 1.78567 22.1875 1.80859C20.7247 1.83154 19.3225 2.66193 17.957 4.28906L17.9219 4.33203L17.877 4.36621C17.148 4.92025 16.3827 5.24472 15.5889 5.25195C14.8014 5.25912 14.0542 4.95294 13.3545 4.37793C10.5086 2.57532 8.01131 1.48483 5.99121 1.41309C4.99388 1.37768 4.12639 1.59115 3.38281 2.08008C2.63737 2.57024 1.97739 3.3624 1.44238 4.5498H1.44336C0.930235 5.72995 0.640682 6.99837 0.589844 8.28711L0.583008 8.84082V8.84766C0.583008 9.24701 0.583423 9.61493 0.630859 9.97754L0.632812 9.98926L0.633789 10C0.873432 12.856 1.32681 15.6891 1.98926 18.4736L1.99121 18.4854C2.08282 18.9146 2.27612 19.3135 2.55176 19.6465C2.82472 19.9761 3.17046 20.2315 3.55859 20.3916Z" stroke="#BDBDBD"/>
</svg>
