<svg width="29" height="24" viewBox="0 0 29 24" fill="none" xmlns="http://www.w3.org/2000/svg">
<path d="M4.39746 22.1797C10.6 23.0876 16.9119 22.9519 23.0693 21.7783L23.0791 21.7764C23.7817 21.6568 24.427 21.3167 24.9209 20.8066C25.6284 20.0173 26.1017 19.0485 26.2891 18.0078L26.2949 17.9775L26.3037 17.9482C27.2516 14.8797 27.6701 11.6734 27.54 8.46582H27.5391V8.45996C27.4955 6.96382 26.9527 5.52429 25.9951 4.36914C24.519 2.60654 22.966 1.79053 21.3584 1.66113C19.7344 1.53042 17.9712 2.09401 16.0752 3.25879L16.0723 3.25977L15.8154 3.4043C15.2057 3.71833 14.528 3.88275 13.8389 3.88281C13.0511 3.88281 12.278 3.6672 11.6045 3.25977L11.5928 3.25293L11.582 3.24609C10.0512 2.20372 8.65408 1.60533 7.39648 1.4502C6.15869 1.29758 5.03337 1.56985 4.00586 2.31348C2.79584 3.26149 1.98393 4.62299 1.72656 6.13281L1.72461 6.1416L1.72363 6.14941L1.33789 8.03223C1.04765 9.44947 0.968272 10.9016 1.10254 12.3418V12.3438C1.28422 14.3848 1.67538 16.4024 2.26953 18.3643L2.26855 18.3652C2.40861 18.768 2.53068 19.1766 2.63086 19.5908L2.72559 20.0137L2.72852 20.0273C2.84355 20.6731 3.04564 21.1588 3.31934 21.5049C3.58371 21.839 3.93316 22.0672 4.39746 22.1797Z"  stroke="#BDBDBD"/>
</svg>
