<svg width="19" height="32" viewBox="0 0 19 32" fill="none" xmlns="http://www.w3.org/2000/svg">
  <path d="M14.9326 30.8203C15.5751 30.9588 16.2406 30.8647 16.8389 30.5488C17.0397 30.3847 17.2152 30.1771 17.3516 29.9326C17.4949 29.6756 17.5922 29.3861 17.6357 29.0811L17.6387 29.0615L17.6426 29.043C17.8421 28.1469 17.8552 27.2103 17.6797 26.3076L17.6699 26.2598V26.168C17.6696 26.1658 17.6693 26.1635 17.6689 26.1611C17.6647 26.1314 17.6578 26.0866 17.6494 26.0283C17.6326 25.9117 17.6082 25.7392 17.5752 25.5176C17.5091 25.0742 17.4104 24.4327 17.2832 23.6426C17.0288 22.0619 16.6576 19.8864 16.1904 17.5068C15.2521 12.7278 13.9388 7.19019 12.4258 3.9668L12.4229 3.95996C12.0048 3.03577 11.3922 2.24962 10.6455 1.66797C10.0488 1.21884 9.51441 1.01397 9.03613 1.00098C8.56861 0.988379 8.08956 1.15767 7.58887 1.58398C7.05465 2.06255 6.63866 2.69995 6.3916 3.43359V3.43457L6.3877 3.44531L6.00098 4.55664C4.10344 10.2294 2.69066 17.7325 1.47363 24.9736C1.48099 25.5991 1.5527 26.2212 1.68848 26.8271C1.89213 27.6076 2.28834 28.2988 2.82227 28.8223C3.35589 29.3453 4.00396 29.6789 4.6875 29.793L14.877 30.8115L14.9053 30.8145L14.9326 30.8203Z" fill="white" stroke="#BDBDBD" />
</svg>