<svg width="21" height="34" viewBox="0 0 21 34" fill="none" xmlns="http://www.w3.org/2000/svg">
  <path d="M11.8477 33.0137C12.7605 33.0201 13.5612 32.6238 14.3809 31.6885L14.3926 31.6758L14.4043 31.6641C16.432 29.6419 18.1018 27.2411 19.332 24.5781C20.6463 21.1488 20.6454 17.3017 19.3291 13.873L19.3193 13.8457L19.3115 13.8164C18.3017 9.84201 16.5888 6.1143 14.2686 2.83398C13.1945 1.77539 12.1876 1.22609 11.2471 1.05859C10.4238 0.912015 9.60578 1.04879 8.7793 1.45898L8.4248 1.65234C7.29269 2.37597 6.38526 3.45222 5.82715 4.74512L5.82324 4.75391C4 8.76988 2.91042 12.8941 1.42773 17.2686C0.888474 19.0759 0.784648 21.0012 1.12793 22.8633C1.37832 24.0614 1.94358 25.1537 2.75293 26.0107L2.75391 26.0098L2.76172 26.0186C3.34365 26.6622 3.86761 27.2834 4.35156 27.8633C4.83773 28.4458 5.27929 28.9814 5.70703 29.4668C6.56667 30.4422 7.32319 31.1586 8.15332 31.5693L8.17676 31.5811L8.19824 31.5947C9.72877 32.562 10.8943 33.0069 11.8477 33.0137Z" fill="white" stroke="#BDBDBD" />
</svg>