<svg width="33" height="22" viewBox="0 0 33 22" fill="none" xmlns="http://www.w3.org/2000/svg">
  <path d="M16.8428 19.9639C19.4332 21.1462 21.9321 21.2284 24.373 19.9736L24.418 19.9502L24.4668 19.9365L27.0625 19.21V19.209C27.48 19.0851 27.9203 19.0609 28.3486 19.1377L28.3584 19.1396C29.3848 19.3448 30.1786 19.2069 30.7852 18.7363C31.4002 18.259 31.9136 17.37 32.2217 15.874C32.215 10.7882 31.1798 6.54455 28.6582 3.4502C28.3468 3.09091 27.9662 2.8036 27.541 2.60645C27.1121 2.40757 26.6474 2.30433 26.1777 2.30371H26.1631C21.7596 2.17071 17.3732 1.68894 13.043 0.863281L12.1777 0.693359C11.3321 0.534941 10.4643 0.549558 9.62402 0.736328C8.78154 0.923602 7.98299 1.28077 7.27441 1.78711L7.27246 1.78809C3.25397 4.63354 0.602394 7.93847 0.601562 11.627C0.604606 12.4266 0.72313 13.2217 0.953125 13.9854L0.954102 13.9873C1.23458 14.9342 2.05134 15.8847 3.1123 16.7383C4.15618 17.5781 5.37408 18.2745 6.3623 18.7354C7.27261 19.1295 8.24908 19.3361 9.23633 19.3428C10.2237 19.3494 11.2038 19.1564 12.1191 18.7744L12.1436 18.7637L12.1689 18.7568C13.4545 18.3748 14.7463 18.3351 15.749 19.2764C16.068 19.5644 16.432 19.7945 16.8252 19.9561L16.8428 19.9639Z" fill="white" stroke="#BDBDBD" />
</svg>