<svg width="30" height="20" viewBox="0 0 30 20" fill="none" xmlns="http://www.w3.org/2000/svg">
  <path d="M18.3701 18.3584C21.6909 19.3032 24.3811 18.9954 26.4668 17.2783V17.2773C26.5913 17.173 26.6992 17.0508 26.7852 16.915L26.793 16.9014C27.8739 15.3074 28.4796 13.4506 28.543 11.5391C28.5359 8.32311 26.4424 5.74332 23.9775 3.08301L23.9756 3.08105C23.6292 2.70258 23.1924 2.41171 22.7041 2.23438C16.6522 0.0784021 10.7279 0.333478 4.86914 2.27832H4.86719C4.43052 2.42207 4.0476 2.68724 3.76367 3.03906C1.9015 5.44771 1.00007 8.48314 1 12.1289V12.1914C1.01023 13.1889 1.39425 14.15 2.08203 14.8896L2.08398 14.8916C3.38188 16.303 4.81102 17.2636 6.40137 17.7168C7.98104 18.1669 9.76022 18.1276 11.7881 17.4766C13.7412 16.4842 16.0018 16.9935 18.3701 18.3584Z" fill="white" stroke="#BDBDBD" />
</svg>