<svg width="26" height="33" viewBox="0 0 26 33" fill="none" xmlns="http://www.w3.org/2000/svg">
  <path d="M4.63672 31.9473C10.7532 31.8758 16.8005 32.1362 22.9131 31.1094C23.8897 30.8899 24.523 30.0941 24.8271 28.7686C25.1323 27.4384 25.0707 25.6802 24.7197 23.792C22.7399 16.6844 19.8378 9.873 16.0889 3.53613L16.0859 3.53027C15.686 2.83165 15.1443 2.22722 14.498 1.75488C13.6891 1.19461 12.8767 0.942832 12.0352 1.01074C11.1848 1.07938 10.2435 1.47901 9.19727 2.33203C8.04635 3.29029 7.13746 4.5106 6.54395 5.8916L6.42969 6.16992C3.95048 12.4585 2.09489 18.9797 0.889648 25.6367L0.657227 26.9707C0.348519 28.8721 0.670673 30.041 1.32227 30.7578C1.98392 31.4856 3.09302 31.8702 4.63672 31.9473Z" fill="white" stroke="#BDBDBD" />
</svg>