<svg width="20" height="32" viewBox="0 0 20 32" fill="none" xmlns="http://www.w3.org/2000/svg">
  <path d="M1.33496 26.2559L1.3252 26.3047C1.1426 27.2069 1.15545 28.1422 1.36328 29.0381L1.36719 29.0547L1.37012 29.0713C1.41947 29.3743 1.52473 29.6624 1.67871 29.9189C1.82609 30.1645 2.01568 30.3749 2.23438 30.542C2.87663 30.8641 3.59556 30.9605 4.29004 30.8184L4.31641 30.8135L4.34375 30.8105L15.1309 29.792C15.8646 29.674 16.5554 29.3343 17.1201 28.8086C17.6853 28.2824 18.1004 27.5911 18.3125 26.8154C18.4553 26.2143 18.5318 25.5977 18.5439 24.9775C17.1642 17.2481 15.5568 9.23495 13.3467 3.45703L13.3428 3.44629C13.0798 2.71142 12.6361 2.07039 12.0635 1.58691C11.5518 1.1658 11.0378 0.988506 10.5205 1.00098C10.0594 1.01219 9.55499 1.175 9.01074 1.5166L8.77441 1.67383C7.98271 2.25994 7.33699 3.04889 6.89844 3.97168L6.89551 3.97852L6.59961 4.60938C5.13371 7.88946 3.85146 13.0328 2.91504 17.5107C2.41765 19.8893 2.0212 22.0637 1.74902 23.6436C1.61296 24.4333 1.50739 25.0744 1.43652 25.5176C1.40113 25.7389 1.37447 25.9109 1.35645 26.0273C1.34743 26.0856 1.34046 26.1304 1.33594 26.1602C1.33558 26.1625 1.33529 26.1648 1.33496 26.167V26.2559Z" fill="white" stroke="#BDBDBD" />
</svg>