<svg width="20" height="34" viewBox="0 0 20 34" fill="none" xmlns="http://www.w3.org/2000/svg">
  <path d="M8.71875 33.0137C9.61425 33.0069 10.7197 32.5687 12.1758 31.6025L12.1963 31.5879L12.2188 31.5762C13.0001 31.1655 13.7165 30.4507 14.5342 29.4746C14.9407 28.9893 15.3604 28.4538 15.8232 27.8721C16.2839 27.293 16.7833 26.6733 17.3379 26.0312L17.3418 26.0264C18.01 25.2731 18.5034 24.341 18.7754 23.3145L18.8789 22.8682C19.2091 21.0123 19.1142 19.0922 18.6045 17.29C17.2816 13.1864 16.2884 9.30026 14.7354 5.51855L14.417 4.76367L14.4131 4.75391C13.8832 3.45136 13.0161 2.37318 11.9385 1.6543C11.0479 1.0874 10.1787 0.890942 9.30469 1.05957C8.42422 1.22951 7.47338 1.78248 6.45117 2.83984C4.24783 6.11879 2.61913 9.84448 1.65527 13.8174L1.64844 13.8447L1.63867 13.8701L1.52539 14.1943C0.394711 17.5414 0.429943 21.2538 1.63086 24.5781C2.80581 27.2447 4.39625 29.6479 6.32422 31.6738L6.33691 31.6875L6.34766 31.7012C7.11446 32.634 7.86698 33.02 8.71875 33.0137Z" fill="white" stroke="#BDBDBD" />
</svg>