<svg width="34" height="22" viewBox="0 0 34 22" fill="none" xmlns="http://www.w3.org/2000/svg">
  <path d="M16.3799 19.9639C13.7894 21.1462 11.2906 21.2284 8.84961 19.9736L8.80469 19.9502L8.75586 19.9365L6.16016 19.21V19.209C5.7427 19.0851 5.3024 19.0609 4.87402 19.1377L4.86426 19.1396C3.83784 19.3448 3.04401 19.2069 2.4375 18.7363C1.82247 18.259 1.30902 17.37 1.00098 15.874C1.00764 10.7882 2.04283 6.54455 4.56445 3.4502C4.87587 3.09091 5.25644 2.8036 5.68164 2.60645C6.11056 2.40757 6.57521 2.30433 7.04492 2.30371H7.05957C11.463 2.17071 15.8494 1.68894 20.1797 0.863281L21.0449 0.693359C21.8906 0.534941 22.7584 0.549558 23.5986 0.736328C24.4411 0.923602 25.2397 1.28077 25.9482 1.78711L25.9502 1.78809C29.9687 4.63354 32.6203 7.93847 32.6211 11.627C32.618 12.4266 32.4995 13.2217 32.2695 13.9854L32.2686 13.9873C31.9881 14.9342 31.1713 15.8847 30.1104 16.7383C29.0665 17.5781 27.8486 18.2745 26.8604 18.7354C25.95 19.1295 24.9736 19.3361 23.9863 19.3428C22.9989 19.3494 22.0189 19.1564 21.1035 18.7744L21.0791 18.7637L21.0537 18.7568C19.7682 18.3748 18.4764 18.3351 17.4736 19.2764C17.1547 19.5644 16.7907 19.7945 16.3975 19.9561L16.3799 19.9639Z" fill="white" stroke="#BDBDBD" />
</svg>