<svg width="29" height="20" viewBox="0 0 29 20" fill="none" xmlns="http://www.w3.org/2000/svg">
  <path d="M10.8525 18.3584C7.53175 19.3032 4.84158 18.9954 2.75586 17.2783V17.2773C2.63131 17.173 2.52342 17.0508 2.4375 16.915L2.42969 16.9014C1.34872 15.3074 0.743008 13.4506 0.679688 11.5391C0.68675 8.32311 2.78028 5.74332 5.24512 3.08301L5.24707 3.08105C5.59347 2.70258 6.03029 2.41171 6.51855 2.23438C12.5705 0.0784021 18.4948 0.333478 24.3535 2.27832H24.3555C24.7921 2.42207 25.1751 2.68724 25.459 3.03906C27.3212 5.44771 28.2226 8.48314 28.2227 12.1289V12.1914C28.2124 13.1889 27.8284 14.15 27.1406 14.8896L27.1387 14.8916C25.8408 16.303 24.4116 17.2636 22.8213 17.7168C21.2416 18.1669 19.4624 18.1276 17.4346 17.4766C15.4814 16.4842 13.2208 16.9935 10.8525 18.3584Z" fill="white" stroke="#BDBDBD" />
</svg>