<svg width="16" height="33" viewBox="0 0 16 33" fill="none" xmlns="http://www.w3.org/2000/svg">
  <path d="M4.80859 31.5703C5.58096 32.3041 6.3212 32.487 7.07617 32.2715C7.88426 32.0407 8.80444 31.3278 9.82227 30.0342L9.82324 30.0322C10.3114 29.416 10.6641 28.6781 10.8496 27.877V27.8779C12.4829 20.6053 13.8411 13.25 14.9268 5.8125C14.9952 4.53596 14.8837 3.51032 14.5742 2.76562C14.2814 2.06109 13.8151 1.60907 13.1133 1.40918H3.62305C2.81921 1.52899 2.22043 1.78354 1.80664 2.16406C1.39609 2.54178 1.1202 3.08561 1.04297 3.875L1.04102 3.89844L1.03711 3.9209L0.947266 4.41797C0.531153 6.90772 0.560526 9.46625 1.03613 11.9463C2.17736 17.0444 2.9738 22.2286 3.41699 27.4561L3.50098 28.5029L3.50195 28.5156C3.56126 29.693 4.03484 30.7886 4.80859 31.5703Z" fill="white" stroke="#BDBDBD" />
</svg>