<svg width="20" height="34" viewBox="0 0 20 34" fill="none" xmlns="http://www.w3.org/2000/svg">
  <path d="M7.76953 32.6338C8.60332 33.2659 9.39767 33.4584 10.1777 33.3086C10.982 33.1541 11.8501 32.6201 12.7783 31.6396C13.1053 31.2924 13.3636 30.87 13.5342 30.3994V30.3984C14.9768 26.4367 16.6531 22.4598 17.7881 18.6523C18.9211 14.8516 19.4761 11.3333 18.7344 8.3291C18.5479 7.62448 18.2225 6.97869 17.7861 6.43555L17.5928 6.20898L17.5859 6.20117C14.6886 2.8965 11.9702 1.34099 9.43066 1.34375C6.90359 1.34661 4.37049 2.89468 1.8418 6.23926C1.64845 6.49484 1.48572 6.7787 1.3584 7.08301C0.241346 9.81341 0.658209 13.4575 1.8125 17.6084C2.96367 21.7479 4.80211 26.2464 6.40625 30.6689L6.4082 30.6768C6.68074 31.4674 7.15632 32.1466 7.76953 32.6338Z" fill="white" stroke="#BDBDBD" />
</svg>