<svg width="34" height="24" viewBox="0 0 34 24" fill="none" xmlns="http://www.w3.org/2000/svg">
  <path d="M6.41211 22.0469C13.2946 23.1916 20.4518 22.9486 27.8389 21.5645H27.8408C28.6948 21.4084 29.4707 20.9763 30.0459 20.3389V20.3398C30.6279 19.694 31.0748 18.9419 31.3613 18.127C32.2451 15.19 32.6679 12.1369 32.6162 9.07422V9.06641C32.6162 8.32287 32.6161 7.59425 32.5615 6.8584V6.85059L32.5605 6.84277C32.5171 5.81678 32.0823 4.84353 31.3408 4.11719C29.7601 2.59286 27.9885 1.70106 25.9961 1.4707C24.0004 1.24005 21.7389 1.66794 19.1758 2.86133C18.1267 3.50522 16.9276 3.87217 15.6934 3.92578C14.4652 3.97904 13.2435 3.7206 12.1455 3.17578C9.08416 2.35765 6.44387 2.10526 4.51758 3.0791C2.64215 4.02739 1.26632 6.24265 1.00098 10.8457C1.26783 13.3601 1.78627 15.8424 2.54785 18.2568C2.9604 19.5569 3.86432 20.6545 5.07617 21.3193L5.07715 21.3184L6.41211 22.0469Z" fill="white" stroke="#BDBDBD" />
</svg>