<svg width="30" height="24" viewBox="0 0 30 24" fill="none" xmlns="http://www.w3.org/2000/svg">
  <path d="M3.3252 20.9766C10.842 23.5812 18.4911 23.3311 26.2764 20.3818C26.6682 20.2207 27.0176 19.9632 27.293 19.6299C27.5343 19.3377 27.7127 18.9954 27.8154 18.626L27.8545 18.4658L27.8564 18.457C28.5047 15.6816 28.9516 12.8602 29.1943 10.0166V10.0146C29.2275 9.64509 29.2393 9.27194 29.2393 8.89258V8.88574C29.2586 7.39592 28.9665 5.91996 28.3848 4.55664C27.8496 3.36748 27.1905 2.57311 26.4443 2.08203C25.7003 1.59241 24.8324 1.37861 23.835 1.41406C21.8146 1.48594 19.317 2.57777 16.4746 4.38672C15.774 4.96104 15.0253 5.26688 14.2373 5.25977C13.4433 5.25252 12.678 4.92876 11.9512 4.37598L11.9062 4.34277L11.8701 4.2998C10.5046 2.67211 9.10195 1.84006 7.6377 1.81641C6.16658 1.79269 4.48358 2.58125 2.55469 4.54199H2.55566C1.45809 5.6753 0.790601 7.17849 0.677734 8.7793V9.35352C0.677752 10.4656 0.765907 12.5475 0.896484 14.501C0.96169 15.4765 1.03736 16.4145 1.11719 17.1787C1.19883 17.9603 1.27997 18.5152 1.34961 18.7549H1.35059L1.35352 18.7656C1.48828 19.2719 1.73839 19.7368 2.08203 20.1211C2.42546 20.505 2.85178 20.7984 3.3252 20.9766Z" fill="white" stroke="#BDBDBD" />
</svg>