<svg width="31" height="24" viewBox="0 0 31 24" fill="none" xmlns="http://www.w3.org/2000/svg">
  <path d="M3.97656 20.3926C11.765 23.3392 19.413 23.5664 26.9355 20.9883C27.4095 20.8101 27.836 20.5172 28.1797 20.1338C28.5243 19.7494 28.7753 19.2847 28.9102 18.7783C28.9753 18.53 29.0531 17.969 29.1309 17.1895C29.2073 16.4239 29.2806 15.4854 29.3447 14.5107C29.4732 12.5582 29.5625 10.4804 29.5625 9.37402V8.80273C29.4596 7.19194 28.7925 5.6765 27.6875 4.53516C25.7577 2.57691 24.0758 1.78665 22.6055 1.80957C21.1427 1.83252 19.7405 2.66291 18.375 4.29004L18.3398 4.33301L18.2949 4.36719C17.566 4.92122 16.8007 5.24569 16.0068 5.25293C15.2194 5.2601 14.4722 4.95391 13.7725 4.37891C10.9266 2.5763 8.42928 1.4858 6.40918 1.41406C5.41185 1.37865 4.54436 1.59212 3.80078 2.08105C3.05534 2.57121 2.39536 3.36338 1.86035 4.55078H1.86133C1.3482 5.73093 1.05865 6.99935 1.00781 8.28809L1.00098 8.8418V8.84863C1.00098 9.24798 1.00139 9.61591 1.04883 9.97852L1.05078 9.99023L1.05176 10.001C1.2914 12.8569 1.74478 15.69 2.40723 18.4746L2.40918 18.4863C2.50079 18.9156 2.69409 19.3145 2.96973 19.6475C3.24269 19.977 3.58843 20.2324 3.97656 20.3926Z" fill="white" stroke="#BDBDBD" />
</svg>