<svg width="34" height="24" viewBox="0 0 34 24" fill="none" xmlns="http://www.w3.org/2000/svg">
  <path d="M0.625977 9.0752C0.57235 12.138 1.00837 15.1913 1.91992 18.1289C2.21405 18.9423 2.67488 19.6934 3.27734 20.3379L3.2793 20.3398C3.79681 20.8989 4.47571 21.3016 5.23145 21.498L5.55957 21.5693L5.56836 21.5713C12.8583 22.9933 20.3564 23.155 27.7061 22.0498L29.085 21.3262C30.329 20.6525 31.2491 19.5532 31.6631 18.2598L31.6641 18.2568C32.4528 15.8427 32.9862 13.3596 33.2588 10.8447C32.9876 6.24994 31.5794 4.02905 29.6445 3.0752C27.6542 2.09419 24.9259 2.34865 21.7646 3.17578C20.6337 3.72266 19.3752 3.98182 18.1104 3.92871C16.8378 3.87526 15.6002 3.50764 14.5186 2.86035C11.8747 1.66958 9.53635 1.2399 7.46973 1.4707C5.53274 1.68703 3.79972 2.48708 2.24707 3.84473L1.93848 4.12305C1.17133 4.84941 0.725085 5.82209 0.682617 6.84277V6.84473C0.648079 7.59749 0.625986 8.34125 0.625977 9.06641V9.0752Z" fill="white" stroke="#BDBDBD" />
</svg>