<svg width="21" height="34" viewBox="0 0 21 34" fill="none" xmlns="http://www.w3.org/2000/svg">
  <path d="M10.3203 33.3076C11.109 33.4507 11.9074 33.282 12.7363 32.7305L12.9023 32.6152C13.5444 32.1218 14.0368 31.4416 14.3164 30.6562L14.3203 30.6455C16.0094 26.218 17.9432 21.7218 19.1533 17.5859C20.3671 13.4374 20.8016 9.80572 19.6279 7.08691C19.4954 6.78441 19.3248 6.50242 19.1211 6.24805L19.1201 6.24707C16.4605 2.90714 13.7864 1.34652 11.1035 1.34375C8.40912 1.34102 5.54029 2.90799 2.49512 6.20898L2.48828 6.21582L2.28418 6.44238C1.82465 6.98479 1.48193 7.62719 1.2832 8.32617C0.504971 11.3264 1.08816 14.8393 2.28125 18.6387C3.4757 22.4423 5.23893 26.4147 6.76074 30.375L6.76172 30.377C6.94206 30.8519 7.21768 31.2805 7.56836 31.6328C8.54233 32.6125 9.4607 33.1515 10.3203 33.3076Z" fill="white" stroke="#BDBDBD" />
</svg>