<svg width="19" height="31" viewBox="0 0 19 31" fill="none" xmlns="http://www.w3.org/2000/svg">
  <path d="M8.5127 29.4639C9.33248 30.1145 9.9686 30.257 10.4746 30.1055C11.0033 29.947 11.5713 29.4173 12.125 28.2998H12.126C12.235 28.0666 12.3207 27.8209 12.3799 27.5674L12.3809 27.5625C13.9135 21.2691 15.7105 14.2977 17.2842 6.94043L17.2871 6.92969L17.29 6.91797C17.7639 5.11247 17.9116 3.71819 17.7236 2.77148C17.6316 2.30784 17.4644 1.98211 17.2451 1.76172C17.0367 1.55245 16.746 1.4042 16.3311 1.34668L2.64258 2.42773C2.10581 2.72906 1.74268 3.36266 1.5752 4.41406C1.40164 5.50405 1.45884 6.92776 1.66602 8.58105C2.85225 14.6617 4.45697 20.6417 6.46777 26.4727L6.46973 26.4756C6.86931 27.6626 7.57884 28.6999 8.51172 29.4648L8.5127 29.4639Z" fill="white" stroke="#BDBDBD" />
</svg>