<svg width="419" height="39" viewBox="0 0 419 39" fill="none" xmlns="http://www.w3.org/2000/svg">
  <path d="M417.9 10.24L417.48 8.2C417.15 6.29 416.13 4.57 414.59 3.36C412.01 1.49 408.82 1.82 405.12 4.34C403.98 5.03 402.47 5.03 401.33 4.34C396.52 1.38 392.42 1.86 389.15 5.78C388.52 6.53 388.04 7.39 387.71 8.31C387.55 7.59 387.32 6.89 387.03 6.21C386.12 4.2 384.81 2.92 383.13 2.42C380.55 1.64 377.07 2.68 372.44 5.62C371.27 6.6 370.12 6.61 368.82 5.64C367.18 3.7 365.42 2.68 363.59 2.61C361.54 2.53 359.38 3.63 357.15 5.89C356.34 6.72 355.72 7.72 355.31 8.81C355.2 7.53 354.61 6.32 353.64 5.41C349.69 1.7 344.67 1.18 338.7 3.88C337.67 4.51 336.47 4.86 335.25 4.92C334.01 4.98 332.8 4.71 331.71 4.17L331.62 4.14C326.75 2.86 323.57 3.01 321.31 4.66C319.79 5.77 318.75 7.53 318.19 10.03C317.94 8.87 317.34 7.8 316.47 7.01C313.24 3.98 309.97 2.5 306.78 2.66C303.4 2.81 300.03 4.75 296.76 8.42C296.05 9.22 295.59 10.19 295.42 11.24C295.41 11.28 295.41 11.31 295.4 11.35C295.39 11.13 295.37 10.91 295.34 10.7C295.13 9.23 294.37 7.86 293.19 6.84C285.78 0.38 278.48 0.62 271.49 7.57C270.55 8.48 269.85 9.55 269.4 10.71C269.34 10.27 269.25 9.83 269.14 9.4C268.85 8.36 268.3 7.41 267.58 6.65C264.01 2.78 260.49 0.87 257.1 1.01C253.9 1.12 250.78 3.06 247.84 6.75C247.6 7.05 247.39 7.39 247.23 7.74C247.34 5.36 247 3.08 245.3 2.25L229.9 1.01C229.04 1.11 228.38 1.49 227.94 2.13C227.57 2.67 227.37 3.39 227.34 4.29C226.85 3.18 226.02 2.47 224.85 2.18L224.79 2.16H213.48C211.07 2.5 209.73 3.72 209.53 5.75C209.47 6.04 209.41 6.33 209.37 6.62C209.33 6.34 209.28 6.08 209.22 5.8C209.01 3.72 207.68 2.5 205.19 2.16H194.02L193.9 2.18C192.72 2.47 191.89 3.18 191.4 4.31C191.37 3.4 191.17 2.67 190.8 2.13C190.36 1.49 189.7 1.11 188.74 1L173.62 2.2L173.44 2.25C171.74 3.07 171.4 5.34 171.51 7.74C171.35 7.39 171.14 7.05 170.9 6.75C167.96 3.06 164.84 1.12 161.64 1.01C158.28 0.89 154.73 2.78 151.17 6.64C150.44 7.41 149.89 8.36 149.6 9.41C149.49 9.84 149.4 10.28 149.34 10.72C148.9 9.56 148.19 8.49 147.26 7.57C140.26 0.62 132.95 0.38 125.55 6.84C124.37 7.86 123.61 9.23 123.4 10.7C123.37 10.91 123.35 11.12 123.34 11.34C123.33 11.3 123.33 11.28 123.32 11.24C123.15 10.19 122.68 9.22 121.98 8.42C118.71 4.75 115.34 2.81 111.96 2.66C108.76 2.5 105.5 3.98 102.27 7C101.41 7.8 100.8 8.86 100.55 10.02C99.9899 7.54 98.9599 5.77 97.4299 4.66C95.1699 3.02 91.9899 2.85 87.1199 4.14L87.0299 4.17C85.9399 4.71 84.7099 4.97 83.4899 4.92C82.2699 4.86 81.0699 4.51 79.9899 3.85C74.0599 1.18 69.0499 1.7 65.0899 5.41C64.1299 6.32 63.5399 7.52 63.4199 8.8C63.0199 7.71 62.3999 6.72 61.5899 5.89C59.3599 3.63 57.1999 2.53 55.1499 2.61C53.3199 2.68 51.5599 3.7 49.9199 5.64C48.6199 6.61 47.4699 6.6 46.2399 5.58C41.6699 2.68 38.1899 1.64 35.6099 2.42C33.9299 2.92 32.6199 4.2 31.7099 6.22C31.4199 6.89 31.1899 7.59 31.0299 8.31C30.6999 7.39 30.2199 6.53 29.5899 5.78C26.3199 1.86 22.2199 1.38 17.4099 4.34C16.2699 5.03 14.7399 5.02 13.6399 4.35C9.91986 1.82 6.72986 1.49 4.13986 3.37C2.60986 4.57 1.58986 6.29 1.25986 8.18L0.839861 10.24C0.509861 11.89 0.409861 13.58 0.569861 15.26C0.789861 17.55 1.24986 19.83 1.93986 22.02V22.04C2.12986 22.59 2.28986 23.16 2.40986 23.71C2.71986 25.5 3.60986 26.57 5.07986 26.92C8.09986 27.36 11.1299 27.58 14.1599 27.58C18.0699 27.58 21.9699 27.21 25.8299 26.47C26.8299 26.3 27.7199 25.83 28.4399 25.08C29.3299 24.07 29.9099 22.83 30.1199 21.57C30.6199 19.97 30.9799 18.34 31.2199 16.69C31.4799 18.5 31.8299 20.3 32.2499 22.06C32.3799 22.69 32.6699 23.29 33.0699 23.78C33.4799 24.27 34.0099 24.66 34.6099 24.9C39.2999 26.68 43.9599 27.57 48.5599 27.57C52.5499 27.57 56.4999 26.9 60.3799 25.56C61.0599 25.3 61.6699 24.88 62.1599 24.34C62.6399 23.8 62.9999 23.14 63.1799 22.44C63.3799 21.73 63.5799 19.62 63.7299 17.39C63.9699 18.88 64.3199 20.35 64.7699 21.81C65.1399 22.84 65.7099 23.77 66.4699 24.58C67.2699 25.45 68.3599 26.04 69.5399 26.25C74.0899 27.14 78.6999 27.58 83.3099 27.58C86.9199 27.58 90.5299 27.31 94.1299 26.76L95.8699 25.88C97.4899 25.02 98.6799 23.61 99.2199 21.93C99.8799 19.92 100.38 17.86 100.72 15.75C101.3 18.84 102.5 22.15 103.67 25.4C103.97 26.22 104.43 26.95 105.03 27.58C105.63 28.21 106.34 28.69 107.15 29.01C109.4 29.92 111.51 30.38 113.45 30.38C114.89 30.38 116.24 30.13 117.49 29.63C118.78 29.08 119.85 28.08 120.48 26.81C122.38 23.05 123.41 19.45 123.58 15.91C124.11 19.07 125.34 22.7 127.27 26.76C127.78 27.93 128.74 28.89 129.96 29.48H129.97C132.3 30.53 134.52 31.06 136.6 31.06C138.4 31.06 140.09 30.66 141.68 29.87C142.97 29.21 144.05 28.24 144.79 27.09C147.39 23.2 148.95 19.83 149.56 16.72C150.33 20.96 152.17 25.53 153.98 30C154.53 31.38 155.09 32.76 155.61 34.13C155.86 34.77 156.24 35.36 156.71 35.85H156.72C158.17 37.31 159.62 38.05 161.04 38.05C162 38.05 162.96 37.71 163.9 37.03C164.78 36.37 165.44 35.46 165.82 34.42C166.31 33.12 166.83 31.81 167.35 30.5C169.7 24.56 172.11 18.46 172.4 13.41C173.62 18.97 175.16 24.47 177 29.82C177.5 31.3 178.39 32.59 179.57 33.56C180.4 34.22 181.2 34.55 181.95 34.55C182.13 34.55 182.32 34.53 182.49 34.49C183.5 34.27 184.38 33.4 185.12 31.92C185.26 31.6 185.38 31.26 185.46 30.92C185.82 29.44 186.19 27.94 186.57 26.4C187.99 20.65 189.45 14.7 190.82 8.4C190.85 8.29 190.88 8.17 190.91 8.06V8.15C192.15 16.27 193.77 24.41 195.71 32.32C195.95 33.34 196.42 34.31 197.08 35.11C198.64 36.97 200.1 37.93 201.54 38.03C201.63 38.04 201.71 38.04 201.8 38.04C202.74 38.04 203.65 37.66 204.51 36.89C205.62 35.84 206.28 34.41 206.37 32.87C206.85 26.84 207.81 20.81 209.21 14.92C209.27 14.63 209.32 14.34 209.37 14.05C209.41 14.34 209.47 14.64 209.53 14.93C210.93 20.81 211.89 26.84 212.37 32.86C212.46 34.41 213.12 35.84 214.24 36.9C215.09 37.66 216 38.04 216.94 38.04C217.03 38.04 217.11 38.04 217.2 38.03C218.64 37.92 220.1 36.97 221.66 35.11C222.32 34.31 222.79 33.35 223.03 32.33C224.97 24.41 226.59 16.28 227.84 8.1V8.07C227.87 8.17 227.89 8.27 227.92 8.38C229.29 14.71 230.76 20.67 232.18 26.43C232.55 27.96 232.92 29.46 233.28 30.91C233.36 31.25 233.47 31.59 233.63 31.93C234.36 33.4 235.24 34.27 236.25 34.49C236.43 34.53 236.61 34.55 236.79 34.55C237.54 34.55 238.34 34.22 239.17 33.56C240.35 32.6 241.24 31.3 241.74 29.82C243.58 24.48 245.12 18.98 246.34 13.41C246.63 18.46 249.04 24.56 251.39 30.5C251.91 31.81 252.43 33.12 252.92 34.41C253.3 35.46 253.96 36.37 254.85 37.03C255.78 37.71 256.74 38.05 257.7 38.05C259.12 38.05 260.57 37.31 262.02 35.85C262.51 35.36 262.88 34.78 263.13 34.13C263.65 32.76 264.21 31.38 264.76 30.01C266.57 25.53 268.41 20.97 269.18 16.73C269.79 19.83 271.35 23.2 273.94 27.08C274.69 28.24 275.77 29.21 277.06 29.88C278.65 30.67 280.34 31.06 282.14 31.06C284.22 31.06 286.44 30.53 288.78 29.48C290 28.9 290.95 27.94 291.46 26.77C293.4 22.69 294.63 19.06 295.16 15.91C295.33 19.45 296.36 23.05 298.26 26.81C298.89 28.08 299.96 29.08 301.26 29.63C302.51 30.13 303.85 30.38 305.29 30.38C307.23 30.38 309.34 29.92 311.59 29.01C312.4 28.69 313.11 28.21 313.71 27.58C314.31 26.95 314.77 26.22 315.07 25.4C316.24 22.15 317.44 18.84 318.02 15.75C318.36 17.84 318.86 19.91 319.52 21.92C320.06 23.61 321.25 25.02 322.87 25.88L324.45 26.71L324.61 26.76C328.21 27.31 331.82 27.58 335.43 27.58C340.04 27.58 344.64 27.14 349.19 26.25C350.38 26.04 351.47 25.45 352.27 24.59C353.03 23.77 353.6 22.84 353.98 21.79C354.43 20.34 354.77 18.88 355.01 17.39C355.16 19.61 355.36 21.72 355.55 22.43C355.74 23.14 356.1 23.8 356.58 24.34C357.07 24.88 357.68 25.3 358.37 25.56C362.24 26.9 366.18 27.57 370.18 27.57C374.78 27.57 379.45 26.68 384.15 24.9C384.73 24.66 385.26 24.27 385.67 23.78C386.07 23.29 386.36 22.69 386.49 22.08C386.91 20.31 387.26 18.5 387.52 16.69C387.76 18.32 388.12 19.93 388.6 21.5C388.83 22.83 389.41 24.07 390.32 25.1C391.02 25.83 391.91 26.3 392.9 26.47C396.76 27.21 400.66 27.58 404.57 27.58C407.61 27.58 410.66 27.35 413.7 26.91C415.13 26.57 416.02 25.5 416.33 23.73C416.45 23.16 416.6 22.59 416.8 22.02C417.49 19.83 417.95 17.55 418.17 15.26C418.33 13.58 418.23 11.89 417.9 10.24Z" fill="white" stroke="#BDBDBD" stroke-linejoin="round" />
</svg>