<svg width="259" height="35" viewBox="0 0 259 35" fill="none" xmlns="http://www.w3.org/2000/svg">
  <path d="M257.99 10.9726C257.99 11.4326 257.97 11.8726 257.93 12.3126C257.67 15.4526 257.16 18.6126 256.43 21.7226C256.29 22.3526 256 22.9426 255.6 23.4226C255.18 23.9226 254.66 24.3126 254.08 24.5426C249.38 26.3226 244.71 27.2126 240.11 27.2126C236.11 27.2126 232.17 26.5426 228.31 25.2026C227.62 24.9426 227.01 24.5226 226.52 23.9926C226.02 23.4226 225.67 22.7626 225.49 22.0626C225.29 21.3726 225.1 19.2526 224.95 17.0226C224.71 18.5026 224.37 19.9826 223.92 21.4326C223.53 22.4926 222.96 23.4326 222.21 24.2326C221.4 25.1026 220.33 25.6726 219.13 25.8926C210.99 27.4726 202.72 27.6426 194.54 26.4026L194.39 26.3526L192.81 25.5226C191.18 24.6526 189.99 23.2426 189.45 21.5626C189.02 20.2626 188.66 18.9226 188.36 17.5626C187.44 20.4626 186.06 23.5126 184.72 26.4726C184.16 27.7126 183.59 28.9526 183.06 30.1926C182.81 30.7626 182.43 31.2926 181.95 31.7326C180.48 33.0326 179.04 33.6926 177.63 33.6926C176.67 33.6926 175.73 33.3926 174.81 32.7926C173.92 32.2026 173.24 31.3926 172.87 30.4426C172.38 29.3026 171.86 28.1426 171.35 26.9926C168.99 21.6826 166.58 16.2526 166.28 11.7326C165.07 16.6926 163.51 21.5926 161.67 26.3526C161.16 27.6926 160.26 28.8526 159.08 29.7126C158.26 30.2926 157.47 30.5826 156.73 30.5826C156.52 30.5826 156.32 30.5526 156.12 30.5126C155.14 30.2826 154.29 29.5226 153.57 28.2326C153.41 27.9226 153.29 27.6126 153.21 27.3126C152.85 25.9926 152.48 24.6326 152.09 23.2426C150.68 18.1526 149.23 12.8826 147.86 7.28258C147.83 7.17258 147.8 7.07258 147.77 6.96258V7.06258C146.53 14.2526 144.92 21.4926 142.96 28.5726C142.73 29.4926 142.25 30.3626 141.58 31.0826C139.94 32.8226 138.37 33.6926 136.88 33.6926C135.95 33.6926 135.06 33.3526 134.2 32.6726C133.07 31.7226 132.4 30.4326 132.31 29.0326C131.82 23.6826 130.87 18.3526 129.49 13.2026C128.11 18.3926 127.17 23.7126 126.68 29.0526C126.59 30.4326 125.92 31.7226 124.8 32.6626C123.94 33.3526 123.04 33.6926 122.1 33.6926C120.62 33.6926 119.05 32.8226 117.42 31.0826C116.75 30.3726 116.27 29.5026 116.03 28.5626C114.08 21.5126 112.46 14.2826 111.22 7.06258C111.22 7.02258 111.21 6.98258 111.21 6.94258C111.19 7.06258 111.16 7.17258 111.12 7.29258C109.75 12.9126 108.29 18.2126 106.87 23.3226C106.5 24.6826 106.13 26.0226 105.77 27.3226C105.67 27.6826 105.55 27.9726 105.4 28.2326C104.69 29.5226 103.84 30.2826 102.87 30.5126C102.67 30.5526 102.47 30.5826 102.26 30.5826C101.52 30.5826 100.73 30.2926 99.8998 29.7126C98.7098 28.8426 97.8198 27.6826 97.3198 26.3426C95.4698 21.5926 93.9198 16.6926 92.6998 11.7326C92.4098 16.2626 89.9898 21.7026 87.6298 27.0126C87.1198 28.1626 86.6098 29.3126 86.1198 30.4526C85.7298 31.4026 85.0598 32.2126 84.1898 32.7926C83.2598 33.3926 82.3198 33.6826 81.3598 33.6826C79.9498 33.6826 78.4998 33.0326 77.0498 31.7326C76.5598 31.2926 76.1798 30.7626 75.9298 30.1926C75.3998 28.9426 74.8298 27.6926 74.2598 26.4326C72.9198 23.4826 71.5498 20.4526 70.6198 17.5526C70.3298 18.8926 69.9698 20.2326 69.5398 21.5626C68.9798 23.2526 67.7898 24.6626 66.1898 25.5226L64.4398 26.4026C56.2698 27.6526 47.9898 27.4726 39.8398 25.8926C38.6698 25.6726 37.5798 25.0826 36.7798 24.2326C36.0298 23.4326 35.4598 22.4926 35.0798 21.4526C34.6298 19.9826 34.2798 18.5126 34.0398 17.0226C33.8898 19.2426 33.6898 21.3526 33.4898 22.0726C33.2998 22.7926 32.9498 23.4426 32.4598 23.9826C31.9798 24.5226 31.3698 24.9426 30.6998 25.2026C26.8198 26.5426 22.8698 27.2126 18.8698 27.2126C14.2698 27.2126 9.60983 26.3226 4.90982 24.5526C4.32982 24.3126 3.79983 23.9226 3.38983 23.4226C2.97983 22.9326 2.68982 22.3426 2.54982 21.7126C1.82982 18.6126 1.31983 15.4526 1.04983 12.3126C1.01983 11.8626 0.999825 11.4226 0.999825 10.9726C0.969825 9.24258 1.31982 7.47258 2.01982 5.86258C2.92983 3.84258 4.23982 2.56258 5.92982 2.06258C8.49982 1.28258 11.9798 2.32258 16.5598 5.22258C17.7798 6.24258 18.9298 6.25258 20.2298 5.27258C21.8698 3.34258 23.6298 2.32258 25.4598 2.25258C27.4998 2.16258 29.6698 3.27258 31.8998 5.53258C32.7098 6.36258 33.3298 7.35258 33.7298 8.43258C33.8598 7.15258 34.4398 5.95258 35.4098 5.05258C39.3698 1.34258 44.3798 0.812578 50.2998 3.49258C51.3898 4.15258 52.5798 4.50258 53.7998 4.55258C55.0198 4.61258 56.2498 4.35258 57.3398 3.81258L57.4298 3.78258C62.1598 2.53258 67.7698 1.89258 70.1698 7.47258C70.4898 6.79258 70.9398 6.17258 71.4998 5.65258C75.0698 2.21258 78.5898 0.512578 81.9898 0.652578C85.1698 0.772578 88.2698 2.49258 91.1898 5.76258C91.4398 6.03258 91.6398 6.32258 91.8098 6.63258C91.7098 4.50258 92.0698 2.48258 93.7698 1.74258L93.9298 1.70258L109.06 0.642578C110.07 0.742578 110.75 1.13258 111.19 1.78258C111.5 2.25258 111.68 2.86258 111.71 3.61258C112.19 2.59258 113.03 1.95258 114.22 1.69258H114.33L125.5 1.68258C127.87 1.96258 129.2 2.97258 129.49 4.70258C129.77 2.99258 131.1 1.96258 133.43 1.68258H144.77C145.95 1.95258 146.79 2.59258 147.28 3.60258C147.31 2.85258 147.48 2.25258 147.8 1.78258C148.24 1.13258 148.93 0.742578 149.85 0.642578L165.22 1.74258C166.93 2.49258 167.26 4.60258 167.16 6.67258C167.34 6.33258 167.55 6.03258 167.8 5.76258C170.73 2.49258 173.82 0.772578 177 0.652578C180.41 0.522578 183.91 2.21258 187.49 5.66258C188.05 6.17258 188.5 6.79258 188.82 7.48258C191.22 1.90258 196.82 2.53258 201.56 3.78258L201.65 3.81258C202.73 4.35258 203.95 4.61258 205.19 4.55258C206.41 4.50258 207.6 4.15258 208.64 3.52258C214.61 0.812578 219.62 1.34258 223.58 5.05258C224.55 5.96258 225.14 7.16258 225.25 8.45258C225.65 7.36258 226.27 6.36258 227.09 5.53258C229.32 3.27258 231.43 2.15258 233.53 2.25258C235.36 2.32258 237.12 3.34258 238.76 5.27258C240.05 6.24258 241.2 6.24258 242.38 5.26258C247 2.32258 250.48 1.28258 253.06 2.06258C254.74 2.56258 256.05 3.84258 256.97 5.85258C257.66 7.44258 258.01 9.21258 257.99 10.9726Z" fill="white" stroke="#BDBDBD" stroke-linejoin="round" />
</svg>