<svg width="213" height="39" viewBox="0 0 213 39" fill="none" xmlns="http://www.w3.org/2000/svg">
  <path d="M1.18016 34.0201C1.34016 34.4101 1.54016 34.7601 1.79016 35.0701C2.69016 36.1901 4.17015 36.7802 6.30016 36.8801C7.61015 36.8801 8.90016 36.8801 10.1902 36.8801C15.4902 36.8801 20.9802 36.8801 26.4602 35.9801C27.7702 35.7001 28.6802 34.7602 29.1802 33.3102H29.9302C30.0002 33.6002 30.1202 33.8901 30.2702 34.1601C30.5002 34.5602 30.7902 34.9001 31.1402 35.1701C31.8102 35.5401 32.5202 35.7301 33.2102 35.7301C33.4902 35.7301 33.7702 35.7001 34.0502 35.6401L45.1402 34.5301C46.1402 34.3701 47.0402 33.9002 47.7702 33.1801C48.5002 32.4701 49.0202 31.5401 49.2902 30.5101C49.4602 29.7401 49.5502 28.9701 49.5602 28.2001C49.5402 28.1001 49.5302 27.9901 49.5102 27.8901C49.5402 27.9901 49.5702 28.0801 49.6102 28.1801C51.0202 31.2601 52.9102 33.9701 55.2302 36.2801C56.2702 37.4701 57.3802 38.0602 58.7002 38.0602C60.0202 38.0602 61.4801 37.4902 63.3002 36.3401C64.7702 35.6201 65.9702 34.1801 67.4902 32.3601C68.0802 31.6402 68.7202 30.8701 69.4502 30.0701C70.3902 29.0801 71.0602 27.8401 71.4002 26.4701C71.9702 29.4001 74.4202 31.6402 76.8802 33.5802C77.4502 34.0502 77.9602 34.6002 78.3802 35.2001C79.4802 36.6801 81.0002 37.2301 82.7002 37.2301C84.9902 37.2301 87.5801 36.2301 89.8801 35.1701H89.8902C93.5802 33.3401 95.5102 30.6101 95.6402 27.0301C96.2502 29.9902 98.4602 32.3601 102.24 34.1101C103.76 35.2301 105.74 36.4201 107.9 36.4201C109.31 36.4201 110.78 35.9101 112.26 34.5602L116.22 30.9401C116.88 30.3501 117.42 29.5801 117.78 28.7301C117.93 28.3801 118.07 28.0301 118.18 27.6701C118.16 28.1701 118.15 28.6701 118.15 29.1901C118.55 31.2401 119.26 32.5401 120.34 33.2501C121.21 33.8302 122.31 33.9902 123.6 33.7201C123.9 33.6702 124.21 33.6901 124.51 33.7801L127.36 34.5701C128.74 35.2801 130.19 35.6401 131.7 35.6401C133.21 35.6401 134.79 35.2801 136.4 34.5501C136.93 34.3301 137.42 34.0201 137.86 33.6201C138.52 32.9901 139.44 32.8801 140.77 33.2801C141.86 33.7401 143.05 33.9401 144.28 33.9601C145.5 33.9601 146.7 33.7001 147.82 33.2101C148.71 32.8001 153.02 30.6801 154.18 27.7401C154.4 29.6601 155.09 31.4901 156.18 33.1101C156.32 33.3302 156.51 33.5401 156.72 33.7301C158.36 35.0602 160.31 35.7201 162.55 35.7201C163.81 35.7201 165.15 35.5201 166.58 35.1001L166.7 35.0501C169.28 33.5501 171.34 33.2401 172.99 34.1001C177.61 35.6001 181.55 34.5602 184.79 31.0301C185.27 30.5101 185.65 29.9101 185.89 29.2701C185.95 29.6801 186.04 30.0801 186.15 30.4901C186.52 31.9801 187.2 33.0301 188.18 33.5901C189.18 34.1601 190.46 34.2301 191.99 33.7801C192.26 33.6901 192.53 33.6701 192.8 33.6901L195.58 34.0101C195.85 34.0501 196.11 34.1601 196.32 34.3401C197.46 35.2601 198.76 35.7301 200.2 35.7301C201 35.7301 201.85 35.5901 202.74 35.3001C203.25 35.1601 203.75 34.8901 204.16 34.5401C204.91 33.9701 205.81 33.6101 206.78 33.5201C207.76 33.6101 208.84 33.3401 209.73 32.7601C210.62 32.1701 211.29 31.3001 211.61 30.2901C212.3 28.1601 212.47 25.8601 212.11 23.6501C211.74 21.4301 210.84 19.3101 209.49 17.4901C208.87 16.6201 208 15.9201 206.99 15.4801C204.61 14.4001 201.95 13.8201 199.31 13.8001C196.64 13.8101 194 14.3501 191.6 15.4101C190.51 15.8901 189.6 16.6601 188.95 17.6501C187.47 19.8601 186.49 22.0501 186.03 24.2001C185.61 21.3001 184.6 18.8201 183.02 16.7501C182.57 16.2001 181.98 15.7901 181.31 15.5701C174.23 13.2201 167.64 13.2101 161.15 15.5301C160.46 15.7801 159.84 16.2001 159.35 16.7301C157.4 18.8501 155.58 20.9701 154.68 23.4301C154.27 19.7401 151.71 16.2001 147.03 12.8901C146.14 12.2601 145.15 11.8101 144.09 11.5801C143.02 11.3401 141.94 11.3201 140.87 11.5301C135.91 12.5301 130.83 13.1101 125.77 13.2701C125.12 13.2701 124.47 13.4101 123.86 13.6901C123.25 13.9801 122.72 14.3801 122.28 14.8901C120.46 17.1201 119.26 19.8801 118.64 23.2601C118.55 22.3001 118.33 21.3701 117.99 20.4701C116.03 16.7401 114.61 12.7701 113.75 8.63015C113.56 7.69015 113.15 6.80015 112.56 6.08015C111.97 5.35015 111.22 4.79015 110.37 4.46015C108.2 3.65015 105.84 4.03015 103.34 5.59015C102.25 6.27015 101.39 7.34015 100.9 8.61015L96.6402 20.0201C95.9602 21.6501 95.5702 23.1601 95.4702 24.5701C95.3102 23.5601 95.0202 22.4901 94.6202 21.3601L92.7802 12.5301C92.6201 11.7001 92.2502 10.8901 91.7102 10.2001C91.1702 9.52015 90.4702 8.95015 89.6702 8.55015C87.8701 7.62015 85.8002 7.15015 83.7602 7.18015C81.6902 7.23015 79.6702 7.78015 77.9002 8.80015C76.6002 9.49015 75.6302 10.6301 75.2002 12.0001L72.4302 21.0001C72.1102 21.6001 71.8701 22.1801 71.6902 22.7301C71.6302 21.6401 71.4402 20.5602 71.1302 19.5201C70.6602 18.1402 70.2301 16.7901 69.8002 15.4501C68.7301 12.0801 67.7202 8.90015 66.2802 5.73015C65.5902 4.12015 64.4702 2.79015 63.0402 1.88015H63.0202C60.4402 0.350149 57.8602 0.850149 55.3402 3.35015C52.6502 7.13015 50.7302 11.3001 49.5902 15.8001C48.8402 17.7401 48.4602 19.7801 48.4502 21.8501C47.2902 15.5501 45.8902 9.23015 44.1302 4.37015C43.8102 3.41015 43.2502 2.56015 42.5202 1.91015H42.5102C41.5302 1.07015 39.9302 0.400149 37.8602 1.96015C36.9102 2.70015 36.1302 3.70015 35.6002 4.86015C32.3602 11.7801 30.0502 27.6301 29.8102 29.3101H29.6002C29.5502 28.5101 29.4402 27.6501 29.2702 26.7401C27.0802 18.8401 23.8602 11.3101 19.7202 4.31015C19.2001 3.41015 18.5202 2.65015 17.6902 2.04015C15.4402 0.480149 13.0802 0.700149 10.6502 2.71015C9.18016 3.93015 8.02016 5.53015 7.32016 7.32015C4.56017 14.3001 2.49016 21.5801 1.18016 28.9701C1.18016 28.9701 0.780167 32.7501 1.18016 34.0301V34.0201Z" fill="white" stroke="#CECECE" stroke-linejoin="round" />
</svg>