<svg width="213" height="39" viewBox="0 0 213 39" fill="none" xmlns="http://www.w3.org/2000/svg">
  <path d="M212.11 34.0201C211.95 34.4101 211.75 34.7601 211.5 35.0701C210.6 36.1901 209.12 36.7802 206.99 36.8801C205.68 36.8801 204.39 36.8801 203.1 36.8801C197.8 36.8801 192.31 36.8801 186.83 35.9801C185.52 35.7001 184.61 34.7602 184.11 33.3102H183.36C183.29 33.6002 183.17 33.8901 183.02 34.1601C182.79 34.5602 182.5 34.9001 182.15 35.1701C181.48 35.5401 180.77 35.7301 180.08 35.7301C179.8 35.7301 179.52 35.7001 179.24 35.6401L168.15 34.5301C167.15 34.3701 166.25 33.9002 165.52 33.1801C164.79 32.4701 164.27 31.5401 164 30.5101C163.83 29.7401 163.74 28.9701 163.73 28.2001C163.75 28.1001 163.76 27.9901 163.78 27.8901C163.75 27.9901 163.72 28.0801 163.68 28.1801C162.27 31.2601 160.38 33.9701 158.06 36.2801C157.02 37.4701 155.91 38.0602 154.59 38.0602C153.27 38.0602 151.81 37.4902 149.99 36.3401C148.52 35.6201 147.32 34.1801 145.8 32.3601C145.21 31.6402 144.57 30.8701 143.84 30.0701C142.9 29.0801 142.23 27.8401 141.89 26.4701C141.32 29.4001 138.87 31.6402 136.41 33.5802C135.84 34.0502 135.33 34.6002 134.91 35.2001C133.81 36.6801 132.29 37.2301 130.59 37.2301C128.3 37.2301 125.71 36.2301 123.41 35.1701H123.4C119.71 33.3401 117.78 30.6101 117.65 27.0301C117.04 29.9902 114.83 32.3601 111.05 34.1101C109.53 35.2301 107.55 36.4201 105.39 36.4201C103.98 36.4201 102.51 35.9101 101.03 34.5602L97.0699 30.9401C96.4099 30.3501 95.8699 29.5801 95.5099 28.7301C95.3599 28.3801 95.2199 28.0301 95.1099 27.6701C95.1299 28.1701 95.1399 28.6701 95.1399 29.1901C94.7399 31.2401 94.0299 32.5401 92.9499 33.2501C92.0799 33.8302 90.9799 33.9902 89.6899 33.7201C89.3899 33.6702 89.0799 33.6901 88.7799 33.7801L85.9299 34.5701C84.5499 35.2801 83.0999 35.6401 81.5899 35.6401C80.0799 35.6401 78.4999 35.2801 76.8899 34.5501C76.3599 34.3301 75.8699 34.0201 75.4299 33.6201C74.7699 32.9901 73.8499 32.8801 72.5199 33.2801C71.4299 33.7401 70.2399 33.9401 69.0099 33.9601C67.7899 33.9601 66.5899 33.7001 65.4699 33.2101C64.5799 32.8001 60.2699 30.6801 59.1099 27.7401C58.8899 29.6601 58.1999 31.4901 57.1099 33.1101C56.9699 33.3302 56.7799 33.5401 56.5699 33.7301C54.9299 35.0602 52.9799 35.7201 50.7399 35.7201C49.4799 35.7201 48.1399 35.5201 46.7099 35.1001L46.5899 35.0501C44.0099 33.5501 41.9499 33.2401 40.2999 34.1001C35.6799 35.6001 31.7399 34.5602 28.4999 31.0301C28.0199 30.5101 27.6399 29.9101 27.3999 29.2701C27.3399 29.6801 27.2499 30.0801 27.1399 30.4901C26.7699 31.9801 26.0899 33.0301 25.1099 33.5901C24.1099 34.1601 22.8299 34.2301 21.2999 33.7801C21.0299 33.6901 20.7599 33.6701 20.4899 33.6901L17.7099 34.0101C17.4399 34.0501 17.1799 34.1601 16.9699 34.3401C15.8299 35.2601 14.5299 35.7301 13.0899 35.7301C12.2899 35.7301 11.4399 35.5901 10.5499 35.3001C10.0399 35.1601 9.53988 34.8901 9.12988 34.5401C8.37988 33.9701 7.47988 33.6101 6.50988 33.5201C5.52988 33.6101 4.44988 33.3401 3.55988 32.7601C2.66988 32.1701 1.99988 31.3001 1.67988 30.2901C0.989884 28.1601 0.819884 25.8601 1.17988 23.6501C1.54988 21.4301 2.44988 19.3101 3.79988 17.4901C4.41988 16.6201 5.28988 15.9201 6.29988 15.4801C8.67988 14.4001 11.3399 13.8201 13.9799 13.8001C16.6499 13.8101 19.2899 14.3501 21.6899 15.4101C22.7799 15.8901 23.6899 16.6601 24.3399 17.6501C25.8199 19.8601 26.7999 22.0501 27.2599 24.2001C27.6799 21.3001 28.6899 18.8201 30.2699 16.7501C30.7199 16.2001 31.3099 15.7901 31.9799 15.5701C39.0599 13.2201 45.6499 13.2101 52.1399 15.5301C52.8299 15.7801 53.4499 16.2001 53.9399 16.7301C55.8899 18.8501 57.7099 20.9701 58.6099 23.4301C59.0199 19.7401 61.5799 16.2001 66.2599 12.8901C67.1499 12.2601 68.1399 11.8101 69.1999 11.5801C70.2699 11.3401 71.3499 11.3201 72.4199 11.5301C77.3799 12.5301 82.4599 13.1101 87.5199 13.2701C88.1699 13.2701 88.8199 13.4101 89.4299 13.6901C90.0399 13.9801 90.5699 14.3801 91.0099 14.8901C92.8299 17.1201 94.0299 19.8801 94.6499 23.2601C94.7399 22.3001 94.9599 21.3701 95.2999 20.4701C97.2599 16.7401 98.6799 12.7701 99.5399 8.63015C99.7299 7.69015 100.14 6.80015 100.73 6.08015C101.32 5.35015 102.07 4.79015 102.92 4.46015C105.09 3.65015 107.45 4.03015 109.95 5.59015C111.04 6.27015 111.9 7.34015 112.39 8.61015L116.65 20.0201C117.33 21.6501 117.72 23.1601 117.82 24.5701C117.98 23.5601 118.27 22.4901 118.67 21.3601L120.51 12.5301C120.67 11.7001 121.04 10.8901 121.58 10.2001C122.12 9.52015 122.82 8.95015 123.62 8.55015C125.42 7.62015 127.49 7.15015 129.53 7.18015C131.6 7.23015 133.62 7.78015 135.39 8.80015C136.69 9.49015 137.66 10.6301 138.09 12.0001L140.86 21.0001C141.18 21.6001 141.42 22.1801 141.6 22.7301C141.66 21.6401 141.85 20.5602 142.16 19.5201C142.63 18.1402 143.06 16.7901 143.49 15.4501C144.56 12.0801 145.57 8.90015 147.01 5.73015C147.7 4.12015 148.82 2.79015 150.25 1.88015H150.27C152.85 0.350149 155.43 0.850149 157.95 3.35015C160.64 7.13015 162.56 11.3001 163.7 15.8001C164.45 17.7401 164.83 19.7801 164.84 21.8501C166 15.5501 167.4 9.23015 169.16 4.37015C169.48 3.41015 170.04 2.56015 170.77 1.91015H170.78C171.76 1.07015 173.36 0.400149 175.43 1.96015C176.38 2.70015 177.16 3.70015 177.69 4.86015C180.93 11.7801 183.24 27.6301 183.48 29.3101H183.69C183.74 28.5101 183.85 27.6501 184.02 26.7401C186.21 18.8401 189.43 11.3101 193.57 4.31015C194.09 3.41015 194.77 2.65015 195.6 2.04015C197.85 0.480149 200.21 0.700149 202.64 2.71015C204.11 3.93015 205.27 5.53015 205.97 7.32015C208.73 14.3001 210.8 21.5801 212.11 28.9701C212.11 28.9701 212.51 32.7501 212.11 34.0301V34.0201Z" fill="white" stroke="#CECECE" stroke-linejoin="round" />
</svg>