<svg width="211" height="39" viewBox="0 0 211 39" fill="none" xmlns="http://www.w3.org/2000/svg">
  <path d="M209.87 14.0501C209.83 14.3401 209.77 14.6401 209.71 14.9301C208.31 20.8101 207.35 26.8401 206.87 32.8601C206.78 34.4101 206.12 35.8401 205 36.9001C204.15 37.6601 203.24 38.0401 202.3 38.0401C202.21 38.0401 202.13 38.0401 202.04 38.0301C200.6 37.9201 199.14 36.9701 197.58 35.1101C196.92 34.3101 196.45 33.3501 196.21 32.3301C194.27 24.4101 192.65 16.2801 191.4 8.1001V8.0701C191.37 8.1701 191.35 8.2701 191.32 8.3801C189.95 14.7101 188.48 20.6701 187.06 26.4301C186.69 27.9601 186.32 29.4601 185.96 30.9101C185.88 31.2501 185.77 31.5901 185.61 31.9301C184.88 33.4001 184 34.2701 182.99 34.4901C182.81 34.5301 182.63 34.5501 182.45 34.5501C181.7 34.5501 180.9 34.2201 180.07 33.5601C178.89 32.6001 178 31.3001 177.5 29.8201C175.66 24.4801 174.12 18.9801 172.9 13.4101C172.61 18.4601 170.2 24.5601 167.85 30.5001C167.33 31.8101 166.81 33.1201 166.32 34.4101C165.94 35.4601 165.28 36.3701 164.39 37.0301C163.46 37.7101 162.5 38.0501 161.54 38.0501C160.12 38.0501 158.67 37.3101 157.22 35.8501C156.73 35.3601 156.36 34.7801 156.11 34.1301C155.59 32.7601 155.03 31.3801 154.48 30.0101C152.67 25.5301 150.83 20.9701 150.06 16.7301C149.45 19.8301 147.89 23.2001 145.3 27.0801C144.55 28.2401 143.47 29.2101 142.18 29.8801C140.59 30.6701 138.9 31.0601 137.1 31.0601C135.02 31.0601 132.8 30.5301 130.46 29.4801C129.24 28.9001 128.29 27.9401 127.78 26.7701C125.84 22.6901 124.61 19.0601 124.08 15.9101C123.91 19.4501 122.88 23.0501 120.98 26.8101C120.35 28.0801 119.28 29.0801 117.98 29.6301C116.73 30.1301 115.39 30.3801 113.95 30.3801C112.01 30.3801 109.9 29.9201 107.65 29.0101C106.84 28.6901 106.13 28.2101 105.53 27.5801C104.93 26.9501 104.47 26.2201 104.17 25.4001C103 22.1501 101.8 18.8401 101.22 15.7501C100.88 17.8401 100.38 19.9101 99.7199 21.9201C99.1799 23.6101 97.9899 25.0201 96.3699 25.8801L94.7899 26.7101L94.6299 26.7601C91.0299 27.3101 87.4199 27.5801 83.8099 27.5801C79.1999 27.5801 74.5999 27.1401 70.0499 26.2501C68.8599 26.0401 67.7699 25.4501 66.9699 24.5901C66.2099 23.7701 65.6399 22.8401 65.2599 21.7901C64.8099 20.3401 64.4699 18.8801 64.2299 17.3901C64.0799 19.6101 63.8799 21.7201 63.6899 22.4301C63.4999 23.1401 63.1399 23.8001 62.6599 24.3401C62.1699 24.8801 61.5599 25.3001 60.8699 25.5601C56.9999 26.9001 53.0599 27.5701 49.0599 27.5701C44.4599 27.5701 39.7899 26.6801 35.0899 24.9001C34.5099 24.6601 33.9799 24.2701 33.5699 23.7801C33.1699 23.2901 32.8799 22.6901 32.7499 22.0801C32.3299 20.3101 31.9799 18.5001 31.7199 16.6901C31.4799 18.3201 31.1199 19.9301 30.6399 21.5001C30.4099 22.8301 29.8299 24.0701 28.9199 25.1001C28.2199 25.8301 27.3299 26.3001 26.3399 26.4701C22.4799 27.2101 18.5799 27.5801 14.6699 27.5801C11.6299 27.5801 8.5799 27.3501 5.5399 26.9101C4.10991 26.5701 3.21991 25.5001 2.90991 23.7301C2.78992 23.1601 2.63991 22.5901 2.43991 22.0201C1.74991 19.8301 1.28992 17.5501 1.06992 15.2601C0.909912 13.5801 1.0099 11.8901 1.3399 10.2401L1.7599 8.2001C2.0899 6.2901 3.10991 4.5701 4.6499 3.3601C7.2299 1.4901 10.4199 1.8201 14.1199 4.3401C15.2599 5.0301 16.7699 5.0301 17.9099 4.3401C22.7199 1.3801 26.8199 1.8601 30.0899 5.7801C30.7199 6.5301 31.1999 7.3901 31.5299 8.3101C31.6899 7.5901 31.9199 6.8901 32.2099 6.2101C33.1199 4.2001 34.4299 2.9201 36.1099 2.4201C38.6899 1.6401 42.1699 2.6801 46.7999 5.6201C47.9699 6.6001 49.1199 6.6101 50.4199 5.6401C52.0599 3.7001 53.8199 2.6801 55.6499 2.6101C57.6999 2.5301 59.8599 3.6301 62.0899 5.8901C62.8999 6.7201 63.5199 7.7201 63.9299 8.8101C64.0399 7.5301 64.6299 6.3201 65.5999 5.4101C69.5499 1.7001 74.5699 1.1801 80.5399 3.8801C81.5699 4.5101 82.7699 4.8601 83.9899 4.9201C85.2299 4.9801 86.4399 4.7101 87.5299 4.1701L87.6199 4.1401C92.4899 2.8601 95.6699 3.0101 97.9299 4.6601C99.4499 5.7701 100.49 7.5301 101.05 10.0301C101.3 8.8701 101.9 7.8001 102.77 7.0101C106 3.9801 109.27 2.5001 112.46 2.6601C115.84 2.8101 119.21 4.7501 122.48 8.4201C123.19 9.2201 123.65 10.1901 123.82 11.2401C123.83 11.2801 123.83 11.3101 123.84 11.3501C123.85 11.1301 123.87 10.9101 123.9 10.7001C124.11 9.2301 124.87 7.8601 126.05 6.8401C133.46 0.380104 140.76 0.620104 147.75 7.5701C148.69 8.4801 149.39 9.5501 149.84 10.7101C149.9 10.2701 149.99 9.8301 150.1 9.4001C150.39 8.3601 150.94 7.4101 151.66 6.6501C155.23 2.7801 158.75 0.870104 162.14 1.0101C165.34 1.1201 168.46 3.0601 171.4 6.7501C171.64 7.0501 171.85 7.3901 172.01 7.7401C171.9 5.3601 172.24 3.0801 173.94 2.2501L189.34 1.0101C190.2 1.1101 190.86 1.4901 191.3 2.1301C191.67 2.6701 191.87 3.3901 191.9 4.2901C192.39 3.1801 193.22 2.4701 194.39 2.1801L194.45 2.1601H205.76C208.17 2.5001 209.51 3.7201 209.71 5.7501C209.77 6.0401 209.83 6.3301 209.87 6.6201C209.87 6.6201 210.4 12.1601 209.87 14.0501Z" fill="white" stroke="#CECECE" stroke-linejoin="round" />
</svg>