<svg width="211" height="39" viewBox="0 0 211 39" fill="none" xmlns="http://www.w3.org/2000/svg">
  <path d="M1.24044 14.0501C1.28044 14.3401 1.34044 14.6401 1.40044 14.9301C2.80044 20.8101 3.76044 26.8401 4.24044 32.8601C4.33044 34.4101 4.99044 35.8401 6.11044 36.9001C6.96044 37.6601 7.87044 38.0401 8.81044 38.0401C8.90044 38.0401 8.98044 38.0401 9.07044 38.0301C10.5104 37.9201 11.9704 36.9701 13.5304 35.1101C14.1904 34.3101 14.6604 33.3501 14.9004 32.3301C16.8404 24.4101 18.4604 16.2801 19.7104 8.1001V8.0701C19.7404 8.1701 19.7604 8.2701 19.7904 8.3801C21.1604 14.7101 22.6304 20.6701 24.0504 26.4301C24.4204 27.9601 24.7904 29.4601 25.1504 30.9101C25.2304 31.2501 25.3404 31.5901 25.5004 31.9301C26.2304 33.4001 27.1104 34.2701 28.1204 34.4901C28.3004 34.5301 28.4804 34.5501 28.6604 34.5501C29.4104 34.5501 30.2104 34.2201 31.0404 33.5601C32.2204 32.6001 33.1104 31.3001 33.6104 29.8201C35.4504 24.4801 36.9904 18.9801 38.2104 13.4101C38.5004 18.4601 40.9104 24.5601 43.2604 30.5001C43.7804 31.8101 44.3004 33.1201 44.7904 34.4101C45.1704 35.4601 45.8304 36.3701 46.7204 37.0301C47.6504 37.7101 48.6104 38.0501 49.5704 38.0501C50.9904 38.0501 52.4404 37.3101 53.8904 35.8501C54.3804 35.3601 54.7504 34.7801 55.0004 34.1301C55.5204 32.7601 56.0804 31.3801 56.6304 30.0101C58.4404 25.5301 60.2804 20.9701 61.0504 16.7301C61.6604 19.8301 63.2204 23.2001 65.8104 27.0801C66.5604 28.2401 67.6404 29.2101 68.9304 29.8801C70.5204 30.6701 72.2104 31.0601 74.0104 31.0601C76.0904 31.0601 78.3104 30.5301 80.6504 29.4801C81.8704 28.9001 82.8204 27.9401 83.3304 26.7701C85.2704 22.6901 86.5004 19.0601 87.0304 15.9101C87.2004 19.4501 88.2304 23.0501 90.1304 26.8101C90.7604 28.0801 91.8304 29.0801 93.1304 29.6301C94.3804 30.1301 95.7204 30.3801 97.1604 30.3801C99.1004 30.3801 101.21 29.9201 103.46 29.0101C104.27 28.6901 104.98 28.2101 105.58 27.5801C106.18 26.9501 106.64 26.2201 106.94 25.4001C108.11 22.1501 109.31 18.8401 109.89 15.7501C110.23 17.8401 110.73 19.9101 111.39 21.9201C111.93 23.6101 113.12 25.0201 114.74 25.8801L116.32 26.7101L116.48 26.7601C120.08 27.3101 123.69 27.5801 127.3 27.5801C131.91 27.5801 136.51 27.1401 141.06 26.2501C142.25 26.0401 143.34 25.4501 144.14 24.5901C144.9 23.7701 145.47 22.8401 145.85 21.7901C146.3 20.3401 146.64 18.8801 146.88 17.3901C147.03 19.6101 147.23 21.7201 147.42 22.4301C147.61 23.1401 147.97 23.8001 148.45 24.3401C148.94 24.8801 149.55 25.3001 150.24 25.5601C154.11 26.9001 158.05 27.5701 162.05 27.5701C166.65 27.5701 171.32 26.6801 176.02 24.9001C176.6 24.6601 177.13 24.2701 177.54 23.7801C177.94 23.2901 178.23 22.6901 178.36 22.0801C178.78 20.3101 179.13 18.5001 179.39 16.6901C179.63 18.3201 179.99 19.9301 180.47 21.5001C180.7 22.8301 181.28 24.0701 182.19 25.1001C182.89 25.8301 183.78 26.3001 184.77 26.4701C188.63 27.2101 192.53 27.5801 196.44 27.5801C199.48 27.5801 202.53 27.3501 205.57 26.9101C207 26.5701 207.89 25.5001 208.2 23.7301C208.32 23.1601 208.47 22.5901 208.67 22.0201C209.36 19.8301 209.82 17.5501 210.04 15.2601C210.2 13.5801 210.1 11.8901 209.77 10.2401L209.35 8.2001C209.02 6.2901 208 4.5701 206.46 3.3601C203.88 1.4901 200.69 1.8201 196.99 4.3401C195.85 5.0301 194.34 5.0301 193.2 4.3401C188.39 1.3801 184.29 1.8601 181.02 5.7801C180.39 6.5301 179.91 7.3901 179.58 8.3101C179.42 7.5901 179.19 6.8901 178.9 6.2101C177.99 4.2001 176.68 2.9201 175 2.4201C172.42 1.6401 168.94 2.6801 164.31 5.6201C163.14 6.6001 161.99 6.6101 160.69 5.6401C159.05 3.7001 157.29 2.6801 155.46 2.6101C153.41 2.5301 151.25 3.6301 149.02 5.8901C148.21 6.7201 147.59 7.7201 147.18 8.8101C147.07 7.5301 146.48 6.3201 145.51 5.4101C141.56 1.7001 136.54 1.1801 130.57 3.8801C129.54 4.5101 128.34 4.8601 127.12 4.9201C125.88 4.9801 124.67 4.7101 123.58 4.1701L123.49 4.1401C118.62 2.8601 115.44 3.0101 113.18 4.6601C111.66 5.7701 110.62 7.5301 110.06 10.0301C109.81 8.8701 109.21 7.8001 108.34 7.0101C105.11 3.9801 101.84 2.5001 98.6504 2.6601C95.2704 2.8101 91.9004 4.7501 88.6304 8.4201C87.9204 9.2201 87.4604 10.1901 87.2904 11.2401C87.2804 11.2801 87.2804 11.3101 87.2704 11.3501C87.2604 11.1301 87.2404 10.9101 87.2104 10.7001C87.0004 9.2301 86.2404 7.8601 85.0604 6.8401C77.6504 0.380104 70.3504 0.620104 63.3604 7.5701C62.4204 8.4801 61.7204 9.5501 61.2704 10.7101C61.2104 10.2701 61.1204 9.8301 61.0104 9.4001C60.7204 8.3601 60.1704 7.4101 59.4504 6.6501C55.8804 2.7801 52.3604 0.870104 48.9704 1.0101C45.7704 1.1201 42.6504 3.0601 39.7104 6.7501C39.4704 7.0501 39.2604 7.3901 39.1004 7.7401C39.2104 5.3601 38.8704 3.0801 37.1704 2.2501L21.7704 1.0101C20.9104 1.1101 20.2504 1.4901 19.8104 2.1301C19.4404 2.6701 19.2404 3.3901 19.2104 4.2901C18.7204 3.1801 17.8904 2.4701 16.7204 2.1801L16.6604 2.1601H5.35044C2.94044 2.5001 1.60044 3.7201 1.40044 5.7501C1.34044 6.0401 1.28044 6.3301 1.24044 6.6201C1.24044 6.6201 0.710438 12.1601 1.24044 14.0501Z" fill="white" stroke="#CECECE" stroke-linejoin="round" />
</svg>