<svg width="151" height="31" viewBox="0 0 151 31" fill="none" xmlns="http://www.w3.org/2000/svg">
  <path d="M149.84 9.55033C149.4 8.39033 148.69 7.32033 147.76 6.40033C140.76 -0.549672 133.45 -0.789672 126.05 5.67033C124.87 6.69033 124.11 8.06033 123.9 9.53033C123.87 9.74033 123.85 9.95033 123.84 10.1703C123.83 10.1303 123.83 10.1103 123.82 10.0703C123.65 9.02033 123.18 8.05033 122.48 7.25033C119.21 3.58033 115.84 1.64033 112.46 1.49033C109.26 1.33033 106 2.81033 102.77 5.83033C101.91 6.63033 101.3 7.69033 101.05 8.85033C100.49 6.37033 99.4599 4.60033 97.9299 3.49033C95.6699 1.85033 92.4899 1.68033 87.6199 2.97033L87.5299 3.00033C86.4399 3.54033 85.2099 3.80033 83.9899 3.75033C82.7699 3.69033 81.5699 3.34033 80.4899 2.68033C74.5599 0.0103278 69.5499 0.530328 65.5899 4.24033C64.6299 5.15033 64.0399 6.35033 63.9199 7.63033C63.5199 6.54033 62.8999 5.55033 62.0899 4.72033C59.8599 2.46033 57.6999 1.36033 55.6499 1.44033C53.8199 1.51033 52.0599 2.53033 50.4199 4.47033C49.1199 5.44033 47.9699 5.43033 46.7399 4.41033C42.1699 1.51033 38.6899 0.470328 36.1099 1.25033C34.4299 1.75033 33.1199 3.03033 32.2099 5.05033C31.9199 5.72033 31.6899 6.42033 31.5299 7.14033C31.1999 6.22033 30.7199 5.36033 30.0899 4.61033C26.8199 0.690328 22.7199 0.210328 17.9099 3.17033C16.7699 3.86033 15.2399 3.85033 14.1399 3.18033C10.4199 0.650328 7.22986 0.320328 4.63986 2.20033C3.10986 3.40033 2.08986 5.12033 1.75986 7.01033L1.33986 9.07033C1.00986 10.7203 0.909861 12.4103 1.06986 14.0903C1.28986 16.3803 1.74986 18.6603 2.43986 20.8503V20.8703C2.62986 21.4203 2.78986 21.9903 2.90986 22.5403C3.21986 24.3303 4.10986 25.4003 5.57986 25.7503C8.59986 26.1903 11.6299 26.4103 14.6599 26.4103C18.5699 26.4103 22.4699 26.0403 26.3299 25.3003C27.3299 25.1303 28.2199 24.6603 28.9399 23.9103C29.8299 22.9003 30.4099 21.6603 30.6199 20.4003C31.1199 18.8003 31.4799 17.1703 31.7199 15.5203C31.9799 17.3303 32.3299 19.1303 32.7499 20.8903C32.8799 21.5203 33.1699 22.1203 33.5699 22.6103C33.9799 23.1003 34.5099 23.4903 35.1099 23.7303C39.7999 25.5103 44.4599 26.4003 49.0599 26.4003C53.0499 26.4003 56.9999 25.7303 60.8799 24.3903C61.5599 24.1303 62.1699 23.7103 62.6599 23.1703C63.1399 22.6303 63.4999 21.9703 63.6799 21.2703C63.8799 20.5603 64.0799 18.4503 64.2299 16.2203C64.4699 17.7103 64.8199 19.1803 65.2699 20.6403C65.6399 21.6703 66.2099 22.6003 66.9699 23.4103C67.7699 24.2803 68.8599 24.8703 70.0399 25.0803C74.5899 25.9703 79.1999 26.4103 83.8099 26.4103C87.4199 26.4103 91.0299 26.1403 94.6299 25.5903L96.3699 24.7103C97.9899 23.8503 99.1799 22.4403 99.7199 20.7603C100.38 18.7503 100.88 16.6903 101.22 14.5803C101.8 17.6703 103 20.9803 104.17 24.2303C104.47 25.0503 104.93 25.7803 105.53 26.4103C106.13 27.0403 106.84 27.5203 107.65 27.8403C109.9 28.7503 112.01 29.2103 113.95 29.2103C115.39 29.2103 116.74 28.9603 117.99 28.4603C119.28 27.9103 120.35 26.9103 120.98 25.6403C122.88 21.8803 123.91 18.2803 124.08 14.7403C124.61 17.9003 125.84 21.5303 127.77 25.5903C128.28 26.7603 129.24 27.7203 130.46 28.3103H130.47C132.8 29.3603 135.02 29.8903 137.1 29.8903C138.9 29.8903 140.59 29.4903 142.18 28.7003C143.47 28.0403 144.55 27.0703 145.29 25.9203C147.89 22.0303 149.45 18.6603 150.06 15.5503L149.84 9.55033Z" fill="white" stroke="#CECECE" stroke-linejoin="round" />
</svg>