<svg width="151" height="31" viewBox="0 0 151 31" fill="none" xmlns="http://www.w3.org/2000/svg">
  <path d="M1 15.56C1.61 18.66 3.17 22.03 5.76 25.91C6.51 27.07 7.59 28.04 8.88 28.71C10.47 29.5 12.16 29.89 13.96 29.89C16.04 29.89 18.26 29.36 20.6 28.31C21.82 27.73 22.77 26.77 23.28 25.6C25.22 21.52 26.45 17.89 26.98 14.74C27.15 18.28 28.18 21.88 30.08 25.64C30.71 26.91 31.78 27.91 33.08 28.46C34.33 28.96 35.67 29.21 37.11 29.21C39.05 29.21 41.16 28.75 43.41 27.84C44.22 27.52 44.93 27.04 45.53 26.41C46.13 25.78 46.59 25.05 46.89 24.23C48.06 20.98 49.26 17.67 49.84 14.58C50.18 16.67 50.68 18.74 51.34 20.75C51.88 22.44 53.07 23.85 54.69 24.71L56.27 25.54L56.43 25.59C60.03 26.14 63.64 26.41 67.25 26.41C71.86 26.41 76.46 25.97 81.01 25.08C82.2 24.87 83.29 24.28 84.09 23.42C84.85 22.6 85.42 21.67 85.8 20.62C86.25 19.17 86.59 17.71 86.83 16.22C86.98 18.44 87.18 20.55 87.37 21.26C87.56 21.97 87.92 22.63 88.4 23.17C88.89 23.71 89.5 24.13 90.19 24.39C94.06 25.73 98 26.4 102 26.4C106.6 26.4 111.27 25.51 115.97 23.73C116.55 23.49 117.08 23.1 117.49 22.61C117.89 22.12 118.18 21.52 118.31 20.91C118.73 19.14 119.08 17.33 119.34 15.52C119.58 17.15 119.94 18.76 120.42 20.33C120.65 21.66 121.23 22.9 122.14 23.93C122.84 24.66 123.73 25.13 124.72 25.3C128.58 26.04 132.48 26.41 136.39 26.41C139.43 26.41 142.48 26.18 145.52 25.74C146.95 25.4 147.84 24.33 148.15 22.56C148.27 21.99 148.42 21.42 148.62 20.85C149.31 18.66 149.77 16.38 149.99 14.09C150.15 12.41 150.05 10.72 149.72 9.06996L149.3 7.02996C148.97 5.11996 147.95 3.39996 146.41 2.18996C143.83 0.319964 140.64 0.649964 136.94 3.16996C135.8 3.85996 134.29 3.85996 133.15 3.16996C128.34 0.209964 124.24 0.689964 120.97 4.60996C120.34 5.35996 119.86 6.21996 119.53 7.13996C119.37 6.41996 119.14 5.71996 118.85 5.03996C117.94 3.02996 116.63 1.74996 114.95 1.24996C112.37 0.469964 108.89 1.50996 104.26 4.44996C103.09 5.42996 101.94 5.43996 100.64 4.46996C99 2.52996 97.24 1.50996 95.41 1.43996C93.36 1.35996 91.2 2.45996 88.97 4.71996C88.16 5.54996 87.54 6.54996 87.13 7.63996C87.02 6.35996 86.43 5.14996 85.46 4.23996C81.51 0.529964 76.49 0.00996399 70.52 2.70996C69.49 3.33996 68.29 3.68996 67.07 3.74996C65.83 3.80996 64.62 3.53996 63.53 2.99996L63.44 2.96996C58.57 1.68996 55.39 1.83996 53.13 3.48996C51.61 4.59996 50.57 6.35996 50.01 8.85996C49.76 7.69996 49.16 6.62996 48.29 5.83996C45.06 2.80996 41.79 1.32996 38.6 1.48996C35.22 1.63996 31.85 3.57996 28.58 7.24996C27.87 8.04996 27.41 9.01996 27.24 10.07C27.23 10.11 27.23 10.14 27.22 10.18C27.21 9.95996 27.19 9.73996 27.16 9.52996C26.95 8.05996 26.19 6.68996 25.01 5.66996C17.6 -0.790036 10.3 -0.550035 3.31 6.39996C2.37 7.30996 1.67 8.37996 1.22 9.53996L1 15.56Z" fill="white" stroke="#CECECE" stroke-linejoin="round" />
</svg>