<svg width="122" height="39" viewBox="0 0 122 39" fill="none" xmlns="http://www.w3.org/2000/svg">
  <path d="M121.06 10.71C121 10.27 120.91 9.83 120.8 9.4C120.51 8.36 119.96 7.41 119.24 6.65C115.67 2.78 112.15 0.87 108.76 1.01C105.56 1.12 102.44 3.06 99.5 6.75C99.26 7.05 99.05 7.39 98.89 7.74C99 5.36 98.66 3.08 96.96 2.25L81.56 1.01C80.7 1.11 80.04 1.49 79.6 2.13C79.23 2.67 79.03 3.39 79 4.29C78.51 3.18 77.68 2.47 76.51 2.18L76.45 2.16H65.14C62.73 2.5 61.39 3.72 61.19 5.75C61.13 6.04 61.07 6.33 61.03 6.62C60.99 6.34 60.94 6.08 60.88 5.8C60.67 3.72 59.34 2.5 56.85 2.16H45.68L45.56 2.18C44.38 2.47 43.55 3.18 43.06 4.31C43.03 3.4 42.83 2.67 42.46 2.13C42.02 1.49 41.36 1.11 40.4 1L25.28 2.2L25.1 2.25C23.4 3.07 23.06 5.34 23.17 7.74C23.01 7.39 22.8 7.05 22.56 6.75C19.62 3.06 16.5 1.12 13.3 1.01C9.94 0.89 6.39 2.78 2.83 6.64C2.1 7.41 1.55 8.36 1.26 9.41C1.15 9.84 1.06 10.28 1 10.72L1.22 16.72C1.99 20.96 3.83 25.53 5.64 30C6.19 31.38 6.75 32.76 7.27 34.13C7.52 34.77 7.9 35.36 8.37 35.85H8.38C9.83 37.31 11.28 38.05 12.7 38.05C13.66 38.05 14.62 37.71 15.56 37.03C16.44 36.37 17.1 35.46 17.48 34.42C17.97 33.12 18.49 31.81 19.01 30.5C21.36 24.56 23.77 18.46 24.06 13.41C25.28 18.97 26.82 24.47 28.66 29.82C29.16 31.3 30.05 32.59 31.23 33.56C32.06 34.22 32.86 34.55 33.61 34.55C33.79 34.55 33.98 34.53 34.15 34.49C35.16 34.27 36.04 33.4 36.78 31.92C36.92 31.6 37.04 31.26 37.12 30.92C37.48 29.44 37.85 27.94 38.23 26.4C39.65 20.65 41.11 14.7 42.48 8.4C42.51 8.29 42.54 8.17 42.57 8.06V8.15C43.81 16.27 45.43 24.41 47.37 32.32C47.61 33.34 48.08 34.31 48.74 35.11C50.3 36.97 51.76 37.93 53.2 38.03C53.29 38.04 53.37 38.04 53.46 38.04C54.4 38.04 55.31 37.66 56.17 36.89C57.28 35.84 57.94 34.41 58.03 32.87C58.51 26.84 59.47 20.81 60.87 14.92C60.93 14.63 60.98 14.34 61.03 14.05C61.07 14.34 61.13 14.64 61.19 14.93C62.59 20.81 63.55 26.84 64.03 32.86C64.12 34.41 64.78 35.84 65.9 36.9C66.75 37.66 67.66 38.04 68.6 38.04C68.69 38.04 68.77 38.04 68.86 38.03C70.3 37.92 71.76 36.97 73.32 35.11C73.98 34.31 74.45 33.35 74.69 32.33C76.63 24.41 78.25 16.28 79.5 8.1V8.07C79.53 8.17 79.55 8.27 79.58 8.38C80.95 14.71 82.42 20.67 83.84 26.43C84.21 27.96 84.58 29.46 84.94 30.91C85.02 31.25 85.13 31.59 85.29 31.93C86.02 33.4 86.9 34.27 87.91 34.49C88.09 34.53 88.27 34.55 88.45 34.55C89.2 34.55 90 34.22 90.83 33.56C92.01 32.6 92.9 31.3 93.4 29.82C95.24 24.48 96.78 18.98 98 13.41C98.29 18.46 100.7 24.56 103.05 30.5C103.57 31.81 104.09 33.12 104.58 34.41C104.96 35.46 105.62 36.37 106.51 37.03C107.44 37.71 108.4 38.05 109.36 38.05C110.78 38.05 112.23 37.31 113.68 35.85C114.17 35.36 114.54 34.78 114.79 34.13C115.31 32.76 115.87 31.38 116.42 30.01C118.23 25.53 120.07 20.97 120.84 16.73L121.06 10.71Z" fill="white" stroke="#CECECE" stroke-linejoin="round" />
</svg>