<svg width="143" height="39" viewBox="0 0 143 39" fill="none" xmlns="http://www.w3.org/2000/svg">
  <path d="M141.74 26.4104C141.41 27.8004 140.72 29.0604 139.77 30.0704C139.05 30.8604 138.41 31.6304 137.82 32.3504C136.3 34.1704 135.11 35.6104 133.58 36.3604C131.8 37.4904 130.33 38.0504 129.04 38.0504C127.75 38.0504 126.59 37.4504 125.53 36.2404C123.24 33.9604 121.35 31.2504 119.95 28.2004C119.91 28.1004 119.88 28.0104 119.85 27.9104C119.85 27.9704 119.87 28.0404 119.88 28.1004C119.88 28.9604 119.79 29.7304 119.63 30.4804C119.35 31.5304 118.83 32.4604 118.1 33.1704C117.37 33.8904 116.47 34.3604 115.5 34.5204L104.32 35.6404C104.07 35.6904 103.8 35.7204 103.53 35.7204C102.85 35.7204 102.16 35.5504 101.53 35.2104C101.12 34.8904 100.83 34.5504 100.6 34.1504C100.45 33.8804 100.34 33.6004 100.26 33.3004H99.51C99.02 34.7604 98.11 35.6804 96.82 35.9604C91.32 36.8804 85.83 36.8804 80.52 36.8704H76.66C74.5 36.7704 73.02 36.1804 72.12 35.0604C71.87 34.7504 71.67 34.4004 71.51 34.0104C71.35 34.4004 71.15 34.7504 70.9 35.0604C70 36.1804 68.52 36.7704 66.39 36.8704H62.5C57.2 36.8704 51.71 36.8704 46.23 35.9704C44.92 35.6904 44.01 34.7504 43.51 33.3004H42.76C42.69 33.5904 42.57 33.8804 42.42 34.1504C42.19 34.5504 41.9 34.8904 41.55 35.1604C40.88 35.5304 40.17 35.7204 39.48 35.7204C39.2 35.7204 38.92 35.6904 38.64 35.6304L27.55 34.5204C26.55 34.3604 25.65 33.8904 24.92 33.1704C24.19 32.4604 23.67 31.5304 23.4 30.5004C23.23 29.7304 23.14 28.9604 23.13 28.1904C23.15 28.0904 23.16 27.9804 23.18 27.8804C23.15 27.9804 23.12 28.0704 23.08 28.1704C21.67 31.2504 19.78 33.9604 17.46 36.2704C16.42 37.4604 15.31 38.0504 13.99 38.0504C12.67 38.0504 11.21 37.4804 9.39 36.3304C7.92 35.6104 6.72 34.1704 5.2 32.3504C4.61 31.6304 3.97 30.8604 3.24 30.0604C2.3 29.0704 1.63 27.8304 1.29 26.4604C1.23 24.9804 1 22.7204 1 22.7204C1.06 21.6304 1.25 20.5504 1.56 19.5104C2.03 18.1304 2.46 16.7804 2.89 15.4404C3.96 12.0704 4.97 8.89038 6.41 5.72038C7.1 4.11038 8.22 2.78038 9.65 1.87038H9.67C12.25 0.340383 14.83 0.840383 17.35 3.34038C20.04 7.12038 21.96 11.2904 23.1 15.7904C23.85 17.7304 24.23 19.7704 24.24 21.8404C25.4 15.5404 26.8 9.22038 28.56 4.36038C28.88 3.40038 29.44 2.55038 30.17 1.90038C31.15 1.06038 32.75 0.390383 34.82 1.95038C35.77 2.69038 36.55 3.69038 37.08 4.85038C40.32 11.7704 42.63 27.6204 42.87 29.3004H43.08C43.13 28.5004 43.24 27.6404 43.41 26.7304C45.6 18.8304 48.82 11.3004 52.96 4.30038C53.48 3.40038 54.16 2.64038 54.99 2.03038C57.24 0.470383 59.6 0.690383 62.03 2.70038C63.5 3.92038 64.66 5.52038 65.36 7.31038C68.12 14.2904 70.19 21.5704 71.5 28.9604C72.82 21.5604 74.88 14.2904 77.64 7.31038C78.34 5.52038 79.5 3.92038 80.97 2.70038C83.4 0.690383 85.76 0.470383 88 2.02038C88.83 2.64038 89.52 3.40038 90.03 4.31038C94.17 11.3004 97.38 18.8304 99.57 26.6904C99.74 27.6204 99.85 28.4904 99.9 29.3004H100.13C100.4 27.3304 102.69 11.7104 105.91 4.85038C106.44 3.69038 107.22 2.69038 108.17 1.95038C110.24 0.390383 111.84 1.06038 112.82 1.90038C113.55 2.55038 114.11 3.40038 114.45 4.37038C116.21 9.24038 117.61 15.6004 118.77 21.9004C118.77 19.8104 119.15 17.7204 119.92 15.7304C121.04 11.2904 122.96 7.12038 125.6 3.41038L125.65 3.34038C128.17 0.840383 130.76 0.350383 133.33 1.86038C134.78 2.78038 135.9 4.11038 136.59 5.73038C138.03 8.89038 139.04 12.0704 140.11 15.4304C140.54 16.7704 140.97 18.1304 141.43 19.4904C141.74 20.5504 141.94 21.6304 142 22.7304L141.73 26.4104H141.74Z" fill="white" stroke="#CECECE" stroke-linejoin="round" />
</svg>