<svg width="142" height="35" viewBox="0 0 142 35" fill="none" xmlns="http://www.w3.org/2000/svg">
  <path d="M0.769989 19.1939C0.949989 18.6139 1.21002 18.0039 1.55002 17.3639L4.28 8.4539C4.71 7.0839 5.68 5.9439 7 5.2439C8.75 4.2339 10.77 3.6839 12.84 3.6339C14.9 3.5939 16.95 4.0739 18.76 5.0139C19.55 5.4039 20.25 5.9739 20.79 6.6539C21.33 7.3439 21.7 8.1539 21.87 8.9939L23.71 17.8439C24.11 18.9639 24.39 20.0239 24.55 21.0239C24.64 19.6039 25.04 18.0839 25.72 16.4539L29.98 5.0639C30.47 3.7939 31.34 2.7239 32.43 2.0439C34.92 0.483903 37.28 0.103903 39.45 0.913903C40.3 1.2439 41.05 1.8039 41.64 2.5339C42.23 3.2539 42.64 4.1339 42.83 5.0839C43.69 9.2239 45.11 13.1939 47.05 16.8639C47.41 17.8239 47.64 18.7939 47.72 19.7839C48.33 16.3639 49.53 13.5839 51.35 11.3539C51.8 10.8339 52.33 10.4339 52.94 10.1439C53.55 9.8639 54.2 9.7239 54.87 9.7239C59.91 9.5639 64.99 8.9839 69.94 7.9839C71.02 7.7739 72.11 7.7939 73.17 8.0339C74.23 8.2639 75.22 8.7139 76.11 9.3539C80.79 12.6539 83.35 16.1939 83.76 19.8839C84.66 17.4239 86.48 15.3039 88.43 13.1839C88.92 12.6539 89.54 12.2339 90.23 11.9839C96.72 9.6639 103.31 9.6739 110.39 12.0239C111.06 12.2439 111.65 12.6539 112.09 13.1939C113.69 15.2739 114.7 17.7739 115.12 20.6439C115.58 18.4939 116.55 16.3039 118.03 14.0939C118.68 13.1139 119.59 12.3439 120.68 11.8639C123.06 10.8139 125.69 10.2539 128.31 10.2539H128.39C131.03 10.2739 133.69 10.8539 136.08 11.9339C137.08 12.3739 137.95 13.0739 138.58 13.9539C139.92 15.7639 140.82 17.8839 141.19 20.1039C141.55 22.3139 141.38 24.6139 140.69 26.7539H140.7C140.38 27.7539 139.71 28.6239 138.82 29.2139C137.93 29.7939 136.85 30.0639 135.78 29.9739C134.9 30.0639 133.99 30.4239 133.24 31.0039C132.83 31.3539 132.34 31.6039 131.81 31.7639C130.93 32.0439 130.09 32.1839 129.29 32.1839C127.85 32.1839 126.55 31.7239 125.41 30.7939C125.2 30.6139 124.94 30.5039 124.66 30.4639L121.89 30.1439C121.62 30.1239 121.35 30.1439 121.09 30.2239C119.55 30.6739 118.27 30.6139 117.27 30.0439C116.29 29.4839 115.61 28.4339 115.24 26.9339C115.13 26.5239 115.04 26.1239 114.98 25.7139C114.74 26.3739 114.36 26.9739 113.88 27.4939C110.64 31.0139 106.7 32.0539 102.16 30.5839C100.43 29.6939 98.37 30.0039 95.79 31.5039L95.67 31.5539C94.24 31.9739 92.89 32.1739 91.64 32.1739C89.4 32.1739 87.45 31.5139 85.82 30.1939C85.6 29.9939 85.41 29.7839 85.26 29.5439C84.18 27.9439 83.49 26.1139 83.27 24.1939C82.11 27.1439 77.8 29.2539 76.92 29.6639C75.79 30.1539 74.59 30.4139 73.37 30.4139C72.15 30.4139 70.95 30.1939 69.81 29.7139C68.53 29.3339 67.61 29.4439 66.96 30.0639C66.51 30.4739 66.02 30.7839 65.47 31.0139C63.89 31.7239 62.33 32.0839 60.81 32.0839C59.29 32.0839 57.79 31.7239 56.36 30.9939L53.61 30.2339C53.3 30.1439 52.99 30.1239 52.68 30.1739C51.4 30.4439 50.3 30.2839 49.43 29.7039C48.35 28.9939 47.64 27.6939 47.25 25.7439C47.25 25.1739 47.26 24.6239 47.29 24.0839C47.17 24.4639 47.03 24.8339 46.87 25.1939C46.51 26.0339 45.97 26.8039 45.31 27.3939L41.35 31.0139C39.87 32.3639 38.4 32.8739 36.99 32.8739C34.83 32.8739 32.85 31.6839 31.33 30.5639C27.55 28.8139 25.34 26.4439 24.73 23.4739C24.6 27.0639 22.68 29.8039 18.98 31.6239C16.68 32.6839 14.07 33.6839 11.78 33.6839C10.09 33.6839 8.57001 33.1439 7.48001 31.6639C7.05001 31.0539 6.54 30.5039 5.97 30.0239C3.51 28.0839 1.05 25.8439 0.5 22.8739L0.769989 19.1939Z" fill="white" stroke="#CECECE" stroke-linejoin="round" />
</svg>