<svg width="142" height="35" viewBox="0 0 142 35" fill="none" xmlns="http://www.w3.org/2000/svg">
  <path d="M141.394 22.9239C140.824 25.8539 138.374 28.0939 135.914 30.0339C135.344 30.5039 134.834 31.0539 134.414 31.6539C133.314 33.1339 131.794 33.6839 130.094 33.6839C127.804 33.6839 125.214 32.6839 122.914 31.6239H122.904C119.214 29.7939 117.284 27.0639 117.154 23.4839C116.544 26.4439 114.334 28.8139 110.554 30.5639C109.034 31.6839 107.054 32.8739 104.894 32.8739C103.484 32.8739 102.014 32.3639 100.534 31.0139L96.5738 27.3939C95.9138 26.8039 95.3738 26.0339 95.0138 25.1839C94.8638 24.8339 94.7238 24.4839 94.6138 24.1239C94.6338 24.6239 94.6438 25.1239 94.6438 25.6439C94.2438 27.6939 93.5338 28.9939 92.4538 29.7039C91.5838 30.2839 90.4838 30.4439 89.1938 30.1739C88.8938 30.1239 88.5838 30.1439 88.2838 30.2339L85.4338 31.0239C84.0538 31.7339 82.6038 32.0939 81.0938 32.0939C79.5838 32.0939 78.0038 31.7339 76.3938 31.0039C75.8638 30.7839 75.3738 30.4739 74.9338 30.0739C74.2738 29.4439 73.3538 29.3339 72.0238 29.7339C70.9338 30.1939 69.7438 30.3939 68.5138 30.4139C67.2938 30.4139 66.0938 30.1539 64.9738 29.6639C64.0838 29.2539 59.7738 27.1339 58.6138 24.1939C58.3938 26.1139 57.7038 27.9439 56.6138 29.5639C56.4738 29.7839 56.2838 29.9939 56.0738 30.1839C54.4338 31.5139 52.4838 32.1739 50.2438 32.1739C48.9838 32.1739 47.6438 31.9739 46.2138 31.5539L46.0938 31.5039C43.5138 30.0039 41.4538 29.6939 39.8038 30.5539C35.1838 32.0539 31.2438 31.0139 28.0038 27.4839C27.5238 26.9639 27.1438 26.3639 26.9038 25.7239C26.8438 26.1339 26.7538 26.5339 26.6438 26.9439C26.2738 28.4339 25.5938 29.4839 24.6138 30.0439C23.6138 30.6139 22.3338 30.6839 20.8038 30.2339C20.5338 30.1439 20.2638 30.1239 19.9938 30.1439L17.2138 30.4639C16.9438 30.5039 16.6838 30.6139 16.4738 30.7939C15.3338 31.7139 14.0338 32.1839 12.5938 32.1839C11.7938 32.1839 10.9438 32.0439 10.0538 31.7539C9.54379 31.6139 9.04379 31.3439 8.63379 30.9939C7.88379 30.4239 6.98379 30.0639 6.01379 29.9739C5.03379 30.0639 3.95379 29.7939 3.06379 29.2139C2.17379 28.6239 1.50379 27.7539 1.18379 26.7439C0.49379 24.6139 0.32379 22.3139 0.68379 20.1039C1.05379 17.8839 1.95379 15.7639 3.30379 13.9439C3.92379 13.0739 4.79379 12.3739 5.80379 11.9339C8.18379 10.8539 10.8438 10.2739 13.4838 10.2539C16.1538 10.2639 18.7938 10.8039 21.1938 11.8639C22.2838 12.3439 23.1938 13.1139 23.8438 14.1039C25.3238 16.3139 26.3038 18.5039 26.7638 20.6539C27.1838 17.7539 28.1938 15.2739 29.7738 13.2039C30.2238 12.6539 30.8138 12.2439 31.4838 12.0239C38.5638 9.6739 45.1538 9.6639 51.6438 11.9839C52.3338 12.2339 52.9538 12.6539 53.4438 13.1839C55.3938 15.3039 57.2138 17.4239 58.1138 19.8839C58.5238 16.1939 61.0838 12.6539 65.7638 9.3439C66.6538 8.7139 67.6438 8.2639 68.7038 8.0339C69.7738 7.7939 70.8538 7.7739 71.9238 7.9839C76.8838 8.9839 81.9638 9.5639 87.0238 9.7239C87.6738 9.7239 88.3238 9.8639 88.9338 10.1439C89.5438 10.4339 90.0738 10.8339 90.5138 11.3439C92.3338 13.5739 93.5338 16.3339 94.1538 19.7139C94.2438 18.7539 94.4638 17.8239 94.8038 16.9239C96.7638 13.1939 98.1838 9.2239 99.0438 5.0839C99.2338 4.1439 99.6438 3.2539 100.234 2.5339C100.824 1.8039 101.574 1.2439 102.424 0.913903C104.594 0.103903 106.954 0.483903 109.454 2.0439C110.544 2.7239 111.404 3.7939 111.894 5.0639L116.154 16.4739C116.834 18.1039 117.224 19.6139 117.324 21.0239C117.484 20.0139 117.774 18.9439 118.174 17.8139L120.014 8.9839C120.174 8.1539 120.544 7.3439 121.084 6.6539C121.624 5.9739 122.324 5.4039 123.124 5.0039C124.924 4.0739 126.994 3.6039 129.034 3.6339C131.104 3.6839 133.124 4.2339 134.894 5.2539C136.194 5.9439 137.164 7.0839 137.594 8.4539L140.364 17.4539C140.684 18.0539 140.924 18.6339 141.104 19.1839L141.394 22.9239Z" fill="white" stroke="#CECECE" stroke-linejoin="round" />
</svg>