<svg width="277" height="36" viewBox="0 0 277 36" fill="none" xmlns="http://www.w3.org/2000/svg">
  <path d="M276.1 23.6429V23.7229C276.09 25.0729 275.57 26.3729 274.65 27.3729C271.41 30.8829 267.46 31.9329 262.93 30.4729C261.19 29.5729 259.13 29.8829 256.55 31.3829L256.44 31.4329C255 31.8529 253.66 32.0529 252.4 32.0529C250.16 32.0529 248.21 31.3929 246.59 30.0729C246.36 29.8729 246.17 29.6529 246.03 29.4329C244.94 27.8229 244.26 26.0029 244.04 24.0929C242.86 27.0129 238.57 29.1429 237.69 29.5429C236.52 30.0529 235.31 30.2929 234.05 30.2929C232.86 30.2929 231.66 30.0529 230.57 29.5929C229.29 29.2129 228.37 29.3229 227.73 29.9429C227.3 30.3329 226.8 30.6529 226.24 30.8829C224.65 31.6029 223.09 31.9629 221.57 31.9629C220.05 31.9629 218.59 31.6029 217.17 30.8929L214.38 30.1129C214.06 30.0129 213.76 30.0029 213.45 30.0529C212.16 30.3229 211.06 30.1629 210.19 29.5729C209.17 28.9029 208.45 27.6429 208.06 25.8429C207.69 26.6129 207.19 27.3229 206.57 27.9329C205.85 28.6729 205.21 29.3929 204.62 30.0629C203.11 31.7629 201.91 33.1029 200.39 33.8129C198.61 34.8629 197.14 35.3929 195.86 35.3929C194.58 35.3929 193.42 34.8329 192.36 33.7029C190.06 31.5529 188.17 29.0029 186.77 26.1629C186.73 26.0729 186.7 25.9729 186.66 25.8829C186.67 25.9329 186.68 25.9829 186.69 26.0329C186.7 26.8729 186.61 27.6029 186.43 28.2929C186.17 29.2829 185.64 30.1529 184.91 30.8229C184.18 31.4929 183.28 31.9329 182.31 32.0829L171.14 33.1329C170.87 33.1829 170.6 33.2129 170.33 33.2129C169.66 33.2129 168.99 33.0529 168.36 32.7229C167.97 32.4529 167.68 32.1329 167.43 31.7529C167.2 31.3629 167.05 30.9429 166.98 30.5129C166.91 30.2329 166.86 29.9429 166.84 29.6429H166.66C166.33 31.7529 165.28 33.0929 163.63 33.4429H163.61C158.11 34.3029 152.6 34.2929 147.27 34.2829C146.01 34.2829 144.74 34.2829 143.47 34.2829C141.15 34.1829 139.56 33.5129 138.7 32.2729C137.84 33.5129 136.25 34.1829 133.95 34.2829C132.66 34.2829 131.39 34.2829 130.13 34.2829C124.8 34.2829 119.29 34.3029 113.79 33.4429C112.12 33.0929 111.08 31.7529 110.74 29.6429H110.56C110.53 29.9429 110.48 30.2529 110.41 30.5529C110.36 30.9429 110.2 31.3729 109.96 31.7429C109.74 32.1229 109.44 32.4429 109.1 32.6829C108.44 33.0329 107.73 33.2029 107.04 33.2029C106.76 33.2029 106.48 33.1829 106.21 33.1229L95.11 32.0929C94.11 31.9329 93.22 31.4929 92.49 30.8229C91.77 30.1629 91.23 29.2929 90.96 28.3129C90.79 27.6029 90.7 26.8729 90.69 26.1329C90.7 26.0529 90.72 25.9629 90.73 25.8829C90.71 25.9729 90.67 26.0529 90.64 26.1329V26.1629C89.21 29.0229 87.32 31.5629 85.01 33.7229C83.97 34.8329 82.86 35.3929 81.55 35.3929C80.24 35.3929 78.77 34.8629 76.97 33.7929C75.49 33.1029 74.3 31.7729 72.79 30.0729C72.19 29.4029 71.54 28.6729 70.81 27.9229C70.06 27.1729 69.48 26.2729 69.1 25.2829V25.6229C68.7 27.5729 67.99 28.8629 66.92 29.5829C66.04 30.1629 64.94 30.3229 63.65 30.0529C63.34 29.9929 63.04 30.0129 62.74 30.1129L59.93 30.8929C58.52 31.6129 57.05 31.9629 55.54 31.9629C54.03 31.9629 52.45 31.6029 50.85 30.8729C50.32 30.6629 49.82 30.3529 49.39 29.9529C48.73 29.3229 47.81 29.2129 46.48 29.6129C45.43 30.0629 44.26 30.2929 43.06 30.2929C41.84 30.2729 40.59 30.0529 39.43 29.5529C38.54 29.1429 34.25 27.0329 33.07 24.0829C32.84 26.0129 32.15 27.8329 31.06 29.4429C30.92 29.6729 30.73 29.8929 30.52 30.0629C28.9 31.3929 26.95 32.0529 24.7 32.0529C23.45 32.0629 22.1 31.8529 20.66 31.4329L20.55 31.3829C17.97 29.8829 15.92 29.5729 14.26 30.4329C9.64 31.9329 5.69 30.8929 2.46 27.3729C1.53 26.3729 1.01 25.0829 1 23.7229C1 19.4129 2.09 15.8629 4.23 13.0829C4.69 12.5229 5.28 12.1129 5.94 11.8929C13.02 9.55292 19.61 9.54292 26.1 11.8629C26.78 12.1129 27.4 12.5229 27.9 13.0629C29.85 15.1829 31.67 17.3029 32.57 19.7629C32.98 16.0729 35.55 12.5329 40.22 9.22292C41.11 8.59292 42.1 8.15292 43.16 7.91292C44.23 7.67292 45.32 7.66292 46.38 7.86292C51.32 8.85292 56.39 9.44292 61.48 9.60292C62.12 9.60292 62.79 9.75292 63.39 10.0329C64.01 10.3129 64.54 10.7229 64.97 11.2329C66.85 13.5329 68.07 16.4129 68.67 19.9629C68.77 19.2929 68.91 18.6329 69.12 17.9829C69.6 16.6629 70.04 15.3729 70.47 14.1029C71.54 10.9729 72.55 8.01292 73.97 5.06292C74.68 3.54292 75.81 2.29292 77.23 1.45292C79.81 0.0329205 82.39 0.492921 84.9 2.82292C87.59 6.38292 89.51 10.2929 90.66 14.5029C91.41 16.3229 91.78 18.2929 91.78 20.2729C92.95 14.3329 94.35 8.38292 96.12 3.80292C96.45 2.89292 97.01 2.08292 97.75 1.47292C98.73 0.692921 100.32 0.0729204 102.38 1.52292C103.33 2.21292 104.11 3.15292 104.64 4.25292C107.52 10.0029 109.67 22.3229 110.28 26.1429H110.75C110.81 25.6929 110.88 25.2229 110.98 24.7429C113.19 17.3329 116.4 10.2829 120.55 3.72292C121.05 2.89292 121.75 2.16292 122.58 1.60292C124.8 0.132921 127.16 0.35292 129.59 2.22292C131.07 3.38292 132.22 4.88292 132.92 6.56292C135.44 12.5329 137.38 18.7129 138.7 24.9729C140.02 18.6929 141.96 12.5129 144.47 6.56292C145.18 4.86292 146.34 3.37292 147.81 2.22292C150.24 0.35292 152.59 0.14292 154.81 1.59292C155.65 2.16292 156.35 2.89292 156.86 3.73292C161 10.2829 164.21 17.3329 166.41 24.7029C166.51 25.2029 166.59 25.6829 166.65 26.1429H167.12C167.74 22.2629 169.89 9.99292 172.75 4.25292C173.29 3.14292 174.08 2.20292 175.02 1.52292C177.07 0.0829204 178.67 0.692921 179.64 1.47292C180.38 2.08292 180.95 2.89292 181.28 3.81292C183.06 8.42292 184.46 14.3929 185.62 20.2829C185.62 18.2929 186 16.3029 186.76 14.4429C187.89 10.2729 189.81 6.36292 192.44 2.89292C195.01 0.49292 197.58 0.0229205 200.15 1.44292C201.6 2.30292 202.73 3.55292 203.42 5.07292C204.86 8.02292 205.87 10.9929 206.94 14.1329C207.37 15.3929 207.8 16.6729 208.27 17.9629V17.9829C208.4 18.3729 208.51 18.7629 208.59 19.1529C209.23 15.9729 210.4 13.3629 212.12 11.2329C212.56 10.7129 213.1 10.3129 213.71 10.0329C214.31 9.75292 214.98 9.60292 215.64 9.60292C220.7 9.44292 225.78 8.86292 230.72 7.86292C231.77 7.66292 232.88 7.68292 233.94 7.91292C234.99 8.15292 235.98 8.59292 236.89 9.22292C241.56 12.5329 244.13 16.0729 244.54 19.7629C245.44 17.3029 247.25 15.1829 249.2 13.0629C249.7 12.5229 250.32 12.1129 251 11.8629C257.49 9.54292 264.08 9.55292 271.17 11.9029C271.84 12.1229 272.43 12.5329 272.86 13.0829C275.01 15.8629 276.1 19.4129 276.1 23.6429Z" fill="white" stroke="#BDBDBD" stroke-width="1.5" stroke-linejoin="round" />
</svg>