<svg width="424" height="39" viewBox="0 0 424 39" fill="none" xmlns="http://www.w3.org/2000/svg">
  <path d="M422.04 30.2904C421.72 31.2904 421.05 32.1604 420.16 32.7504C419.27 33.3304 418.19 33.6004 417.12 33.5104C416.24 33.6004 415.33 33.9604 414.58 34.5404C414.17 34.8904 413.68 35.1404 413.15 35.3004C412.27 35.5804 411.43 35.7204 410.63 35.7204C409.19 35.7204 407.89 35.2604 406.75 34.3304C406.54 34.1504 406.28 34.0404 406 34.0004L403.23 33.6804C402.96 33.6604 402.69 33.6804 402.43 33.7604C400.89 34.2104 399.61 34.1504 398.61 33.5804C397.63 33.0204 396.95 31.9704 396.58 30.4704C396.47 30.0604 396.38 29.6604 396.32 29.2504C396.08 29.9104 395.7 30.5104 395.22 31.0304C391.98 34.5504 388.04 35.5904 383.5 34.1204C381.77 33.2304 379.71 33.5404 377.13 35.0404L377.01 35.0904C375.58 35.5104 374.23 35.7104 372.98 35.7104C370.74 35.7104 368.79 35.0504 367.16 33.7304C366.94 33.5304 366.75 33.3204 366.6 33.0804C365.52 31.4804 364.83 29.6504 364.61 27.7304C363.45 30.6804 359.14 32.7904 358.26 33.2004C357.13 33.6904 355.93 33.9504 354.71 33.9504C353.47 33.9504 352.29 33.7304 351.15 33.2504C349.87 32.8704 348.95 32.9804 348.3 33.6004C347.85 34.0104 347.36 34.3204 346.81 34.5504C345.23 35.2604 343.67 35.6204 342.15 35.6204C340.63 35.6204 339.13 35.2604 337.7 34.5304L334.95 33.7704C334.64 33.6804 334.33 33.6604 334.02 33.7104C332.74 33.9804 331.64 33.8204 330.77 33.2404C329.69 32.5304 328.98 31.2304 328.59 29.2804C328.59 28.7104 328.6 28.1604 328.63 27.6204C328.51 28.0004 328.37 28.3704 328.21 28.7304C327.85 29.5704 327.31 30.3404 326.65 30.9304L322.69 34.5504C321.21 35.9004 319.74 36.4104 318.33 36.4104C316.17 36.4104 314.19 35.2204 312.67 34.1004C308.89 32.3504 306.68 29.9804 306.07 27.0104C305.94 30.6004 304.02 33.3404 300.32 35.1604C298.02 36.2204 295.41 37.2204 293.12 37.2204C291.43 37.2204 289.91 36.6804 288.82 35.2004C288.39 34.5904 287.88 34.0404 287.31 33.5604C284.85 31.6204 282.39 29.3804 281.84 26.4104C281.51 27.8004 280.82 29.0604 279.87 30.0704C279.15 30.8604 278.51 31.6304 277.92 32.3504C276.4 34.1704 275.21 35.6104 273.68 36.3604C271.9 37.4904 270.43 38.0504 269.14 38.0504C267.85 38.0504 266.69 37.4504 265.63 36.2404C263.34 33.9604 261.45 31.2504 260.05 28.2004C260.01 28.1004 259.98 28.0104 259.95 27.9104C259.96 27.9704 259.97 28.0404 259.98 28.1004C259.98 28.9604 259.89 29.7304 259.73 30.4804C259.45 31.5304 258.93 32.4604 258.2 33.1704C257.47 33.8904 256.57 34.3604 255.6 34.5204L244.42 35.6404C244.17 35.6904 243.9 35.7204 243.63 35.7204C242.95 35.7204 242.26 35.5504 241.63 35.2104C241.22 34.8904 240.93 34.5504 240.7 34.1504C240.55 33.8804 240.44 33.6004 240.36 33.3004H239.61C239.12 34.7604 238.21 35.6804 236.92 35.9604C231.42 36.8804 225.93 36.8804 220.62 36.8704C219.33 36.8704 218.04 36.8704 216.76 36.8704C214.6 36.7704 213.12 36.1804 212.22 35.0604C211.97 34.7504 211.77 34.4004 211.61 34.0104C211.45 34.4004 211.25 34.7504 211 35.0604C210.1 36.1804 208.62 36.7704 206.49 36.8704C205.18 36.8704 203.89 36.8704 202.6 36.8704C197.3 36.8704 191.81 36.8704 186.33 35.9704C185.02 35.6904 184.11 34.7504 183.61 33.3004H182.86C182.79 33.5904 182.67 33.8804 182.52 34.1504C182.29 34.5504 182 34.8904 181.65 35.1604C180.98 35.5304 180.27 35.7204 179.58 35.7204C179.3 35.7204 179.02 35.6904 178.74 35.6304L167.65 34.5204C166.65 34.3604 165.75 33.8904 165.02 33.1704C164.29 32.4604 163.77 31.5304 163.5 30.5004C163.33 29.7304 163.24 28.9604 163.23 28.1904C163.25 28.0904 163.26 27.9804 163.28 27.8804C163.25 27.9804 163.22 28.0704 163.18 28.1704C161.77 31.2504 159.88 33.9604 157.56 36.2704C156.52 37.4604 155.41 38.0504 154.09 38.0504C152.77 38.0504 151.31 37.4804 149.49 36.3304C148.02 35.6104 146.82 34.1704 145.3 32.3504C144.71 31.6304 144.07 30.8604 143.34 30.0604C142.4 29.0704 141.73 27.8304 141.39 26.4604C140.82 29.3904 138.37 31.6304 135.91 33.5704C135.34 34.0404 134.83 34.5904 134.41 35.1904C133.31 36.6704 131.79 37.2204 130.09 37.2204C127.8 37.2204 125.21 36.2204 122.91 35.1604H122.9C119.21 33.3304 117.28 30.6004 117.15 27.0204C116.54 29.9804 114.33 32.3504 110.55 34.1004C109.03 35.2204 107.05 36.4104 104.89 36.4104C103.48 36.4104 102.01 35.9004 100.53 34.5504L96.5699 30.9304C95.9099 30.3404 95.3699 29.5704 95.0099 28.7204C94.8599 28.3704 94.7199 28.0204 94.6099 27.6604C94.6299 28.1604 94.6399 28.6604 94.6399 29.1804C94.2399 31.2304 93.5299 32.5304 92.4499 33.2404C91.5799 33.8204 90.4799 33.9804 89.1899 33.7104C88.8899 33.6604 88.5799 33.6804 88.2799 33.7704L85.4299 34.5604C84.0499 35.2704 82.5999 35.6304 81.0899 35.6304C79.5799 35.6304 77.9999 35.2704 76.3899 34.5404C75.8599 34.3204 75.3699 34.0104 74.9299 33.6104C74.2699 32.9804 73.3499 32.8704 72.0199 33.2704C70.9299 33.7304 69.7399 33.9304 68.5099 33.9504C67.2899 33.9504 66.0899 33.6904 64.9699 33.2004C64.0799 32.7904 59.7699 30.6704 58.6099 27.7304C58.3899 29.6504 57.6999 31.4804 56.6099 33.1004C56.4699 33.3204 56.2799 33.5304 56.0699 33.7204C54.4299 35.0504 52.4799 35.7104 50.2399 35.7104C48.9799 35.7104 47.6399 35.5104 46.2099 35.0904L46.0899 35.0404C43.5099 33.5404 41.4499 33.2304 39.7999 34.0904C35.1799 35.5904 31.2399 34.5504 27.9999 31.0204C27.5199 30.5004 27.1399 29.9004 26.8999 29.2604C26.8399 29.6704 26.7499 30.0704 26.6399 30.4804C26.2699 31.9704 25.5899 33.0204 24.6099 33.5804C23.6099 34.1504 22.3299 34.2204 20.7999 33.7704C20.5299 33.6804 20.2599 33.6604 19.9899 33.6804L17.2099 34.0004C16.9399 34.0404 16.6799 34.1504 16.4699 34.3304C15.3299 35.2504 14.0299 35.7204 12.5899 35.7204C11.7899 35.7204 10.9399 35.5804 10.0499 35.2904C9.53988 35.1504 9.03988 34.8804 8.62988 34.5304C7.87988 33.9604 6.97988 33.6004 6.00988 33.5104C5.02988 33.6004 3.94988 33.3304 3.05988 32.7504C2.16988 32.1604 1.49988 31.2904 1.17988 30.2804C0.489884 28.1504 0.319884 25.8504 0.679884 23.6404C1.04988 21.4204 1.94988 19.3004 3.29988 17.4804C3.91988 16.6104 4.78988 15.9104 5.79988 15.4704C8.17988 14.3904 10.8399 13.8104 13.4799 13.7904C16.1499 13.8004 18.7899 14.3404 21.1899 15.4004C22.2799 15.8804 23.1899 16.6504 23.8399 17.6404C25.3199 19.8504 26.2999 22.0404 26.7599 24.1904C27.1799 21.2904 28.1899 18.8104 29.7699 16.7404C30.2199 16.1904 30.8099 15.7804 31.4799 15.5604C38.5599 13.2104 45.1499 13.2004 51.6399 15.5204C52.3299 15.7704 52.9499 16.1904 53.4399 16.7204C55.3899 18.8404 57.2099 20.9604 58.1099 23.4204C58.5199 19.7304 61.0799 16.1904 65.7599 12.8804C66.6499 12.2504 67.6399 11.8004 68.6999 11.5704C69.7699 11.3304 70.8499 11.3104 71.9199 11.5204C76.8799 12.5204 81.9599 13.1004 87.0199 13.2604C87.6699 13.2604 88.3199 13.4004 88.9299 13.6804C89.5399 13.9704 90.0699 14.3704 90.5099 14.8804C92.3299 17.1104 93.5299 19.8704 94.1499 23.2504C94.2399 22.2904 94.4599 21.3604 94.7999 20.4604C96.7599 16.7304 98.1799 12.7604 99.0399 8.62038C99.2299 7.68038 99.6399 6.79038 100.23 6.07038C100.82 5.34038 101.57 4.78038 102.42 4.45038C104.59 3.64038 106.95 4.02038 109.45 5.58038C110.54 6.26038 111.4 7.33038 111.89 8.60038L116.15 20.0104C116.83 21.6404 117.22 23.1504 117.32 24.5604C117.48 23.5504 117.77 22.4804 118.17 21.3504L120.01 12.5204C120.17 11.6904 120.54 10.8804 121.08 10.1904C121.62 9.51038 122.32 8.94038 123.12 8.54038C124.92 7.61038 126.99 7.14038 129.03 7.17038C131.1 7.22038 133.12 7.77038 134.89 8.79038C136.19 9.48038 137.16 10.6204 137.59 11.9904L140.36 20.9904C140.68 21.5904 140.92 22.1704 141.1 22.7204C141.16 21.6304 141.35 20.5504 141.66 19.5104C142.13 18.1304 142.56 16.7804 142.99 15.4404C144.06 12.0704 145.07 8.89038 146.51 5.72038C147.2 4.11038 148.32 2.78038 149.75 1.87038H149.77C152.35 0.340383 154.93 0.840383 157.45 3.34038C160.14 7.12038 162.06 11.2904 163.2 15.7904C163.95 17.7304 164.33 19.7704 164.34 21.8404C165.5 15.5404 166.9 9.22038 168.66 4.36038C168.98 3.40038 169.54 2.55038 170.27 1.90038H170.28C171.26 1.06038 172.86 0.390383 174.93 1.95038C175.88 2.69038 176.66 3.69038 177.19 4.85038C180.43 11.7704 182.74 27.6204 182.98 29.3004H183.19C183.24 28.5004 183.35 27.6404 183.52 26.7304C185.71 18.8304 188.93 11.3004 193.07 4.30038C193.59 3.40038 194.27 2.64038 195.1 2.03038C197.35 0.470383 199.71 0.690383 202.14 2.70038C203.61 3.92038 204.77 5.52038 205.47 7.31038C208.23 14.2904 210.3 21.5704 211.61 28.9604C212.93 21.5604 214.99 14.2904 217.75 7.31038C218.45 5.52038 219.61 3.92038 221.08 2.70038C223.51 0.690383 225.87 0.470383 228.11 2.02038C228.94 2.64038 229.63 3.40038 230.14 4.31038C234.28 11.3004 237.49 18.8304 239.68 26.6904C239.85 27.6204 239.96 28.4904 240.01 29.3004H240.24C240.51 27.3304 242.8 11.7104 246.02 4.85038C246.55 3.69038 247.33 2.69038 248.28 1.95038C250.35 0.390383 251.95 1.06038 252.93 1.90038C253.66 2.55038 254.22 3.40038 254.56 4.37038C256.32 9.24038 257.72 15.6004 258.88 21.9004C258.88 19.8104 259.26 17.7204 260.03 15.7304C261.15 11.2904 263.07 7.12038 265.71 3.41038L265.76 3.34038C268.28 0.840383 270.87 0.350383 273.44 1.86038C274.89 2.78038 276.01 4.11038 276.7 5.73038C278.14 8.89038 279.15 12.0704 280.22 15.4304C280.65 16.7704 281.08 18.1304 281.54 19.4904C281.85 20.5504 282.05 21.6304 282.11 22.7304C282.29 22.1504 282.55 21.5404 282.89 20.9004L285.62 11.9904C286.05 10.6204 287.02 9.48038 288.34 8.78038C290.09 7.77038 292.11 7.22038 294.18 7.17038C296.24 7.13038 298.29 7.61038 300.1 8.55038C300.89 8.94038 301.59 9.51038 302.13 10.1904C302.67 10.8804 303.04 11.6904 303.21 12.5304L305.05 21.3804C305.45 22.5004 305.73 23.5604 305.89 24.5604C305.98 23.1404 306.38 21.6204 307.06 19.9904L311.32 8.60038C311.81 7.33038 312.68 6.26038 313.77 5.58038C316.26 4.02038 318.62 3.64038 320.79 4.45038C321.64 4.78038 322.39 5.34038 322.98 6.07038C323.57 6.79038 323.98 7.67038 324.17 8.62038C325.03 12.7604 326.45 16.7304 328.39 20.4004C328.75 21.3604 328.98 22.3304 329.06 23.3204C329.67 19.9004 330.87 17.1204 332.69 14.8904C333.14 14.3704 333.67 13.9704 334.28 13.6804C334.89 13.4004 335.54 13.2604 336.21 13.2604C341.25 13.1004 346.33 12.5204 351.28 11.5204C352.36 11.3104 353.45 11.3304 354.51 11.5704C355.57 11.8004 356.56 12.2504 357.45 12.8904C362.13 16.1904 364.69 19.7304 365.1 23.4204C366 20.9604 367.82 18.8404 369.77 16.7204C370.26 16.1904 370.88 15.7704 371.57 15.5204C378.06 13.2004 384.65 13.2104 391.73 15.5604C392.4 15.7804 392.99 16.1904 393.43 16.7304C395.03 18.8104 396.04 21.3104 396.46 24.1804C396.92 22.0304 397.89 19.8404 399.37 17.6304C400.02 16.6504 400.93 15.8804 402.02 15.4004C404.4 14.3504 407.03 13.7904 409.65 13.7904H409.73C412.37 13.8104 415.03 14.3904 417.42 15.4704C418.42 15.9104 419.29 16.6104 419.92 17.4904C421.26 19.3004 422.16 21.4204 422.53 23.6404C422.89 25.8504 422.72 28.1504 422.03 30.2904H422.04Z" fill="white" stroke="#BDBDBD" stroke-linejoin="round" />
</svg>